<?xml version="1.0" standalone="no"?>
<!DOCTYPE svg PUBLIC "-//W3C//DTD SVG 1.1//EN" "http://www.w3.org/Graphics/SVG/1.1/DTD/svg11.dtd" >
<svg xmlns="http://www.w3.org/2000/svg">
<metadata></metadata>
<defs>
<font id="SSNYU Libraries" horiz-adv-x="2048" >
  <font-face 
    font-family="SS NYU Libraries"
    font-weight="400"
    font-stretch="normal"
    units-per-em="2048"
    panose-1="2 0 6 3 0 0 0 0 0 0"
    ascent="2048"
    descent="0"
    bbox="-11 0 2081 2048"
    underline-thickness="102.4"
    underline-position="-204.8"
    unicode-range="U+0020-U+1F6B2"
  />
    <missing-glyph />
    <glyph unicode="&#xe310;" 
d="M43 2048c182 0 359.5 -24 532.5 -72s332.833 -115.167 479.5 -201.5c146.667 -86.3334 281.667 -191.167 405 -314.5c123.333 -123.333 228.167 -258.333 314.5 -405c86.3334 -146.667 153.5 -306.5 201.5 -479.5s72 -350.5 72 -532.5
c0 -12 -4.16663 -22.1667 -12.5 -30.5c-8.33337 -8.33333 -18.5 -12.5 -30.5 -12.5h-298c-12 0 -22.1666 4.16667 -30.5 12.5c-8.33337 8.33333 -12.5 18.5 -12.5 30.5c0 147.333 -19.3334 291 -58 431s-92.8333 269.333 -162.5 388
c-69.6666 118.667 -154.333 227.833 -254 327.5c-99.6666 99.6666 -208.833 184.333 -327.5 254c-118.667 69.6666 -248 123.833 -388 162.5c-140 38.6666 -283.667 58 -431 58c-12 0 -22.1667 4.16663 -30.5 12.5c-8.33333 8.33337 -12.5 18.5 -12.5 30.5v298
c0 12 4.16667 22.1666 12.5 30.5c8.33333 8.33337 18.5 12.5 30.5 12.5zM43 1408c123.333 0 244 -16.3334 362 -49s227 -78.3333 327 -137c100 -58.6666 192 -130 276 -214s155.333 -176 214 -276s104.333 -209 137 -327c32.6666 -118 49 -238.667 49 -362
c0 -12 -4.16663 -22.1667 -12.5 -30.5c-8.33337 -8.33333 -18.5 -12.5 -30.5 -12.5h-298c-12 0 -22.1666 4.16667 -30.5 12.5c-8.33337 8.33333 -12.5001 18.5 -12.5 30.5c0 133.333 -25.8333 260.5 -77.5 381.5s-121.333 225.333 -209 313
c-87.6667 87.6667 -192 157.333 -313 209c-121 51.6667 -248.167 77.5 -381.5 77.5c-12 0 -22.1667 4.16663 -30.5 12.5c-8.33333 8.33337 -12.5 18.5 -12.5 30.5v298c0 12 4.16667 22.1666 12.5 30.5c8.33333 8.33337 18.5 12.5 30.5 12.5zM320 640
c87.3333 0 162.5 -31.5 225.5 -94.5s94.5 -138.167 94.5 -225.5c0 -88.6667 -31.3333 -164.167 -94 -226.5c-62.6667 -62.3333 -138 -93.5 -226 -93.5c-89.3333 0 -165 31 -227 93s-93 137.667 -93 227c0 88 31.1667 163.333 93.5 226c62.3333 62.6667 137.833 94 226.5 94z
" />
    <glyph unicode="&#xf610;" 
d="M1920 2048c34.6666 0 64.6666 -12.6666 90 -38s38 -55.3334 38 -90v-1792c0 -34.6667 -12.6666 -64.6667 -38 -90c-25.3334 -25.3333 -55.3334 -38 -90 -38h-512v796h256l43 295h-299v232c0 42.6666 10.8334 75.3333 32.5 98c21.6666 22.6666 53.5 34 95.5 34h192v266
c-57.3334 9.33337 -127.333 14 -210 14c-137.333 0 -242.167 -34.8334 -314.5 -104.5c-72.3334 -69.6666 -108.5 -164.5 -108.5 -284.5v-255h-256v-295h256v-796h-967c-34.6667 0 -64.6667 12.6667 -90 38c-25.3333 25.3333 -38 55.3333 -38 90v1792
c0 34.6666 12.6667 64.6666 38 90c25.3333 25.3334 55.3333 38 90 38h1792z" />
    <glyph unicode="&#xf611;" 
d="M2048 1681c-56 -84.6666 -125.667 -157.333 -209 -218v-55c0 -93.3334 -11.8334 -187.167 -35.5 -281.5c-23.6666 -94.3334 -57.6666 -186 -102 -275c-44.3334 -89 -101.167 -172.167 -170.5 -249.5c-69.3334 -77.3333 -147 -144.833 -233 -202.5
c-86 -57.6667 -185.167 -103.167 -297.5 -136.5c-112.333 -33.3333 -230.833 -50 -355.5 -50c-252.667 0 -467.667 57 -645 171c30.6667 -4.66666 64 -7 100 -7c93.3333 0 184.667 18 274 54c89.3333 36 171.667 84.3333 247 145c-90 0.666687 -171.167 28.5 -243.5 83.5
s-121.5 124.5 -147.5 208.5c28 -5.33331 54 -8 78 -8c38.6667 0 76 5 112 15c-96.6667 19.3333 -177 67.5 -241 144.5s-96 166.167 -96 267.5v5c60 -32.6666 123.333 -50 190 -52c-58 38.6666 -103.833 88.6666 -137.5 150s-50.5 127.333 -50.5 198
c0 68.6666 19 136.667 57 204c105.333 -128 232.667 -229.5 382 -304.5s310.333 -117.167 483 -126.5c-6 26 -9 58.3334 -9 97c0 116 40.8334 214.833 122.5 296.5s180.5 122.5 296.5 122.5c119.333 0 222.333 -44 309 -132c95.3334 19.3334 183.667 53.3334 265 102
c-32 -101.333 -93.6666 -179 -185 -233c83.3334 9.33337 164 31.6667 242 67z" />
    <glyph unicode="&#xf612;" 
d="M512 1771c0 -67.3334 -23.6667 -123.333 -71 -168s-109.667 -67 -187 -67h-3c-74 0 -134.333 22.5 -181 67.5c-46.6667 45 -70 100.833 -70 167.5c0 67.3334 23.8333 123.167 71.5 167.5c47.6667 44.3334 109.833 66.5 186.5 66.5
c75.3333 0 136.167 -22.1666 182.5 -66.5c46.3333 -44.3334 70.1667 -100.167 71.5 -167.5zM43 1323h426v-1323h-426v1323zM1152 768v-768h-427v1024c-4.66669 169.333 -7 269 -7 299h420l14 -183c45.3334 68.6666 100.333 123.333 165 164
c64.6666 40.6666 137.667 61 219 61c153.333 0 277 -52.5 371 -157.5s141 -251.5 141 -439.5v-768h-427v725c0 101.333 -21.5 176.5 -64.5 225.5s-98.8334 73.5 -167.5 73.5c-68 0 -124.5 -22.1667 -169.5 -66.5s-67.5 -107.5 -67.5 -189.5z" />
    <glyph unicode="&#xf620;" 
d="M1664 111c-4.66663 -3.33334 -11.5 -7.33334 -20.5 -12s-28.6666 -13.5 -59 -26.5s-62.3334 -24.3333 -96 -34s-77.1666 -18.5 -130.5 -26.5s-107.667 -12 -163 -12c-190 0 -330 42.3333 -420 127c-90 84.6667 -135 213 -135 385v640h-299v299
c54.6667 18 102.5 37.3334 143.5 58s80.8333 46.8333 119.5 78.5c38.6667 31.6666 71.1667 68 97.5 109s49 91 68 150s32.8333 126.167 41.5 201.5h298v-512h470v-384h-470v-512c0 -56.6667 3.33337 -102.5 10 -137.5s19.3333 -65.3333 38 -91
c18.6666 -25.6667 44.6666 -43.8333 78 -54.5c33.3334 -10.6667 76.6667 -16 130 -16c38 0 81.8334 7.16666 131.5 21.5s90.1666 28.8333 121.5 43.5l46 21v-316z" />
    <glyph unicode="&#xf631;" 
d="M1451 1323c0 44 -9.5 80.3334 -28.5 109s-47.5 46 -85.5 52s-85.3334 -5 -142 -33c16 65.3334 40.6666 125.167 74 179.5c33.3334 54.3334 69.6667 98.8334 109 133.5c39.3334 34.6666 81.6667 64.1666 127 88.5c45.3334 24.3334 88.3334 41.6667 129 52
c40.6666 10.3334 79 15.5 115 15.5c86.6666 0 158.167 -31.8334 214.5 -95.5s84.5 -147.167 84.5 -250.5c0 -88 -20.5 -187.167 -61.5 -297.5s-94 -217.833 -159 -322.5c-65 -104.667 -138.167 -207.667 -219.5 -309s-162 -189.667 -242 -265
s-156.167 -136.167 -228.5 -182.5s-130.833 -69.5 -175.5 -69.5c-32.6667 0 -63.6667 5.16667 -93 15.5s-54.6666 23 -76 38c-21.3333 15 -41.8333 34.5 -61.5 58.5s-35.6667 46.1667 -48 66.5s-24.8333 45 -37.5 74s-22 52 -28 69l-21 62.5l-256 811
c-12 36.6666 -26.5 61.6666 -43.5 75s-42.6667 14.6667 -77 4c-34.3333 -10.6666 -79.5 -37 -135.5 -79l-85 104l22.5 28c9.66667 12 29.5 35 59.5 69l90 97.5c30 31 66.1667 65.5 108.5 103.5c42.3333 38 82.6667 70.6666 121 98c38.3333 27.3334 79 50.3334 122 69
s81.8333 28 116.5 28c31.3333 0 59.6666 -5.83337 85 -17.5c25.3333 -11.6666 46.8333 -26.6666 64.5 -45s33.8334 -42 48.5 -71c14.6667 -29 26.3334 -57 35 -84c8.66669 -27 16.6667 -59.5 24 -97.5s12.8333 -70.6666 16.5 -98l13 -98c5 -38 9.16669 -66.6666 12.5 -86
c10 -63.3334 20.5 -123.333 31.5 -180s24.5 -115.333 40.5 -176c16 -60.6667 33.8334 -109 53.5 -145s39.5 -54 59.5 -54c27.3334 0 67.3334 34 120 102s100.333 147 143 237c42.6666 90 64 162 64 216z" />
    <glyph unicode="&#xf630;" 
d="M1024 1749c309.333 0 512.667 -4.33337 610 -13c140.667 -12 239.333 -40.3334 296 -85c52.6666 -41.3334 86.6666 -109.667 102 -205c10.6666 -68 16 -198.667 16 -392v-30c0 -200.667 -4.33337 -334.333 -13 -401c-14 -101.333 -45.6666 -173.667 -95 -217
c-52.6666 -47.3333 -145.333 -77.6667 -278 -91c-98.6666 -10.6667 -297.333 -16 -596 -16h-1h-1h-1h-1h-1h-1h-1h-1h-1h-1h-1h-1h-1h-1h-1h-1h-1h-1h-1h-1h-1h-1h-1h-1h-1h-1h-1h-1h-1h-1h-1h-1h-1h-9c-309.333 0 -512.667 4.33334 -610 13
c-140.667 12 -239.333 40.3333 -296 85c-52.6667 41.3333 -86.6667 109.667 -102 205c-10.6667 68 -16 198.667 -16 392v30c0 200.667 4.33333 334.333 13 401c14 101.333 45.6667 173.667 95 217c52.6667 47.3334 145.333 77.6667 278 91
c98.6667 10.6666 297.333 16 596 16h1h1h1h1h1h1h1h1h1h1h1h1h1h1h1h1h1h1h1h1h1h1h1h1h1h1h1h1h1h1h1h1h1h9zM768 640l640 384l-640 384v-768z" />
    <glyph unicode="&#xf641;" 
d="M1749 2048c82.6666 0 153.167 -29.1666 211.5 -87.5s87.5 -128.833 87.5 -211.5v-1450c0 -82.6667 -29.1666 -153.167 -87.5 -211.5c-58.3334 -58.3333 -128.833 -87.5 -211.5 -87.5h-1450c-82.6667 0 -153.167 29.1667 -211.5 87.5
c-58.3333 58.3333 -87.5 128.833 -87.5 211.5v1450c0 82.6666 29.1667 153.167 87.5 211.5c58.3333 58.3334 128.833 87.5 211.5 87.5h1450zM1835 1536v256c0 12 -4.16663 22.1666 -12.5 30.5s-18.5 12.5 -30.5 12.5h-256c-12 0 -22.1666 -4.16663 -30.5 -12.5
s-12.5 -18.5 -12.5 -30.5v-256c0 -12 4.16663 -22.1666 12.5 -30.5s18.5 -12.5 30.5 -12.5h256c12 0 22.1666 4.16663 30.5 12.5s12.5 18.5 12.5 30.5zM1024 1408c-106 0 -196.5 -37.5 -271.5 -112.5s-112.5 -165.5 -112.5 -271.5s37.5 -196.5 112.5 -271.5
s165.5 -112.5 271.5 -112.5s196.5 37.5 271.5 112.5s112.5 165.5 112.5 271.5s-37.5 196.5 -112.5 271.5s-165.5 112.5 -271.5 112.5zM1835 256v896h-227c8.66663 -39.3334 13 -82 13 -128c0 -108 -26.6666 -207.833 -80 -299.5s-125.833 -164.167 -217.5 -217.5
c-91.6666 -53.3333 -191.5 -80 -299.5 -80s-207.833 26.6667 -299.5 80c-91.6667 53.3333 -164.167 125.833 -217.5 217.5c-53.3333 91.6667 -80 191.5 -80 299.5c0 46 4.33334 88.6666 13 128h-227v-896c0 -12 4.16667 -22.1667 12.5 -30.5s18.5 -12.5 30.5 -12.5h1536
c12 0 22.1666 4.16667 30.5 12.5s12.5 18.5 12.5 30.5z" />
    <glyph unicode="&#x1f50d;" 
d="M1817 344l-113 -113l-421 421c-118 -92 -252 -138 -402 -138c-86.6667 0 -169.833 16.5 -249.5 49.5c-79.6667 33 -150.5 80.1667 -212.5 141.5c-61.3333 61.3333 -108.5 131.833 -141.5 211.5s-49.5 163.167 -49.5 250.5c0 87.3334 16.5 170.833 49.5 250.5
s80.1667 150.167 141.5 211.5c62 61.3334 132.833 108.5 212.5 141.5s162.833 49.5 249.5 49.5c87.3333 0 170.833 -16.5 250.5 -49.5c79.6666 -33 150.167 -80.1666 211.5 -141.5c62 -61.3334 109.5 -131.833 142.5 -211.5s49.5 -163.167 49.5 -250.5
c0 -149.333 -46.3334 -283.333 -139 -402zM531 818c96.6667 -96.6667 213.333 -145 350 -145c136.667 0 253.333 48.3333 350 145c96 96 144 212.333 144 349c0 136 -48 252.667 -144 350c-97.3334 96 -214 144 -350 144c-136.667 0 -253 -48 -349 -144
c-96.6667 -96.6666 -145 -213.333 -145 -350c0 -136.667 48 -253 144 -349z" />
    <glyph unicode="&#xe003;" 
d="M1819 342l-113 -113l-422 422c-120 -92.6667 -254.333 -139 -403 -139c-87.3333 0 -171 16.5 -251 49.5s-151 80.5 -213 142.5s-109.5 132.833 -142.5 212.5s-49.5 163.167 -49.5 250.5c0 87.3334 16.6667 171 50 251c33.3333 80 80.6667 151 142 213
c62 62 133 109.5 213 142.5s163.667 49.5 251 49.5s170.833 -16.5 250.5 -49.5c79.6666 -33 150.5 -80.5 212.5 -142.5s109.5 -133 142.5 -213s49.5 -163.667 49.5 -251c0 -150 -46.3334 -284.333 -139 -403zM530 817c96.6667 -96.6667 213.667 -145 351 -145
c66 0 129.167 12.5 189.5 37.5c60.3334 25 113.833 60.8333 160.5 107.5c96.6666 96.6667 145 213.333 145 350c0 137.333 -48.3334 254.333 -145 351c-46.6666 46.6666 -100.167 82.5 -160.5 107.5c-60.3333 25 -123.5 37.5 -189.5 37.5
c-137.333 0 -254.333 -48.3334 -351 -145c-96.6667 -98 -145 -215 -145 -351c0 -135.333 48.3333 -252 145 -350zM576 1088v160h608v-160h-608z" />
    <glyph unicode="&#x1f517;" 
d="M909 544c24 24 39.5 52.6667 46.5 86s4.83331 65.3333 -6.5 96l119 118c34 -53.3333 51 -112.333 51 -177c0 -91.3333 -32.3334 -170 -97 -236l-111 -110c-66 -64.6667 -144.667 -97 -236 -97c-91.3333 0 -170.333 32.6667 -237 98l-148 148
c-65.3333 64.6667 -98 143.167 -98 235.5c0 92.3333 32.6667 171.167 98 236.5l110 110c66 64.6666 144.667 97 236 97c65.3333 0 125 -17.3334 179 -52l-118 -118c-20.6667 7.33331 -41 11 -61 11c-48.6667 0 -90 -17 -124 -51l-110 -110c-34 -34 -51 -75.1667 -51 -123.5
s17 -89.5 51 -123.5l149 -148c34 -34 75.3333 -51 124 -51s90 17 124 51zM1726 1610c65.3334 -64.6666 98 -143.167 98 -235.5s-32.6666 -171.167 -98 -236.5l-109 -109c-65.3334 -65.3333 -144 -98 -236 -98c-64.6666 0 -123.667 17 -177 51l118 118
c21.3334 -6.66663 41 -10 59 -10c48 0 89 17 123 51l110 110c34 34 51 75.1666 51 123.5s-17 89.5 -51 123.5l-148 148c-34 34 -75.3334 51 -124 51c-49.3334 0 -90.3334 -17 -123 -51l-110 -110c-34 -32.6666 -51 -73.6666 -51 -123c0 -20 3.66663 -40 11 -60l-118 -118
c-34.6667 53.3334 -52 112.667 -52 178c0 91.3334 32.3333 170 97 236l110 110c66 64.6666 144.667 97 236 97s170 -32.3334 236 -97zM783 702l-113 113l554 554l113 -113z" />
    <glyph unicode="&#xe011;" 
d="M908 543c24 24 39.6667 52.6667 47 86s5.33331 65 -6 95l117 119c34 -54.6667 51 -113.667 51 -177c0 -93.3333 -32.3334 -171.667 -97 -235l-109 -110c-63.3333 -64.6667 -141.333 -97 -234 -97c-92 0 -170.333 32.3333 -235 97l-147 148
c-64.6667 65.3333 -97 143.833 -97 235.5c0 91.6667 32.3333 170.167 97 235.5l109 109c63.3333 64.6666 141.333 97 234 97c64 0 123.333 -17 178 -51l-118 -118c-20 7.33331 -40 11 -60 11c-48.6667 0 -89.3334 -17 -122 -51l-109 -109c-34 -34 -51 -75.1667 -51 -123.5
s17 -89.5 51 -123.5l147 -148c34 -34 75 -51 123 -51s89 17 123 51zM1726 1610c64.6666 -65.3334 97 -144 97 -236s-32.3334 -170.667 -97 -236l-110 -110c-63.3334 -64.6667 -141.333 -97 -234 -97c-63.3334 0 -122.333 17 -177 51l119 118c20 -6.66663 39.3334 -10 58 -10
c48 0 89 17 123 51l109 109c34 34 51 75.1666 51 123.5s-17 89.5 -51 123.5l-148 149c-34 34 -75 51 -123 51s-89 -17 -123 -51l-109 -110c-34 -34 -51 -75 -51 -123c0 -20.6666 3.66663 -41 11 -61l-118 -118c-34 54.6666 -51 114.333 -51 179
c0 93.3334 32.3333 171.667 97 235l109 110c64.6666 64.6666 143 97 235 97s170.333 -32.3334 235 -97zM794 1365l-113 -114l-296 296l113 113zM1222 712l114 114l295 -296l-113 -113z" />
    <glyph unicode="&#x1f4dd;" 
d="M1923 1847c40.6666 -40.6666 61 -89.5 61 -146.5s-20.3334 -105.833 -61 -146.5l-259 -259v-1071h-1408v1664h1065l-20 -19l-130 -141h-755v-1344h1088v751l-298 -298l-534 -165l166 534l717 717c39.3334 40.6666 88 61 146 61s106.667 -20.3334 146 -61zM1122 977
l487 487l-144 144l-487 -487l-49 -157l36 -35zM1811 1667c8.66663 8.66663 13 19.6666 13 33s-4.33337 24.6667 -13 34l-76 77c-8.66663 8.66663 -20 13 -34 13s-25.3334 -4.33337 -34 -13l-89 -90l144 -144z" />
    <glyph unicode="&#x1f511;" 
d="M464 1216c40 0 74 -14 102 -42s42 -62 42 -102s-14 -74 -42 -102s-62 -42 -102 -42s-74 14 -102 42s-42 62 -42 102s14 74 42 102s62 42 102 42zM2013 1286c28 -53.3334 39.1667 -112.167 33.5 -176.5c-5.66663 -64.3334 -27.1666 -123.5 -64.5 -177.5l-42.5 -59.5
l-36.5 -49l-27 -35l-19 -24.5l-7 -8l-55 -66l-149 144l-145 -137l-138 132l-113 -125h-195c-56 -69.3333 -124.167 -124 -204.5 -164s-166.5 -60 -258.5 -60c-80 0 -156.5 15.6667 -229.5 47c-73 31.3333 -136 73.3333 -189 126s-95.1667 115.667 -126.5 189
c-31.3333 73.3333 -47 150 -47 230c0 106.667 26.5 205.5 79.5 296.5s125 163 216 216s189.833 79.5 296.5 79.5c92 0 178.167 -20 258.5 -60s148.5 -94.6666 204.5 -164h691c59.3334 0 112.333 -13.3334 159 -40s82.6666 -64.6666 108 -114zM1851 1024
c20.6666 29.3334 32.8333 61.1667 36.5 95.5c3.66663 34.3334 -1.83337 65.1667 -16.5 92.5c-24 45.3334 -65.6666 68 -125 68h-420h-180h-176c-37.3333 68 -89.6666 122.333 -157 163c-67.3333 40.6666 -141 61 -221 61c-118.667 0 -220.333 -42.3334 -305 -127
c-84.6667 -84.6666 -127 -186.333 -127 -305c0 -118.667 42.3333 -220.333 127 -305c84.6667 -84.6667 186.333 -127 305 -127c80 0 153.667 20.3333 221 61s119.667 95 157 163h176h6h27l175 195l148 -141l145 137l133 -129c21.3334 27.3333 45 60 71 98z" />
    <glyph unicode="&#x1f6ab;" 
d="M1040 1760c102 0 199.333 -19.8334 292 -59.5s172.667 -93.1666 240 -160.5s120.833 -147.333 160.5 -240s59.5 -190 59.5 -292s-19.8334 -199.333 -59.5 -292s-93.1666 -172.667 -160.5 -240c-67.3334 -67.3333 -147.333 -120.833 -240 -160.5s-190 -59.5 -292 -59.5
c-100.667 0 -196.833 19 -288.5 57c-91.6667 38 -172.833 92.3333 -243.5 163c-70.6667 70.6667 -125 151.833 -163 243.5c-38 91.6667 -57 187.833 -57 288.5c0 102 19.8333 199.333 59.5 292s93.1667 172.667 160.5 240c67.3333 67.3334 147.333 120.833 240 160.5
s190 59.5 292 59.5zM448 1008c0 -132 40.3333 -251.333 121 -358l829 829c-106.667 80.6666 -226 121 -358 121c-80 0 -156.667 -15.6666 -230 -47s-136.333 -73.3334 -189 -126s-94.6667 -115.667 -126 -189c-31.3333 -73.3334 -47 -150 -47 -230zM1040 416
c106.667 0 205.5 26.5 296.5 79.5s163 125 216 216s79.5 189.833 79.5 296.5c0 132 -40.3334 251.333 -121 358l-829 -829c106.667 -80.6667 226 -121 358 -121z" />
    <glyph unicode="&#x1f6ad;" 
d="M1440 320v480h160v-480h-160zM1728 800h160v-480h-160v160v160v160zM1107 1282c-54.6666 3.33337 -101.667 6.66675 -141 10c-39.3333 3.33337 -83.8333 8.33337 -133.5 15s-92.5 14.1666 -128.5 22.5s-73.1667 19.3334 -111.5 33s-70.8333 29.1666 -97.5 46.5
c-26.6667 17.3334 -51 38.1667 -73 62.5c-22 24.3334 -38.6667 51.5 -50 81.5c-13.3333 40 -20 77.3334 -20 112s7.5 68 22.5 100s32.6667 60.8334 53 86.5s44.1667 49.5 71.5 71.5s53.5 40.5 78.5 55.5s49.8333 27.5 74.5 37.5l62 -148c-2 -0.666626 -7 -3 -15 -7
s-19.5 -10.1666 -34.5 -18.5s-30.1667 -18 -45.5 -29s-31 -24 -47 -39s-28.6667 -31 -38 -48s-16 -35.3334 -20 -55s-1.66669 -40.1666 7 -61.5c5.33331 -13.3334 13.1666 -25.8334 23.5 -37.5c10.3333 -11.6666 24.3333 -22.1666 42 -31.5s35.1667 -17.8334 52.5 -25.5
s39.6666 -14.5 67 -20.5l72 -16c20.6667 -4.66663 48.1667 -9.16663 82.5 -13.5s61.8333 -7.66675 82.5 -10c20.6667 -2.33337 49.8334 -4.83337 87.5 -7.5s65.1666 -4.66663 82.5 -6s44.6667 -3 82 -5c2 0 5 -0.166626 9 -0.5s7 -0.5 9 -0.5zM1785 928h-173
c14.6666 32 27 64.3333 37 97c10 32.6666 14.8334 67.8333 14.5 105.5c-0.333374 37.6666 -11.5 64.1666 -33.5 79.5c-28.6666 20.6666 -97 37.3333 -205 50l-319 -460h206v-160h-318l-111 -160h429v-160h-540l-209 -302l-132 92l1195 1719l131 -91l-230 -331
c88.6666 -14 153.667 -36 195 -66c32 -22.6666 56.5 -50.5 73.5 -83.5s26.1666 -68.5 27.5 -106.5s-1.16663 -75.1666 -7.5 -111.5c-6.33337 -36.3333 -16.5 -73.5 -30.5 -111.5zM549 480l-111 -160h-438v480h772l-112 -160h-500v-160h389z" />
    <glyph unicode="&#x1f516;" 
d="M1892 1280l-368 -832h-276v-386l-352 224l-352 -224v386h-136c-186.667 0 -280 121 -280 363c0 89.3333 11.3333 161 34 215c130.667 310.667 252.333 550.333 365 719c33.3333 49.3334 64.1666 88 92.5 116c28.3333 28 63.1666 50.1666 104.5 66.5
c41.3333 16.3334 90.3333 24.5 147 24.5h1007l-455 -928h-1015c-13.3333 0 -23.8333 -0.5 -31.5 -1.5s-18 -5.16669 -31 -12.5s-23 -17.8333 -30 -31.5s-13.3333 -34.6667 -19 -63s-8.5 -62.5 -8.5 -102.5c0 -39.3333 2.83334 -72.6666 8.5 -100
c5.66666 -27.3333 11.8333 -47.6666 18.5 -61c6.66666 -13.3333 16.5 -23.5 29.5 -30.5s23.3333 -11 31 -12s18.5 -1.5 32.5 -1.5h136v224h160v-478l192 122l192 -122v478h160v-224h171l298 672h175zM660 1658c-77.3333 -116 -162.333 -274 -255 -474h3h915l298 608h-750
c-52 0 -90.8333 -8.5 -116.5 -25.5s-57.1667 -53.1666 -94.5 -108.5z" />
    <glyph unicode="&#x2691;" 
d="M1752 1500l104 30v-1163l-59 -16c-6.66663 -2 -14.1666 -4 -22.5 -6s-26.5 -5.5 -54.5 -10.5s-56.3334 -8.66666 -85 -11s-64.6666 -3.33334 -108 -3s-86.3334 3.16669 -129 8.5c-51.3334 6.66666 -102.667 19.5 -154 38.5c-51.3334 19 -88.3334 34.8333 -111 47.5
s-58 34.3333 -106 65l-20 12c-88 56 -160 91.6667 -216 107c-73.3333 19.3333 -166.333 23 -279 11v161c128.667 11.3333 235.333 5.33331 320 -18c32.6667 -8.66669 65.8334 -20.6667 99.5 -36c33.6667 -15.3333 60.3334 -28.8333 80 -40.5l80.5 -49.5
c3.33337 -2 12.5 -7.83331 27.5 -17.5s24.8334 -15.8334 29.5 -18.5l28 -16.5l30 -17.5c6 -3.33331 15.8334 -8.33331 29.5 -15s24.6666 -11.6667 33 -15l32.5 -12.5c13.3334 -5 25.6667 -8.83334 37 -11.5c11.3334 -2.66666 23.8334 -5.33331 37.5 -8
c13.6666 -2.66666 27.5 -5 41.5 -7c88 -11.3333 180.667 -10 278 4v835c-92.6666 -14.6666 -191.667 -15.3333 -297 -2c-55.3334 6.66663 -109.167 19.1666 -161.5 37.5c-52.3334 18.3334 -92.8334 35.3334 -121.5 51s-65 37.1666 -109 64.5l-71 42
c-16 9.33337 -37.8333 20.3334 -65.5 33s-54.1667 22.3333 -79.5 29c-100 26.6666 -235.667 24.3333 -407 -7v-1479h-160v1605l60 15c6.66666 2 20 5.33337 40 10s50.8333 10.1666 92.5 16.5s84.1667 11.1667 127.5 14.5c43.3333 3.33337 91.5 3.5 144.5 0.5
s100.833 -10.1666 143.5 -21.5c72 -19.3334 158 -60 258 -122c41.3334 -25.3334 73.8334 -44.5 97.5 -57.5s56.6666 -27 99 -42s85.8334 -25.1666 130.5 -30.5c122.667 -15.3334 234 -10 334 16h1z" />
    <glyph unicode="&#xe207;" 
d="M1039 234l845 540l156 -91l-1001 -639l-1001 639l157 91zM1039 576l845 540l156 -91l-1001 -639l-1001 639l157 91zM1039 729l-1001 639l1001 580l1001 -580zM346 1361l693 -442l693 442l-693 403z" />
    <glyph unicode="&#x1f58a;" 
d="M1440 1426l192 -461l-450 -901h-284l-450 901l192 461v270h160v-302l-176 -423l336 -672v520c-28.6667 14.6667 -51.8334 36.1667 -69.5 64.5c-17.6667 28.3333 -26.5 59.1666 -26.5 92.5c0 48.6666 17.1667 90.1666 51.5 124.5s75.8333 51.5 124.5 51.5
c48.6666 0 90.1666 -17.1666 124.5 -51.5s51.5 -75.8334 51.5 -124.5c0 -33.3333 -8.83337 -64.1666 -26.5 -92.5c-17.6666 -28.3333 -40.8333 -49.8333 -69.5 -64.5v-521l336 673l-176 423v302h160v-270zM1568 1984v-160h-1056v160h1056z" />
    <glyph unicode="&#x260f;" 
d="M1120 1344v160h512v-160h-512zM1184 1088c-17.3334 0 -32.3334 6.33337 -45 19s-19 27.6666 -19 45s6.33337 32.3334 19 45s27.6666 19 45 19s32.3334 -6.33337 45 -19s19 -27.6666 19 -45s-6.33337 -32.3334 -19 -45s-27.6666 -19 -45 -19zM1376 1216
c17.3334 0 32.3334 -6.33337 45 -19s19 -27.6666 19 -45s-6.33337 -32.3334 -19 -45s-27.6666 -19 -45 -19s-32.3334 6.33337 -45 19s-19 27.6666 -19 45s6.33337 32.3334 19 45s27.6666 19 45 19zM1568 1088c-17.3334 0 -32.3334 6.33337 -45 19s-19 27.6666 -19 45
s6.33337 32.3334 19 45s27.6666 19 45 19s32.3334 -6.33337 45 -19s19 -27.6666 19 -45s-6.33337 -32.3334 -19 -45s-27.6666 -19 -45 -19zM1184 896c-17.3334 0 -32.3334 6.33331 -45 19s-19 27.6667 -19 45s6.33337 32.3333 19 45s27.6666 19 45 19
s32.3334 -6.33331 45 -19s19 -27.6667 19 -45s-6.33337 -32.3333 -19 -45s-27.6666 -19 -45 -19zM1376 1024c17.3334 0 32.3334 -6.33331 45 -19s19 -27.6667 19 -45s-6.33337 -32.3333 -19 -45s-27.6666 -19 -45 -19s-32.3334 6.33331 -45 19s-19 27.6667 -19 45
s6.33337 32.3333 19 45s27.6666 19 45 19zM1568 896c-17.3334 0 -32.3334 6.33331 -45 19s-19 27.6667 -19 45s6.33337 32.3333 19 45s27.6666 19 45 19s32.3334 -6.33331 45 -19s19 -27.6667 19 -45s-6.33337 -32.3333 -19 -45s-27.6666 -19 -45 -19zM1184 832
c17.3334 0 32.3334 -6.33331 45 -19s19 -27.6667 19 -45s-6.33337 -32.3333 -19 -45s-27.6666 -19 -45 -19s-32.3334 6.33331 -45 19s-19 27.6667 -19 45s6.33337 32.3333 19 45s27.6666 19 45 19zM1376 832c17.3334 0 32.3334 -6.33331 45 -19s19 -27.6667 19 -45
s-6.33337 -32.3333 -19 -45s-27.6666 -19 -45 -19s-32.3334 6.33331 -45 19s-19 27.6667 -19 45s6.33337 32.3333 19 45s27.6666 19 45 19zM1568 704c-17.3334 0 -32.3334 6.33331 -45 19s-19 27.6667 -19 45s6.33337 32.3333 19 45s27.6666 19 45 19
s32.3334 -6.33331 45 -19s19 -27.6667 19 -45s-6.33337 -32.3333 -19 -45s-27.6666 -19 -45 -19zM1925 1766c60.6666 -216.667 91 -437.333 91 -662c0 -224.667 -30.3334 -445 -91 -661c-4.66663 -17.3333 -14.1666 -31.5 -28.5 -42.5s-30.5 -16.5 -48.5 -16.5h-888v-64
c0 -62 -21.8333 -114.833 -65.5 -158.5s-96.5 -65.5 -158.5 -65.5c-50.6667 0 -95.8334 14.8333 -135.5 44.5c-39.6667 29.6667 -66.1667 68.1667 -79.5 115.5h215c17.3333 0 32.3333 6.33334 45 19s19 27.6667 19 45v224h993c46 176 69 362.667 69 560
c0 197.333 -23 384 -69 560h-833v-992h-160v1072c0 22 7.66669 40.8334 23 56.5s34 23.5 56 23.5h969c18 0 34.1666 -5.5 48.5 -16.5s23.8334 -24.8334 28.5 -41.5zM671 464c0 -22 -7.83331 -40.8333 -23.5 -56.5s-34.5 -23.5 -56.5 -23.5h-320
c-17.3333 0 -33.1667 5.16666 -47.5 15.5c-14.3333 10.3333 -24.1667 24.1667 -29.5 41.5c-65.3333 217.333 -98 438.333 -98 663c0 224.667 32.6667 445.667 98 663c5.33333 17.3334 15.1667 31.1667 29.5 41.5c14.3333 10.3334 30.1667 15.5 47.5 15.5h320
c22 0 40.8333 -7.83337 56.5 -23.5s23.5 -34.5 23.5 -56.5v-62v-62v-60l0.5 -56l0.5 -50v-43v-33v-22v-7c0 -17.3334 -5.16669 -33.1667 -15.5 -47.5c-10.3333 -14.3334 -23.8333 -23.8334 -40.5 -28.5l-72 -23v-292l72 -23c16.6667 -5.33331 30.1667 -15 40.5 -29
s15.5 -29.6667 15.5 -47v-7v-21.5v-32.5v-42.5l-0.5 -50l-0.5 -56.5v-60v-62.5v-62.5zM440 824c-16.6667 5.33331 -30.1667 15 -40.5 29s-15.5 29.6667 -15.5 47v401c0 21.3334 5.16666 39.1667 15.5 53.5c10.3333 14.3334 23.8333 24.1667 40.5 29.5l73 23
c-0.666687 40 -1.00003 125.667 -1 257h-187c-50 -176 -75 -362.667 -75 -560c0 -197.333 25 -384 75 -560h187c0 131.333 0.333313 216.667 1 256z" />
    <glyph unicode="&#x1f4e5;" 
d="M1718 1440l202 -590v-658h-1760v658l202 590h169l-197 -576h545l9 -70c1.33331 -8.66669 4 -18 8 -28s11 -23 21 -39s25.6667 -29.1667 47 -39.5s46.6666 -15.5 76 -15.5s54.8334 5.33331 76.5 16s37.5 24.3334 47.5 41c10 16.6667 16.8334 29.6667 20.5 39
s6.16663 17.6666 7.5 25v1l9 70h545l-197 576h169zM320 352h1440v352h-428c-21.3334 -53.3333 -56 -98.6666 -104 -136c-48 -37.3333 -110.667 -56 -188 -56c-77.3333 0 -140 18.6667 -188 56s-82.6667 82.6666 -104 136h-428v-352zM1443 1434l-403 -404l-403 404l113 113
l210 -210v519h160v-519l210 210z" />
    <glyph unicode="&#x1f4e4;" 
d="M1686 1440l202 -590v-658h-1760v658l202 590h169l-197 -576h545l9 -70c1.33331 -8.66669 4 -18 8 -28s11 -23 21 -39s25.6667 -29.1667 47 -39.5s46.6666 -15.5 76 -15.5s54.8334 5.33331 76.5 16s37.5 24.3334 47.5 41c10 16.6667 16.8334 29.6667 20.5 39
s6.16663 17.6666 7.5 25v1l9 70h545l-197 576h169zM288 352h1440v352h-428c-21.3334 -53.3333 -56 -98.6666 -104 -136c-48 -37.3333 -110.667 -56 -188 -56c-77.3333 0 -140 18.6667 -188 56s-82.6667 82.6666 -104 136h-428v-352zM928 1543l-210 -210l-113 113l403 404
l403 -404l-113 -113l-210 210v-519h-160v519z" />
    <glyph unicode="&#xe400;" 
d="M193 518l-10 -134h-148l10 147c8.66667 95.3333 47.8333 169.167 117.5 221.5c69.6667 52.3333 164.167 78.5 283.5 78.5c28 0 52.6667 -1.33331 74 -4c-30.6667 -44.6667 -52 -96 -64 -154c-0.666656 0 -2.16666 0.166687 -4.5 0.5s-4.16669 0.5 -5.5 0.5
c-43.3333 0 -81.3333 -4.33331 -114 -13s-57.3333 -18.8334 -74 -30.5c-16.6667 -11.6667 -30.1667 -25.6667 -40.5 -42s-16.8333 -29.5 -19.5 -39.5s-4.33334 -20.3333 -5 -31zM2003 532l11 -148h-149l-10 135c-0.666626 10.6667 -2.33325 21 -5 31
c-2.66663 10 -9.16663 23 -19.5 39s-23.8334 29.8333 -40.5 41.5s-41.3333 21.8334 -74 30.5c-32.6666 8.66669 -70.6666 13 -114 13c-0.666626 0 -2.16663 -0.166687 -4.5 -0.5s-4.16675 -0.5 -5.5 -0.5c-10.6666 55.3333 -31.6666 106.667 -63 154
c20.6666 2.66669 45 4 73 4c118.667 0 213 -26 283 -78s109.333 -125.667 118 -221zM713 600l-18 -216h-149l18 227c10 100.667 55 178.5 135 233.5s188.333 82.5 325 82.5c136.667 0 245 -27.5 325 -82.5s125 -132.5 135 -232.5l18 -228h-149l-18 217
c-5.33337 55.3333 -34.6667 97.3333 -88 126c-53.3334 28.6667 -127.667 43 -223 43c-95.3333 0 -169.667 -14.3333 -223 -43c-53.3333 -28.6667 -82.6666 -71 -88 -127zM416 896c-73.3333 0 -134.333 27.8333 -183 83.5c-48.6667 55.6666 -73 125.167 -73 208.5
c0 72.6666 24.1667 132.833 72.5 180.5c48.3333 47.6666 109.5 71.5 183.5 71.5s135.167 -23.8334 183.5 -71.5s72.5 -107.833 72.5 -180.5c0 -83.3334 -24.3333 -152.833 -73 -208.5c-48.6667 -55.6667 -109.667 -83.5 -183 -83.5zM416 1286c-28 0 -51.8333 -8 -71.5 -24
s-29.5 -40.3334 -29.5 -73c0 -40 9.5 -73.1666 28.5 -99.5s43.1667 -39.5 72.5 -39.5s53.5 13.1666 72.5 39.5s28.5 59.5 28.5 99.5c0 32.6666 -9.83334 57 -29.5 73s-43.5 24 -71.5 24zM1600 896c-73.3334 0 -134.333 27.8333 -183 83.5
c-48.6666 55.6666 -73 125.167 -73 208.5c0 72.6666 24.1666 132.833 72.5 180.5c48.3334 47.6666 109.5 71.5 183.5 71.5c72.6666 0 133.5 -24.1666 182.5 -72.5s73.5 -108.167 73.5 -179.5c0 -83.3334 -24.3334 -152.833 -73 -208.5
c-48.6666 -55.6667 -109.667 -83.5 -183 -83.5zM1599 1286c-28 0 -51.8334 -8 -71.5 -24s-29.5 -40.3334 -29.5 -73c0 -40 9.5 -73.1666 28.5 -99.5s43.1666 -39.5 72.5 -39.5s53.5 13.1666 72.5 39.5s28.5 59.5 28.5 99.5c0 34.6666 -9.66663 59.5 -29 74.5
s-43.3334 22.5 -72 22.5zM1008 992c-77.3333 0 -142 29.5 -194 88.5s-78 132.5 -78 220.5c0 75.3334 26.1667 138.667 78.5 190c52.3333 51.3334 116.833 77 193.5 77c76.6666 0 141.167 -25.6666 193.5 -77s78.5 -114.667 78.5 -190c0 -88 -26 -161.5 -78 -220.5
s-116.667 -88.5 -194 -88.5zM1008 1414c-33.3333 0 -61.3333 -10.6666 -84 -32s-34 -48 -34 -80c0 -44.6666 11.1667 -81.8333 33.5 -111.5c22.3333 -29.6666 50.5 -44.5 84.5 -44.5s62.1666 14.8334 84.5 44.5s33.5 66.8333 33.5 111.5c0 32 -11.3334 58.6666 -34 80
s-50.6666 32 -84 32z" />
    <glyph unicode="&#xe407;" 
d="M1024 864c-127.333 0 -233.833 51.3333 -319.5 154c-85.6667 102.667 -128.5 230.667 -128.5 384c0 80.6666 20.3333 156 61 226s95.5 125.5 164.5 166.5s143.167 61.5 222.5 61.5c79.3334 0 153.5 -20.5 222.5 -61.5s123.833 -96.5 164.5 -166.5s61 -145.333 61 -226
c0 -153.333 -42.8334 -281.333 -128.5 -384c-85.6666 -102.667 -192.167 -154 -319.5 -154zM1024 1699c-77.3333 0 -145.167 -29.6666 -203.5 -89c-58.3333 -59.3334 -87.5 -128.333 -87.5 -207c0 -108.667 27.6667 -199.5 83 -272.5s124.667 -109.5 208 -109.5
s152.667 36.5 208 109.5c55.3334 73 83 163.833 83 272.5c0 78.6666 -29.1666 147.667 -87.5 207s-126.167 89 -203.5 89zM1170 470l-81 -75l85 -331h-300l85 331l-81 75l146 231zM611 679l65 187c42 -36 88 -65 138 -87l-83 -239l-44 -9
c-139.333 -27.3333 -228.333 -45.6667 -267 -55c-45.3333 -12 -71.3333 -44.6667 -78 -98c-2.66666 -22.6667 -10.3333 -127.333 -23 -314h-159c8.66667 157.333 16.6667 268.333 24 333c7.33333 60.6667 28.1667 111.5 62.5 152.5s79.5 68.1667 135.5 81.5
c54 13.3333 130.333 29.3333 229 48zM1864 397c4 -35.3333 12 -146.333 24 -333h-160c-10 172.667 -17.3334 277.333 -22 314c-6.66663 53.3333 -32.6666 86 -78 98c-38.6666 9.33334 -127.667 27.6667 -267 55l-44 9l-84 239c50 22 96.3334 51 139 87l65 -187
c98.6666 -18.6667 175 -34.6667 229 -48c56 -13.3333 101.167 -40.5 135.5 -81.5s55.1667 -91.8333 62.5 -152.5z" />
    <glyph unicode="&#x1f468;" 
d="M736 880c0 30.6667 11 57 33 79s48.3333 33 79 33s57 -11 79 -33s33 -48.3333 33 -79s-11 -57 -33 -79s-48.3333 -33 -79 -33s-57 11 -79 33s-33 48.3333 -33 79zM1152 880c0 30.6667 11 57 33 79s48.3334 33 79 33s57 -11 79 -33s33 -48.3333 33 -79s-11 -57 -33 -79
s-48.3334 -33 -79 -33s-57 11 -79 33s-33 48.3333 -33 79zM1790 1146c46 -58 68 -125.333 66 -202c-3.33337 -93.3333 -37.6667 -170 -103 -230c-22.6666 -20 -44.3333 -35.3333 -65 -46c-48.6666 -166 -131.833 -302.833 -249.5 -410.5
c-117.667 -107.667 -245.167 -161.5 -382.5 -161.5c-137.333 0 -264.833 53.8333 -382.5 161.5c-117.667 107.667 -200.833 244.5 -249.5 410.5c-22 11.3333 -43.6667 26.6666 -65 46c-65.3333 60 -99.6667 136.667 -103 230c-2 78.6667 21 147.333 69 206
c-57.3333 23.3334 -121.333 58.6667 -192 106l97 128c2.66667 -2.66663 12 -9.16663 28 -19.5s40.5 -24.1667 73.5 -41.5c33 -17.3334 69.3333 -32.1667 109 -44.5c39.6667 -12.3334 84 -21.6667 133 -28c49 -6.33337 97.5 -3.83337 145.5 7.5
c48.6667 10.6666 98.3334 27.6666 149 51c50.6667 23.3334 93.5 46 128.5 68s69.3334 46.1666 103 72.5s55.8333 44.5 66.5 54.5l25 24l55 55l283 -264c-5.33337 -56 -16 -112.333 -32 -169c0 -1.33337 -0.5 -3.83337 -1.5 -7.5s-1.83337 -6.5 -2.5 -8.5l-246 229
c-158.667 -135.333 -323.333 -222.333 -494 -261c-42 -9.33337 -86.3333 -14 -133 -14c-10.6667 0 -26.6667 0.666626 -48 2c-28.6667 2 -43.3334 3 -44 3c-33.3333 -4 -60.8333 -19.6666 -82.5 -47c-21.6667 -27.3333 -31.8333 -59.6666 -30.5 -97
c1.33334 -46.6667 18.3333 -86 51 -118c26 -22.6667 55.6667 -34 89 -34h7c27.3333 -150 88.8333 -277.333 184.5 -382c95.6667 -104.667 198.833 -157 309.5 -157c73.3334 0 144.667 23.8333 214 71.5c69.3334 47.6667 128.833 112.833 178.5 195.5s83.5 173.333 101.5 272
h8c32.6666 0 62 11.3333 88 34c32.6666 32 49.6666 71.3333 51 118c0.666626 31.3333 -6.83337 59.5 -22.5 84.5s-36.5 42.1666 -62.5 51.5c22 70.6666 37.6666 146.333 47 227c18.6666 156 -9.66675 270 -85 342c-23.3334 22 -49.1667 39 -77.5 51
c-28.3334 12 -54.1667 19 -77.5 21c-23.3334 2 -46 2 -68 0s-38.3334 -4.5 -49 -7.5s-17.6666 -5.16663 -21 -6.5l-36 -14l-34 19l-3 2c-106 60 -211 93.3334 -315 100c-57.3333 3.33337 -110 -3.33325 -158 -20c-43.3333 -14.6666 -83.5 -36.8333 -120.5 -66.5
c-37 -29.6666 -66.5 -59 -88.5 -88s-41.6667 -60.8334 -59 -95.5s-29.1667 -60.8333 -35.5 -78.5c-6.33334 -17.6666 -11.1667 -33.1666 -14.5 -46.5c-50 22.6666 -97.3333 50.3333 -142 83c9.33334 26.6666 19.8333 53.1666 31.5 79.5s29.1667 58.5 52.5 96.5
s49 72.6666 77 104s63.6667 62 107 92c43.3333 30 90 53.6666 140 71c162.667 56 354.333 30 575 -78c23.3334 6.66663 49.5 11.1666 78.5 13.5s63.3334 1.83337 103 -1.5s81.3333 -14.6667 125 -34c43.6666 -19.3334 83.5 -46.3334 119.5 -81
c40 -38 71.3334 -83.6666 94 -137s36.5 -103.333 41.5 -150s5.5 -96.1666 1.5 -148.5s-8.66663 -91.1667 -14 -116.5c-5.33337 -25.3334 -11 -49 -17 -71z" />
    <glyph unicode="&#xe450;" 
d="M1218 0h-391l-10 68c-3.33331 17.3333 -10.6666 70.8333 -22 160.5c-11.3333 89.6667 -24 231.667 -38 426c-14 194.333 -21 381.5 -21 561.5h159c0 -346 23.3333 -698 70 -1056h116c48 368 72 720 72 1056h159c0 -180 -7.33337 -367.333 -22 -562
s-27.6666 -336.5 -39 -425.5s-18.6667 -142.5 -22 -160.5zM1568 736h-160v560c0 22 -7.83337 40.8334 -23.5 56.5s-34.5 23.5 -56.5 23.5h-608c-22 0 -40.8333 -7.83337 -56.5 -23.5s-23.5 -34.5 -23.5 -56.5v-560h-160v560c0 66 23.5 122.5 70.5 169.5
s103.5 70.5 169.5 70.5h608c66 0 122.5 -23.5 169.5 -70.5s70.5 -103.5 70.5 -169.5v-560zM1024 1600c-61.3333 0 -114 21.8334 -158 65.5s-66 96.5 -66 158.5c0 61.3334 22 114 66 158s96.6667 66 158 66c61.3334 0 114 -22 158 -66s66 -96.6666 66 -158
c0 -62 -22 -114.833 -66 -158.5s-96.6666 -65.5 -158 -65.5zM1024 1923c-27.3333 0 -50.6666 -9.66663 -70 -29c-19.3333 -19.3334 -29 -42.6667 -29 -70c0 -27.3334 9.66669 -50.6667 29 -70c19.3333 -19.3334 42.6666 -29 70 -29s50.6667 9.66663 70 29
c19.3334 19.3334 29 42.6667 29 70c0 27.3334 -9.66663 50.6667 -29 70c-19.3334 19.3334 -42.6667 29 -70 29z" />
    <glyph unicode="&#x1f469;" 
d="M992 880c0 -30.6667 -11 -57 -33 -79s-48.3333 -33 -79 -33s-57 11 -79 33s-33 48.3333 -33 79s11 57 33 79s48.3333 33 79 33s57 -11 79 -33s33 -48.3333 33 -79zM1408 880c0 -30.6667 -11 -57 -33 -79s-48.3334 -33 -79 -33s-57 11 -79 33s-33 48.3333 -33 79
s11 57 33 79s48.3334 33 79 33s57 -11 79 -33s33 -48.3333 33 -79zM1861 1761c72.6666 -82.6666 127.167 -182.333 163.5 -299c36.3333 -116.667 54 -240.167 53 -370.5c-1 -130.333 -15.1667 -263.333 -42.5 -399c-27.3334 -135.667 -67 -270.5 -119 -404.5h-167
c62.6666 146 108.5 290.333 137.5 433s41 272.167 36 388.5c-5 116.333 -22.6666 221.333 -53 315s-72.1667 170.5 -125.5 230.5c-29.3334 33.3334 -62 58.6667 -98 76c-36 17.3334 -67.5 27 -94.5 29s-55.1666 0.166626 -84.5 -5.5s-48.8334 -10.5 -58.5 -14.5
s-18.5 -8 -26.5 -12l-39 -21l-38 22c-5.33337 3.33337 -11.6667 6.66675 -19 10c-7.33337 3.33337 -22.1667 9.66675 -44.5 19c-22.3334 9.33337 -44.8334 17.6667 -67.5 25c-22.6666 7.33337 -51 14.8334 -85 22.5s-67.6667 13.1666 -101 16.5s-70.5 4.33337 -111.5 3
s-80.8333 -6 -119.5 -14c-93.3333 -18.6666 -177.5 -56 -252.5 -112s-137.167 -127 -186.5 -213c-76 -132.667 -118.167 -290.833 -126.5 -474.5c-8.33333 -183.667 17.5 -371.5 77.5 -563.5h308c-38 66.6667 -67 135.667 -87 207c36.6667 53.3333 77.6667 106 123 158
c15.3333 -102.667 46.8333 -197.167 94.5 -283.5c47.6667 -86.3333 105.167 -154.5 172.5 -204.5s136.667 -75 208 -75c72 0 142 25.6667 210 77s125.833 121.167 173.5 209.5s78.8333 184.5 93.5 288.5c6 42.6667 8.33337 87 7 133c-126.667 114 -237.667 254.667 -333 422
c-154 -40.6666 -295.167 -108.167 -423.5 -202.5s-259.5 -226.167 -393.5 -395.5l-118 109c50 63.3333 97.8333 120 143.5 170s99.1666 102 160.5 156c61.3333 54 123.5 101.167 186.5 141.5s134.833 77.5 215.5 111.5c80.6666 34 165 60.6666 253 80l61 13l27 -55l1 -3
c70.6666 -132.667 155.333 -251.333 254 -356c38.6666 -41.3334 77.6666 -77.6667 117 -109c1.33337 -13.3334 2.66675 -34.0001 4 -62c0 -5.33331 0.166626 -13 0.5 -23s0.5 -17.3333 0.5 -22c-1.33337 -52 -4.33337 -94.6667 -9 -128
c-18 -130.667 -57.8334 -250.333 -119.5 -359c-61.6666 -108.667 -137.667 -194.167 -228 -256.5c-90.3334 -62.3333 -184.833 -93.5 -283.5 -93.5c-70.6667 0 -139.833 16.8333 -207.5 50.5c-67.6667 33.6667 -130.167 80.8333 -187.5 141.5h-536l-18 54
c-77.3333 224.667 -112.167 445 -104.5 661s56.8333 403.333 147.5 562c61.3333 106.667 138 194 230 262s196.333 114 313 138c53.3333 10.6666 108 16.5 164 17.5s105.833 -1.5 149.5 -7.5c43.6666 -6 87.1666 -14.6666 130.5 -26s77.8334 -21.8334 103.5 -31.5
s49.8333 -19.8333 72.5 -30.5c34 13.3334 70.5 22.5 109.5 27.5s81.8334 5.33337 128.5 1s94.5 -19.6667 143.5 -46c49 -26.3334 93.8334 -62.5 134.5 -108.5z" />
    <glyph unicode="&#xe451;" 
d="M1236 1234l257 -754h-218l-51 -480h-400l-51 480h-218l256 755l108 -180l-141 -415h139l51 -480h112l51 480h139l-142 415zM523 790l-151 53l181 518c17.3333 49.3334 49.6666 90.8334 97 124.5c47.3333 33.6666 97 50.5 149 50.5h450c52 0 101.667 -16.8334 149 -50.5
s79.6667 -74.8333 97 -123.5l180 -515l-151 -53l-180 515c-6 17.3334 -18.6666 32.8334 -38 46.5s-38.3334 20.5 -57 20.5h-450c-18.6667 0 -37.6667 -6.83337 -57 -20.5s-32 -29.1666 -38 -46.5zM1024 1600c-61.3333 0 -114 21.8334 -158 65.5s-66 96.5 -66 158.5
c0 61.3334 22 114 66 158s96.6667 66 158 66c61.3334 0 114 -22 158 -66s66 -96.6666 66 -158c0 -62 -22 -114.833 -66 -158.5s-96.6666 -65.5 -158 -65.5zM1024 1923c-27.3333 0 -50.6666 -9.66663 -70 -29c-19.3333 -19.3334 -29 -42.6667 -29 -70
c0 -27.3334 9.66669 -50.6667 29 -70c19.3333 -19.3334 42.6666 -29 70 -29s50.6667 9.66663 70 29c19.3334 19.3334 29 42.6667 29 70c0 27.3334 -9.66663 50.6667 -29 70c-19.3334 19.3334 -42.6667 29 -70 29z" />
    <glyph unicode="&#x1f449;" 
d="M889 224l-12 1c-121.333 0 -234.333 25.1667 -339 75.5c-104.667 50.3333 -192 121.833 -262 214.5c-72 94 -117.833 199.667 -137.5 317c-19.6667 117.333 -12.1667 239 22.5 365c19.3333 70 48.6667 139.833 88 209.5s80.5 129.833 123.5 180.5
c43 50.6666 87.8333 98 134.5 142c46.6667 44 86 78.1666 118 102.5s58.3333 42.1667 79 53.5c38.6667 22 81 33 127 33c61.3333 0 113.167 -18.8334 155.5 -56.5s65.1667 -85.8333 68.5 -144.5c0.666626 -20.6666 -2 -42.5 -8 -65.5s-12 -41 -18 -54
s-15 -31.1666 -27 -54.5c-11.3333 -21.3334 -19.6666 -37.6667 -25 -49c-5.33331 -11.3334 -10.3333 -25.6667 -15 -43c-4.66669 -17.3334 -6.33337 -33.6667 -5 -49c2 -20 12.8333 -34.6666 32.5 -44s42.1667 -14 67.5 -14h719c66 0 122.5 -23.5 169.5 -70.5
s70.5 -103.5 70.5 -169.5s-23.5 -122.5 -70.5 -169.5s-103.5 -70.5 -169.5 -70.5h-317l1 -3c0 -2 0.166626 -4.83331 0.5 -8.5s0.5 -6.5 0.5 -8.5c7.33337 -50.6667 4.66675 -98.3334 -8 -143c-13.3334 -43.3333 -42.3334 -92.3333 -87 -147c-16 -20 -28 -35.6667 -36 -47
c-3.33337 -4.66666 -9 -19.3333 -17 -44c-6 -19.3333 -11.5 -35.5 -16.5 -48.5s-13.3334 -29.3333 -25 -49s-27 -37.6667 -46 -54s-41.8334 -30.8333 -68.5 -43.5c-64 -29.3333 -153.333 -44 -268 -44zM831 1758c-18 0 -34.3333 -4 -49 -12
c-15.3333 -8.66663 -36.3333 -23.1666 -63 -43.5s-60.3334 -49.5 -101 -87.5c-40.6667 -38 -79.6667 -79 -117 -123c-37.3333 -44 -73.3333 -96.1666 -108 -156.5s-60.3333 -120.833 -77 -181.5c-28 -101.333 -34.5 -198.667 -19.5 -292s50.5 -177 106.5 -251
c55.3333 -72 124.167 -127.833 206.5 -167.5s172.167 -59.5 269.5 -59.5h10c90.6667 0 157.333 9.66666 200 29c15.3334 7.33334 27.6667 16.1667 37 26.5c9.33337 10.3333 15.8334 20 19.5 29s8.5 22.8333 14.5 41.5c14 41.3333 26.6666 70.3333 38 87
c11.3334 17.3333 26 36.6666 44 58c32 38.6667 51 69 57 91c6 21.3333 7.33337 47.3333 4 78c-8 60.6667 0.333374 113.333 25 158l23 42h425c22 0 40.8334 7.83337 56.5 23.5s23.5 34.5 23.5 56.5s-7.83337 40.8334 -23.5 56.5s-34.5 23.5 -56.5 23.5h-719
c-71.3333 0 -131 19 -179 57s-74.6667 87.3334 -80 148c-2.66669 29.3334 -0.333374 59.6667 7 91c7.33331 31.3334 14.6666 55.3334 22 72c7.33331 16.6666 18.3333 38.6666 33 66c24 44 35.6667 74 35 90c-0.666687 14.6666 -6.16669 26 -16.5 34
s-19.1666 12.6666 -26.5 14c-7.33331 1.33337 -14.3333 2 -21 2z" />
    <glyph unicode="&#x1f448;" 
d="M891 268c-26.6667 12.6667 -49.5 27.1667 -68.5 43.5s-34.3333 34.3333 -46 54s-20 36 -25 49s-10.5 29.1667 -16.5 48.5c-8 24.6667 -13.6667 39.3333 -17 44c-8 11.3333 -20 27 -36 47c-44.6667 54.6667 -73.6667 103.667 -87 147
c-12.6667 44.6667 -15.3334 92.3334 -8 143c0 2 0.166687 4.83331 0.5 8.5s0.5 6.5 0.5 8.5l1 3h-317c-66 0 -122.5 23.5 -169.5 70.5s-70.5 103.5 -70.5 169.5s23.5 122.5 70.5 169.5s103.5 70.5 169.5 70.5h719c25.3333 0 47.8333 4.66663 67.5 14
c19.6666 9.33337 30.5 24 32.5 44c1.33337 15.3334 -0.333252 31.6667 -5 49c-4.66663 17.3334 -9.66663 31.6667 -15 43c-5.33337 11.3334 -13.6667 27.6667 -25 49c-12 23.3334 -21 41.5 -27 54.5s-12 31 -18 54s-8.66669 44.8334 -8 65.5
c3.33331 58.6666 26.1666 106.833 68.5 144.5c42.3334 37.6666 94.1667 56.5 155.5 56.5c46 0 88.3334 -11 127 -33c20.6666 -11.3334 47 -29.1667 79 -53.5c32 -24.3334 71.3334 -58.5 118 -102.5s91.5 -91.3334 134.5 -142s84.1666 -110.833 123.5 -180.5
c39.3334 -69.6666 68.6667 -139.5 88 -209.5c34.6666 -126 42.1666 -247.667 22.5 -365s-65.5 -223 -137.5 -317c-70 -92.6667 -157.333 -164.167 -262 -214.5c-104.667 -50.3333 -217.667 -75.5 -339 -75.5l-12 -1c-114.667 0 -204 14.6667 -268 44zM1153 1708
c-0.666626 -16 11 -46 35 -90c14.6666 -27.3334 25.6666 -49.3334 33 -66s14.6667 -40.6666 22 -72c7.33337 -31.3334 9.66675 -61.6667 7 -91c-5.33337 -60.6666 -32 -110 -80 -148s-107.667 -57 -179 -57h-719c-22 0 -40.8333 -7.83337 -56.5 -23.5
s-23.5 -34.5 -23.5 -56.5s7.83333 -40.8334 23.5 -56.5s34.5 -23.5 56.5 -23.5h425l23 -42c24.6667 -44.6667 33 -97.3334 25 -158c-3.33331 -30.6667 -2 -56.6667 4 -78c6 -22 25 -52.3333 57 -91c18 -21.3333 32.6667 -40.6666 44 -58
c11.3333 -16.6667 24 -45.6667 38 -87c6 -18.6667 10.8333 -32.5 14.5 -41.5s10.1667 -18.6667 19.5 -29s21.6666 -19.1667 37 -26.5c42.6667 -19.3333 109.333 -29 200 -29h10c97.3334 0 187.167 19.8333 269.5 59.5c82.3334 39.6667 151.167 95.5 206.5 167.5
c56 74 91.5 157.667 106.5 251s8.5 190.667 -19.5 292c-16.6666 60.6666 -42.3333 121.167 -77 181.5c-34.6666 60.3334 -70.6666 112.5 -108 156.5s-76.3334 85 -117 123s-74.3333 67.1666 -101 87.5c-26.6666 20.3334 -47.6666 34.8334 -63 43.5
c-15.3334 8 -31.6667 12 -49 12c-6.66663 0 -13.6666 -0.666626 -21 -2s-16.1667 -6 -26.5 -14c-10.3334 -8 -15.8334 -19.3334 -16.5 -34z" />
    <glyph unicode="&#x1f447;" 
d="M224 1159l1 12c0 121.333 25.1667 234.333 75.5 339c50.3333 104.667 121.833 192 214.5 262c94 72 199.667 117.833 317 137.5s239 12.1666 365 -22.5c70 -19.3334 139.833 -48.6667 209.5 -88c69.6666 -39.3334 129.833 -80.5 180.5 -123.5
c50.6666 -43 98 -87.8334 142 -134.5s78.1666 -86 102.5 -118s42.1667 -58.3334 53.5 -79c22 -39.3334 33 -81.6667 33 -127c0 -61.3334 -18.8334 -113.167 -56.5 -155.5c-37.6666 -42.3333 -85.8333 -65.1666 -144.5 -68.5c-20.6666 -0.666687 -42.5 2 -65.5 8
s-41 12 -54 18s-31.1666 15 -54.5 27c-21.3334 11.3334 -37.6667 19.6667 -49 25c-11.3334 5.33337 -25.6667 10.3334 -43 15c-17.3334 4.66663 -33.6667 6.33325 -49 5c-20 -2 -34.6666 -12.8334 -44 -32.5s-14 -42.1666 -14 -67.5v-719c0 -66 -23.5 -122.5 -70.5 -169.5
s-103.5 -70.5 -169.5 -70.5s-122.5 23.5 -169.5 70.5s-70.5 103.5 -70.5 169.5v317l-3 -1c-2 0 -4.83331 -0.166687 -8.5 -0.5s-6.5 -0.5 -8.5 -0.5c-50.6667 -7.33331 -98.3334 -4.66663 -143 8c-43.3333 13.3333 -92.3333 42.3333 -147 87c-20 16 -35.6667 28 -47 36
c-4.66666 3.33331 -19.3333 9 -44 17c-19.3333 6 -35.5 11.5 -48.5 16.5s-29.3333 13.3333 -49 25s-37.6667 27 -54 46s-30.8333 41.8333 -43.5 68.5c-29.3333 64 -44 153.333 -44 268zM1758 1217c0 18 -4 34.3334 -12 49c-8.66663 15.3334 -23.1666 36.3334 -43.5 63
s-49.5 60.3333 -87.5 101c-38 40.6666 -79 79.6666 -123 117s-96.1666 73.3334 -156.5 108s-120.833 60.3333 -181.5 77c-101.333 28 -198.667 34.5 -292 19.5s-177 -50.5 -251 -106.5c-72 -55.3334 -127.833 -124.167 -167.5 -206.5
c-39.6667 -82.3334 -59.5 -172.167 -59.5 -269.5v-10c0 -90.6666 9.66666 -157.333 29 -200c7.33334 -15.3333 16.1667 -27.6666 26.5 -37c10.3333 -9.33331 20 -15.8333 29 -19.5s22.8333 -8.5 41.5 -14.5c41.3333 -14 70.3333 -26.6667 87 -38
c17.3333 -11.3333 36.6666 -26 58 -44c38.6667 -32 69 -51 91 -57c21.3333 -6 47.3333 -7.33331 78 -4c60.6667 8 113.333 -0.333313 158 -25l42 -23v-425c0 -22 7.83337 -40.8333 23.5 -56.5s34.5 -23.5 56.5 -23.5s40.8334 7.83333 56.5 23.5s23.5 34.5 23.5 56.5v719
c0 71.3334 19 131 57 179s87.3334 74.6666 148 80c29.3334 2.66663 59.6667 0.333252 91 -7c31.3334 -7.33337 55.3334 -14.6667 72 -22c16.6666 -7.33337 38.6666 -18.3334 66 -33c44 -24 74 -35.6666 90 -35c14.6666 0.666626 26 6.16663 34 16.5s12.6666 19.1667 14 26.5
c1.33337 7.33337 2 14.3334 2 21z" />
    <glyph unicode="&#x1f446;" 
d="M1824 889l-1 -12c0 -121.333 -25.1666 -234.333 -75.5 -339c-50.3334 -104.667 -121.833 -192 -214.5 -262c-94 -72 -199.667 -117.833 -317 -137.5c-117.333 -19.6667 -239 -12.1667 -365 22.5c-70 19.3333 -139.833 48.6667 -209.5 88s-129.833 80.5 -180.5 123.5
s-98 87.8333 -142 134.5c-44 46.6667 -78.1667 86 -102.5 118s-42.1667 58.3333 -53.5 79c-22 38.6667 -33 81 -33 127c0 61.3333 18.8333 113.167 56.5 155.5s85.8333 65.1667 144.5 68.5c20.6667 0.666626 42.5 -2 65.5 -8s41 -12 54 -18s31.1667 -15 54.5 -27
c21.3333 -11.3333 37.6666 -19.6666 49 -25c11.3333 -5.33331 25.6666 -10.3333 43 -15c17.3333 -4.66669 33.6666 -6.33337 49 -5c20 2 34.6667 12.8333 44 32.5s14 42.1667 14 67.5v719c0 66 23.5 122.5 70.5 169.5s103.5 70.5 169.5 70.5s122.5 -23.5 169.5 -70.5
s70.5 -103.5 70.5 -169.5v-317l3 1c2 0 4.83337 0.166626 8.5 0.5s6.5 0.5 8.5 0.5c50.6666 7.33337 98.3333 4.66675 143 -8c43.3334 -13.3334 92.3334 -42.3334 147 -87c20 -16 35.6666 -28 47 -36c4.66663 -3.33337 19.3333 -9 44 -17c19.3334 -6 35.5 -11.5 48.5 -16.5
s29.3334 -13.3334 49 -25s37.6666 -27 54 -46s30.8334 -41.8334 43.5 -68.5c29.3334 -64 44 -153.333 44 -268zM290 831c0 -18 4 -34.3333 12 -49c8.66666 -15.3333 23.1667 -36.3333 43.5 -63s49.5 -60.3334 87.5 -101c38 -40.6667 79 -79.6667 123 -117
c44 -37.3333 96.1667 -73.3333 156.5 -108s120.833 -60.3333 181.5 -77c101.333 -28 198.667 -34.5 292 -19.5s177 50.5 251 106.5c72 55.3333 127.833 124.167 167.5 206.5s59.5 172.167 59.5 269.5v10c0 90.6667 -9.66663 157.333 -29 200
c-7.33337 15.3334 -16.1667 27.6667 -26.5 37c-10.3334 9.33337 -20 15.8334 -29 19.5s-22.8334 8.5 -41.5 14.5c-41.3334 14 -70.3334 26.6666 -87 38c-17.3334 11.3334 -36.6667 26 -58 44c-38.6666 32 -69 51 -91 57c-21.3334 6 -47.3334 7.33337 -78 4
c-60.6666 -8 -113.333 0.333374 -158 25l-42 23v425c0 22 -7.83331 40.8334 -23.5 56.5s-34.5 23.5 -56.5 23.5s-40.8333 -7.83337 -56.5 -23.5s-23.5 -34.5 -23.5 -56.5v-719c0 -71.3333 -19 -131 -57 -179s-87.3333 -74.6667 -148 -80
c-29.3333 -2.66669 -59.6666 -0.333374 -91 7c-31.3333 7.33331 -55.3333 14.6666 -72 22c-16.6667 7.33331 -38.6667 18.3333 -66 33c-44 24 -74 35.6667 -90 35c-14.6667 -0.666687 -26 -6.16669 -34 -16.5s-12.6667 -19.1666 -14 -26.5
c-1.33334 -7.33331 -2 -14.3333 -2 -21z" />
    <glyph unicode="&#x1f4b3;" 
d="M1648 1664c74.6666 0 138.667 -26.6666 192 -80s80 -117.333 80 -192v-704c0 -74.6667 -26.6666 -138.667 -80 -192c-53.3334 -53.3333 -117.333 -80 -192 -80h-1248c-74.6667 0 -138.667 26.6667 -192 80c-53.3333 53.3333 -80 117.333 -80 192v704
c0 74.6666 26.6667 138.667 80 192c53.3333 53.3334 117.333 80 192 80h1248zM400 1504c-30.6667 0 -57 -11 -79 -33s-33 -48.3334 -33 -79v-112h1472v112c0 30.6666 -11 57 -33 79s-48.3334 33 -79 33h-1248zM1648 576c30.6666 0 57 11 79 33s33 48.3333 33 79v432h-1472
v-432c0 -30.6667 11 -57 33 -79s48.3333 -33 79 -33h1248zM480 768v160h288v-160h-288z" />
    <glyph unicode="&#x1f4ca;" 
d="M64 96v1248h512v-1248h-512zM224 1184v-928h192v928h-192zM1472 1120h512v-1024h-512v1024zM1824 256v704h-192v-704h192zM768 96v1696h512v-1696h-512zM928 1632v-1376h192v1376h-192z" />
    <glyph unicode="&#xe570;" 
d="M1136 1664c102 0 199.333 -19.8334 292 -59.5s172.667 -93.1666 240 -160.5s120.833 -147.333 160.5 -240s59.5 -190 59.5 -292c0 -102 -19.8334 -199.333 -59.5 -292s-93.1666 -172.667 -160.5 -240c-67.3334 -67.3333 -147.333 -120.833 -240 -160.5
c-92.6666 -39.6667 -190 -59.5 -292 -59.5s-199.333 19.8333 -292 59.5c-92.6667 39.6667 -172.667 93.1667 -240 160.5s-120.833 147.333 -160.5 240c-39.6667 92.6667 -59.5 190 -59.5 292v16h160v-16c0 -80 15.6667 -156.667 47 -230s73.3333 -136.333 126 -189
c52.6667 -52.6667 115.667 -94.6667 189 -126s150 -47 230 -47s156.667 15.6667 230 47s136.333 73.3333 189 126c52.6666 52.6667 94.6666 115.667 126 189s47 150 47 230s-15.6666 156.667 -47 230s-73.3334 136.333 -126 189s-115.667 94.6666 -189 126s-150 47 -230 47
h-16v160h16zM912 1888c18.6667 0 45.3334 -1.33337 80 -4v-828h-828c-2.66667 34.6666 -4 61.3333 -4 80c0 18.6666 1.33333 45.3333 4 80c12.6667 115.333 49.6667 221.667 111 319c61.3333 97.3334 140.667 176.667 238 238c97.3333 61.3334 203.667 98.3334 319 111
c34.6667 2.66663 61.3334 4 80 4zM326 1216h506v506c-131.333 -18 -244 -74 -338 -168s-150 -206.667 -168 -338z" />
    <glyph unicode="&#xe671;" 
d="M1026 1792c138.667 0 267 -34.3334 385 -103s211.333 -162 280 -280s103 -246.333 103 -385c0 -102.667 -19.3334 -200.667 -58 -294s-94.3333 -176.333 -167 -249c-72.6666 -72.6667 -155.667 -128.333 -249 -167c-93.3334 -38.6667 -191.333 -58 -294 -58
c-138.667 0 -267 34.3333 -385 103s-211.333 162 -280 280s-103 246.333 -103 385c0 139.333 34.3333 267.833 103 385.5s161.833 210.833 279.5 279.5c117.667 68.6666 246.167 103 385.5 103zM1460 590c58 58 102.5 124.333 133.5 199s46.5 153 46.5 235
c0 83.3334 -16.3334 162.833 -49 238.5s-76.3333 141 -131 196c-54.6666 55 -119.833 98.6666 -195.5 131c-75.6666 32.3334 -155.167 48.5 -238.5 48.5c-83.3333 0 -162.833 -16.1666 -238.5 -48.5s-141 -76 -196 -131s-98.6667 -120.333 -131 -196
s-48.5 -155.167 -48.5 -238.5c0 -83.3333 16.1667 -162.833 48.5 -238.5s76 -141 131 -196s120.333 -98.6667 196 -131s155.167 -48.5 238.5 -48.5c82 0 160.333 15.5 235 46.5s141 75.5 199 133.5zM912 1137l378 209l57 -56l-210 -379l-378 -209l-57 56zM1026 950
c20.6666 0 38.1666 7.16669 52.5 21.5s21.5 31.8333 21.5 52.5c0 20.6666 -7.16663 38.1666 -21.5 52.5s-31.8334 21.5 -52.5 21.5c-20.6667 0 -38.1667 -7.16663 -52.5 -21.5s-21.5 -31.8334 -21.5 -52.5c0 -20.6667 7.16669 -38.1667 21.5 -52.5s31.8333 -21.5 52.5 -21.5
z" />
    <glyph unicode="&#xe6d0;" 
d="M1008 1536c57.3334 0 106.333 -20.3334 147 -61s61 -89.6666 61 -147s-20.3334 -106.333 -61 -147s-89.6666 -61 -147 -61c-57.3333 0 -106.333 20.3334 -147 61s-61 89.6666 -61 147s20.3333 106.333 61 147s89.6667 61 147 61zM1008 1920
c88.6666 0 173.5 -17.3334 254.5 -52s150.833 -81.5 209.5 -140.5s105.333 -129 140 -210c34.6666 -81 52 -166.167 52 -255.5c0 -69.3334 -8 -136.667 -24 -202c-16 -65.3333 -40 -128.667 -72 -190c-32 -61.3333 -63 -114.833 -93 -160.5s-68 -98.5 -114 -158.5l-290 -374
l-63 -81l-63 81l-290 374c-46 60 -84 112.833 -114 158.5s-61 99.1667 -93 160.5s-56 124.667 -72 190s-24 132.667 -24 202c0 89.3334 17.3333 174.5 52 255.5s81.3333 151 140 210s128.5 105.833 209.5 140.5s165.833 52 254.5 52zM1236 645
c94.6666 123.333 163.833 231.5 207.5 324.5c43.6666 93 65.5 191.167 65.5 294.5c0 90.6666 -22.3334 174.667 -67 252s-105.5 138.5 -182.5 183.5s-160.833 67.5 -251.5 67.5c-90.6667 0 -174.5 -22.5 -251.5 -67.5s-137.833 -106.167 -182.5 -183.5
s-67 -161.333 -67 -252c0 -103.333 21.8333 -201.5 65.5 -294.5s112.833 -201.167 207.5 -324.5l228 -296z" />
    <glyph unicode="&#xe803;" 
d="M288 1378l316 31l420 352v-1470l-422 355l-314 48v684zM864 1418l-195 -164l-221 -21v-402l223 -34l193 -163v784zM1299 1519c92 -152.667 138 -319.333 138 -500c0 -176.667 -44.3334 -340 -133 -490l-130 94c68.6666 123.333 103 255.333 103 396
c0 144.667 -36.3334 280.333 -109 407zM1535 1687c127.333 -204 191 -426.667 191 -668c0 -236 -61.6666 -455.333 -185 -658l-131 93c104 174.667 156 363 156 565c0 208 -54 399.667 -162 575z" />
    <glyph unicode="&#x1f4f7;" 
d="M1645 1504c67.3334 0 124.667 -23.8334 172 -71.5c47.3334 -47.6666 71 -105.5 71 -173.5v-658c0 -68 -23.8334 -126.5 -71.5 -175.5s-104.833 -73.5 -171.5 -73.5h-249c49.3334 27.3333 97.3334 80.6667 144 160h105c22.6666 0 42.1666 8.83331 58.5 26.5
s24.5 38.5 24.5 62.5v658c0 24 -8 44.1666 -24 60.5s-35.6666 24.5 -59 24.5h-238l-111 192h-538l-113 -192h-242c-23.3333 0 -43 -8.16663 -59 -24.5s-24 -36.5 -24 -60.5v-658c0 -24 8.16666 -44.8333 24.5 -62.5s35.8333 -26.5 58.5 -26.5h105
c46.6667 -79.3333 94.6667 -132.667 144 -160h-249c-66.6667 0 -123.833 24.5 -171.5 73.5c-47.6667 49 -71.5 107.5 -71.5 175.5v658c0 68 23.6667 125.833 71 173.5c47.3333 47.6666 104.667 71.5 172 71.5h151l113 192h720l112 -192h146zM1024 352
c-86.6667 0 -166.833 21.5 -240.5 64.5c-73.6667 43 -132 101.333 -175 175s-64.5 153.833 -64.5 240.5c0 86.6667 21.5 166.833 64.5 240.5s101.333 132 175 175s153.833 64.5 240.5 64.5s166.833 -21.5 240.5 -64.5c73.6666 -43 132 -101.333 175 -175
c43 -73.6667 64.5 -153.833 64.5 -240.5c0 -86.6667 -21.5 -166.833 -64.5 -240.5c-43 -73.6667 -101.333 -132 -175 -175c-73.6666 -43 -153.833 -64.5 -240.5 -64.5zM1024 1158c-90 0 -166.833 -31.8334 -230.5 -95.5c-63.6667 -63.6667 -95.5 -140.5 -95.5 -230.5
s31.8333 -166.833 95.5 -230.5s140.5 -95.5 230.5 -95.5c90 0 166.833 31.8333 230.5 95.5s95.5 140.5 95.5 230.5s-31.8334 166.833 -95.5 230.5c-63.6666 63.6666 -140.5 95.5 -230.5 95.5z" />
    <glyph unicode="&#x1f39e;" 
d="M1216 608v160h128v-160h-128zM1472 608v160h128v-160h-128zM1344 1472v-160h-128v160h128zM1600 1472v-160h-128v160h128zM1728 608v864h160v-864h-160zM1077 1760h811v-160h-960v89c0 19.3334 -7 36 -21 50s-30.6667 21 -50 21h-498c-19.3333 0 -36 -7 -50 -21
s-21 -30.6666 -21 -50v-1298c0 -19.3333 7 -36 21 -50s30.6667 -21 50 -21h498c19.3333 0 36 7 50 21s21 30.6667 21 50v1081h160v-992h800v-160h-811c-15.3334 -47.3333 -43.1667 -85.8333 -83.5 -115.5c-40.3333 -29.6667 -85.8333 -44.5 -136.5 -44.5h-498
c-64 0 -118.5 22.5 -163.5 67.5s-67.5 99.5 -67.5 163.5v1298c0 64 22.5 118.5 67.5 163.5s99.5 67.5 163.5 67.5h498c50.6667 0 96.1667 -14.8334 136.5 -44.5c40.3334 -29.6666 68.1667 -68.1666 83.5 -115.5z" />
    <glyph unicode="&#x25b6;" 
d="M352 302v1444l1443 -722zM512 1487v-926l925 463z" />
    <glyph unicode="&#xe8a0;" 
d="M896 384h-480v1280h480v-1280zM576 544h160v960h-160v-960zM1632 384h-480v1280h480v-1280zM1312 544h160v960h-160v-960z" />
    <glyph unicode="&#x25a0;" 
d="M1728 320h-1408v1408h1408v-1408zM480 480h1088v1088h-1088v-1088z" />
    <glyph unicode="&#x23ea;" 
d="M1559 391l-632 633l632 633l114 -114l-520 -519l520 -519zM952 391l-633 633l633 633l113 -114l-520 -519l520 -519z" />
    <glyph unicode="&#x23e9;" 
d="M489 391l-114 114l520 519l-520 519l114 114l632 -633zM1096 391l-113 114l520 519l-520 519l113 114l633 -633z" />
    <glyph unicode="&#x1f500;" 
d="M1514 757l114 113l405 -407l-405 -407l-114 113l215 215h-309c-152.667 0 -269.667 73.3333 -351 220c-17.3334 30.6667 -67.0001 114 -149 250l-150 -250c-81.3333 -146.667 -198.333 -220 -351 -220h-355v160h355c46.6667 0 87 11 121 33s64.3333 57 91 105
c15.3333 28 41.3333 72.3333 78 133l95 156l48 78l10 17l25.5 41.5l35 57.5l41 67.5l41 68.5l37 62.5l27.5 47.5c82 147.333 199 221 351 221h306l-212 213l114 113l405 -407l-405 -407l-114 112l215 216h-309c-46.6666 0 -86.8333 -11.1666 -120.5 -33.5
c-33.6666 -22.3334 -63.8333 -57.5 -90.5 -105.5c-30.6666 -54.6666 -95.6666 -163.333 -195 -326c103.333 -169.333 168.333 -277.667 195 -325c26.6666 -48 56.8333 -83 90.5 -105c33.6666 -22 73.8333 -33 120.5 -33h306zM631 1333
c-27.3333 48 -57.8333 83.1666 -91.5 105.5c-33.6667 22.3334 -73.8333 33.5 -120.5 33.5h-355v160h355c152 0 269 -73.6666 351 -221l66 -111l-94 -155z" />
    <glyph unicode="&#x1f501;" 
d="M352 1040c0 -66 18 -127 54 -183l-114 -114c-66.6667 88 -100 187 -100 297c0 90 22.1667 173 66.5 249c44.3333 76 104.667 136.167 181 180.5s159.167 66.5 248.5 66.5h708l-215 214l114 113l407 -407l-407 -407l-114 113l215 214h-708
c-92.6667 0 -171.833 -32.8334 -237.5 -98.5c-65.6667 -65.6666 -98.5 -144.833 -98.5 -237.5zM1788 1337c66.6666 -88 100 -187 100 -297c0 -89.3333 -22.1666 -172.167 -66.5 -248.5c-44.3334 -76.3333 -104.667 -136.667 -181 -181
c-76.3334 -44.3333 -159.167 -66.5 -248.5 -66.5h-708l215 -214l-113 -114l-408 408l408 407l113 -113l-214 -214h707c92.6666 0 171.833 32.8333 237.5 98.5c65.6666 65.6667 98.5 144.833 98.5 237.5c0 66 -18 126.667 -54 182z" />
    <glyph unicode="&#x1f5c2;" 
d="M1642 1568l246 -718v-658h-1760v658l246 718h169l-241 -704h545l9 -70c1.33331 -8.66669 4 -18 8 -28s11 -23 21 -39s25.6667 -29.1667 47 -39.5s46.6666 -15.5 76 -15.5s54.8334 5.33331 76.5 16s37.5 24.3334 47.5 41c10 16.6667 16.8334 29.6667 20.5 39
s6.16663 17.6666 7.5 25v1l9 70h545l-241 704h169zM288 352h1440v352h-428c-21.3334 -53.3333 -56 -98.6666 -104 -136c-48 -37.3333 -110.667 -56 -188 -56c-77.3333 0 -140 18.6667 -188 56s-82.6667 82.6666 -104 136h-428v-352zM512 992v160h992v-160h-992zM1408 1440
v-160h-800v160h800zM1312 1728v-160h-608v160h608z" />
    <glyph unicode="&#xe901;" 
d="M1728 384v480h160v-640h-1664v640h160v-480h1344zM1587 1920l333 -454v-474h-480v-80c0 -57.3333 -20.3334 -106.333 -61 -147s-89.6666 -61 -147 -61h-352c-57.3333 0 -106.333 20.3333 -147 61s-61 89.6667 -61 147v80h-512v474l333 454h1094zM574 1760l-211 -288h1354
l-211 288h-932zM1280 912v80h-448v-80c0 -13.3333 4.66669 -24.6666 14 -34c9.33331 -9.33331 20.6666 -14 34 -14h352c13.3334 0 24.6667 4.66669 34 14c9.33337 9.33331 14 20.6666 14 34zM1760 1152v160h-1440v-160h1440z" />
    <glyph unicode="&#xeb00;" 
d="M1539 1310c132.667 -22 240 -78 322 -168s123 -197.667 123 -323c0 -90 -22.1666 -173.333 -66.5 -250c-44.3334 -76.6667 -104.667 -137.333 -181 -182c-76.3334 -44.6667 -159.167 -67 -248.5 -67h-176v160h176c92.6666 0 171.833 33.1667 237.5 99.5
c65.6666 66.3333 98.5 146.167 98.5 239.5c0 91.3333 -33.1666 168.667 -99.5 232s-151.833 99 -256.5 107l-63 5l-10 61c-19.3334 109.333 -70.5 199.333 -153.5 270s-178.833 106 -287.5 106c-68 0 -130.833 -11.6666 -188.5 -35s-106.833 -57 -147.5 -101
c-85.3333 -92 -122.333 -212.333 -111 -361l5 -67l-65 -16c-70 -18 -124.667 -51.1667 -164 -99.5c-39.3333 -48.3333 -59 -106.167 -59 -173.5c0 -73.3333 26 -136.167 78 -188.5c52 -52.3333 114.333 -78.5 187 -78.5h215v-160h-215
c-116.667 0 -216.667 41.8333 -300 125.5c-83.3333 83.6667 -125 184.167 -125 301.5c0 94 24.8333 177 74.5 249c49.6667 72 118.5 125 206.5 159c1.33334 167.333 53.3333 306.667 156 418c56 60 123 106.167 201 138.5s162 48.5 252 48.5
c137.333 0 260.167 -41.8334 368.5 -125.5c108.333 -83.6666 180.5 -191.833 216.5 -324.5zM1297 861l116 -110l-405 -425l-405 425l116 110l209 -219v510h160v-510z" />
    <glyph unicode="&#xeb01;" 
d="M1632 832h160v-480h-1568v480h160v-320h1248v320zM1477 1115l-469 -469l-469 469l113 113l276 -276v648h160v-648l276 276z" />
    <glyph unicode="&#xeb02;" 
d="M1120 1152v-295l151 151l114 -113l-345 -344l-344 344l113 113l151 -151v295h160zM1587 1920l333 -454v-1178h-1760v1178l333 454h1094zM1760 448v864h-512v160h469l-211 288h-386v-448h-160v448h-386l-211 -288h469v-160h-512v-864h1440z" />
    <glyph unicode="&#xeb40;" 
d="M1539 1310c132.667 -22 240 -78 322 -168s123 -197.667 123 -323c0 -90 -22.1666 -173.333 -66.5 -250c-44.3334 -76.6667 -104.667 -137.333 -181 -182c-76.3334 -44.6667 -159.167 -67 -248.5 -67h-176v160h176c92.6666 0 171.833 33.1667 237.5 99.5
c65.6666 66.3333 98.5 146.167 98.5 239.5c0 91.3333 -33.1666 168.667 -99.5 232s-151.833 99 -256.5 107l-63 5l-10 61c-19.3334 109.333 -70.5 199.333 -153.5 270s-178.833 106 -287.5 106c-68 0 -130.833 -11.6666 -188.5 -35s-106.833 -57 -147.5 -101
c-85.3333 -92 -122.333 -212.333 -111 -361l5 -67l-65 -16c-70 -18 -124.667 -51.1667 -164 -99.5c-39.3333 -48.3333 -59 -106.167 -59 -173.5c0 -73.3333 26 -136.167 78 -188.5c52 -52.3333 114.333 -78.5 187 -78.5h215v-160h-215
c-116.667 0 -216.667 41.8333 -300 125.5c-83.3333 83.6667 -125 184.167 -125 301.5c0 94 24.8333 177 74.5 249c49.6667 72 118.5 125 206.5 159c1.33334 167.333 53.3333 306.667 156 418c56 60 123 106.167 201 138.5s162 48.5 252 48.5
c137.333 0 260.167 -41.8334 368.5 -125.5c108.333 -83.6666 180.5 -191.833 216.5 -324.5zM1413 721l-116 -110l-209 219v-510h-160v510l-209 -219l-116 110l405 425z" />
    <glyph unicode="&#xeb41;" 
d="M1632 832h160v-480h-1568v480h160v-320h1248v320zM928 1355l-276 -276l-113 114l469 469l469 -469l-113 -113l-276 276v-649h-160v648z" />
    <glyph unicode="&#xeb42;" 
d="M696 865l344 345l345 -345l-114 -113l-151 151v-295h-160v295l-151 -151zM1587 1920l333 -454v-1178h-1760v1178l333 454h1094zM1760 448v864h-512v160h469l-211 288h-386v-448h-160v448h-386l-211 -288h469v-160h-512v-864h1440z" />
    <glyph unicode="&#xeb83;" 
d="M1120 1472h-160v416h160v-416zM1120 128h-160v416h160v-416zM1120 1472h-160v416h160v-416zM1120 128h-160v416h160v-416zM655 1280l-294 294l113 113l294 -294zM1606 329l113 113l-294 294l-113 -113zM655 1280l-294 294l113 113l294 -294zM1606 329l-294 294l113 113
l294 -294zM576 928h-416v160h416v-160zM1920 928h-416v160h416v-160zM576 928h-416v160h416v-160zM1920 928v160h-416v-160h416zM474 329l-113 113l294 294l113 -113zM1425 1280l-113 113l294 294l113 -113zM474 329l-113 113l294 294l113 -113zM1425 1280l294 294l-113 113
l-294 -294zM960 1472h160v416h-160v-416zM960 128h160v416h-160v-416zM576 1088h-416v-160h416v160zM1504 1088h416v-160h-416v160zM361 1574l294 -294l113 113l-294 294zM1312 623l113 113l294 -294l-113 -113zM361 442l113 -113l294 294l-113 113zM1719 1574l-294 -294
l-113 113l294 294z" />
    <glyph unicode="&#xec02;" 
d="M320 1888h1440v-1201l-524 -527h-916v1728zM1600 753v975h-1120v-1408h689zM992 448v480h480v-160h-320v-320h-160zM1312 1408v-160h-544v160h544z" />
    <glyph unicode="&#xec01;" 
d="M320 1888h1440v-1201l-524 -527h-916v1728zM1600 753v975h-1120v-1408h689zM992 448v480h480v-160h-320v-320h-160zM960 1056v192h-192v160h192v192h160v-192h192v-160h-192v-192h-160z" />
    <glyph unicode="&#xec03;" 
d="M320 1888h1440v-1201l-524 -527h-916v1728zM1600 753v975h-1120v-1408h689zM992 448v480h480v-160h-320v-320h-160zM1375 1486l-363 -451l-288 317l118 108l163 -179l246 305z" />
    <glyph unicode="&#xec04;" 
d="M320 1888h1440v-1201l-524 -527h-916v1728zM1600 753v975h-1120v-1408h689zM992 448v480h480v-160h-320v-320h-160zM904 1079l-113 113l136 136l-136 136l113 113l136 -136l136 136l113 -113l-136 -136l136 -136l-113 -113l-136 136z" />
    <glyph unicode="&#xec30;" 
d="M608 1248v-96h-288v416h288v-96h-192v-64h160v-96h-160v-64h192zM781 1152h-128l131 222l-119 194h131l55 -117l54 117h125l-117 -195l130 -221h-135l-62 128zM1408 1472h-192v-64h160v-96h-160v-64h192v-96h-320v416h320v-96zM992 448v480h480v-160h-320v-320h-160z
M320 1888h1440v-1201l-524 -527h-916v832h160v-672h689l431 433v975h-1280v160z" />
    <glyph unicode="&#xec31;" 
d="M992 448v480h480v-160h-320v-320h-160zM320 1888h1440v-1201l-524 -527h-916v832h160v-672h689l431 433v975h-1280v160zM640 1248v-96h-320v101l170 219h-170v96h320v-91l-173 -229h173zM1145 1568c44 0 77.3334 -17.6666 100 -53s34 -71 34 -107
c0 -47.3334 -13.3334 -85.8334 -40 -115.5s-61 -44.5 -103 -44.5h-80v-96h-96v416h185zM1113 1344c15.3334 0 29 5.83337 41 17.5s18 27.1666 18 46.5c0 18 -5.33337 33.1666 -16 45.5s-23 18.5 -37 18.5h-63v-128h57zM736 1568h128v-416h-128v416z" />
    <glyph unicode="&#xec32;" 
d="M992 448v480h480v-160h-320v-320h-160zM320 1888h1440v-1201l-524 -527h-916v832h160v-672h689l431 433v975h-1280v160zM667 1361c0 -139.333 -62.3333 -209 -187 -209h-160v416h182c57.3333 0 99.1666 -19.5 125.5 -58.5c26.3333 -39 39.5 -88.5 39.5 -148.5zM416 1248
h58c21.3333 0 38.5 7.16663 51.5 21.5s21 29.1667 24 44.5c3 15.3334 4.5 31.6667 4.5 49c0 9.33337 -0.833313 19 -2.5 29s-5.16669 21.6666 -10.5 35s-14.5 24.1667 -27.5 32.5c-13 8.33337 -28.8333 12.5 -47.5 12.5h-50v-224zM890 1568
c55.3333 0 100.167 -19.5 134.5 -58.5s51.5 -88.8334 51.5 -149.5s-17.1666 -110.5 -51.5 -149.5c-34.3333 -39 -79.1666 -58.5 -134.5 -58.5c-55.3333 0 -100 19.5 -134 58.5s-51 88.8334 -51 149.5s17 110.5 51 149.5s78.6667 58.5 134 58.5zM890 1251
c18.6667 0 35.5 8.33337 50.5 25s22.5 44.6666 22.5 84s-7.5 67.3334 -22.5 84s-31.8333 25 -50.5 25c-18 0 -34.5 -8.33337 -49.5 -25s-22.5 -44.6666 -22.5 -84s7.5 -67.3334 22.5 -84s31.5 -25 49.5 -25zM1302 1472c-24.6666 0 -42.5 -10.3334 -53.5 -31
s-16.5 -46 -16.5 -76c0 -31.3334 5.66663 -58.5 17 -81.5s29 -34.5 53 -34.5c32 0 52 19.3334 60 58h110c0 -38 -15.3334 -73.3334 -46 -106s-71 -49 -121 -49c-57.3334 0 -102.5 20 -135.5 60s-49.5 90.3334 -49.5 151c0 62 16.8334 111.667 50.5 149s78.5 56 134.5 56
c100.667 -0.666626 155.667 -53 165 -157h-109c-1.33337 19.3334 -6.16675 34.3334 -14.5 45c-8.33337 10.6666 -23.1667 16 -44.5 16z" />
    <glyph unicode="&#xec34;" 
d="M960 448v480h480v-160h-320v-320h-160zM288 1888h1440v-1201l-524 -527h-916v832h160v-672h689l431 433v975h-1280v160zM384 1248v-96h-96v416h185c44 0 77.3333 -17.6666 100 -53s34 -71 34 -107c0 -47.3334 -13.3333 -85.8334 -40 -115.5s-61 -44.5 -103 -44.5h-80z
M384 1472v-128h57c15.3333 0 29 5.83337 41 17.5s18 27.1666 18 46.5c0 18 -5.33334 33.1666 -16 45.5s-23 18.5 -37 18.5h-63zM855 1568c38 0 69.8333 -10.8334 95.5 -32.5s43.5 -47.6666 53.5 -78s15 -63.5 15 -99.5c0 -62.6666 -15.6667 -112.667 -47 -150
s-77.6666 -56 -139 -56h-161v416h183zM830 1248c21.3333 0 38.5 7.16663 51.5 21.5s21 28.6667 24 43c3 14.3334 4.5 29.5 4.5 45.5c0 9.33337 -0.833313 19 -2.5 29s-5.16669 22.1666 -10.5 36.5s-14.5 26 -27.5 35s-28.8333 13.5 -47.5 13.5h-54v-224h62zM1376 1472h-192
v-64h160v-96h-160v-160h-96v416h288v-96z" />
    <glyph unicode="&#xec35;" 
d="M992 448v480h480v-160h-320v-320h-160zM320 1888h1440v-1201l-524 -527h-916v832h160v-672h689l431 433v975h-1280v160zM462 1152c-94.6667 0 -142 47.6666 -142 143v17h96v-6c0 -16.6666 4.33334 -30.6666 13 -42s21 -17 37 -17c14 0 25.1667 6.33337 33.5 19
s12.5 25 12.5 37v265h96v-263c0 -54.6666 -11.3333 -93.8333 -34 -117.5c-22.6667 -23.6666 -60 -35.5 -112 -35.5zM1202 1468c-50.6666 0 -76 -37.3334 -76 -112c0 -15.3334 2 -30.6667 6 -46c4 -15.3334 12.6666 -30.1667 26 -44.5
c13.3334 -14.3334 30.6667 -21.5 52 -21.5c40.6666 0 63.3333 12 68 36h-62v64h160v-192h-70l-3 49c-22.6666 -31.3334 -57.3333 -47 -104 -47c-52.6666 0 -95 20 -127 60s-48 89.3334 -48 148c0 70 18 121.667 54 155s78 50 126 50c46 0 83.5 -14.1666 112.5 -42.5
s47.8334 -67.1667 56.5 -116.5h-104c-6 40 -28.3334 60 -67 60zM848 1248h-80v-96h-96v416h185c44 0 77.3333 -17.6666 100 -53s34 -71 34 -107c0 -47.3334 -13.3333 -85.8334 -40 -115.5s-61 -44.5 -103 -44.5zM768 1472v-128h57c15.3333 0 29 5.83337 41 17.5
s18 27.1666 18 46.5c0 18 -5.33331 33.1666 -16 45.5s-23 18.5 -37 18.5h-63z" />
    <glyph unicode="&#xec36;" 
d="M992 448v480h480v-160h-320v-320h-160zM320 1888h1440v-1201l-524 -527h-916v832h160v-672h689l431 433v975h-1280v160zM1266 1468c-50 0 -75 -37.3334 -75 -112c0 -15.3334 1.83337 -30.6667 5.5 -46c3.66663 -15.3334 12.1666 -30.1667 25.5 -44.5
c13.3334 -14.3334 30.6667 -21.5 52 -21.5c40.6666 0 63 12 67 36h-61v64h160v-192h-70l-3 49c-23.3334 -31.3334 -58 -47 -104 -47c-52.6666 0 -95 20 -127 60s-48 89.3334 -48 148c0 70 18 121.667 54 155s78 50 126 50c46 0 83.5 -14.1666 112.5 -42.5
s47.8334 -67.1667 56.5 -116.5h-104c-4.66663 40 -27 60 -67 60zM928 1344v224h96v-416h-103l-121 224v-224h-96v416h113zM416 1248v-96h-96v416h185c44 0 77.3333 -17.6666 100 -53s34 -71 34 -107c0 -47.3334 -13.3333 -85.8334 -40 -115.5s-61 -44.5 -103 -44.5h-80z
M416 1472v-128h57c15.3333 0 29 5.83337 41 17.5s18 27.1666 18 46.5c0 18 -5.33331 33.1666 -16 45.5c-10.6667 12.3334 -23 18.5 -37 18.5h-63z" />
    <glyph unicode="&#xec37;" 
d="M992 448v480h480v-160h-320v-320h-160zM320 1888h1440v-1201l-524 -527h-916v832h160v-672h689l431 433v975h-1280v160zM416 1408v-256h-96v416h157l52 -224h1l52 224h154v-416h-96v256h-5l-63 -256h-84l-64 256h-8zM985 1568c44 0 77.3334 -17.6666 100 -53
s34 -71 34 -107c0 -47.3334 -13.3334 -85.8334 -40 -115.5s-60.9999 -44.5 -103 -44.5h-80v-96h-96v416h185zM953 1344c15.3333 0 29 5.83337 41 17.5s18 27.1666 18 46.5c0 18 -5.33331 33.1666 -16 45.5s-23 18.5 -37 18.5h-63v-128h57zM1312 1244
c33.3334 0 50 15.3334 50 46c0 28 -16.6666 42 -50 42c-4.66663 0 -15 -1 -31 -3v79c2 0 6.33337 -0.333374 13 -1s12.6666 -1 18 -1c34 0 51 12.3334 51 37c0 12 -5 21 -15 27s-21.3334 9 -34 9c-29.3334 0 -46 -13 -50 -39h-100c4 40.6666 19 72 45 94
c28.6666 22.6666 64.6666 34 108 34c48 0 83.8334 -11.6666 107.5 -35s35.5 -46.3334 35.5 -69c0 -16 -1.66663 -29.8334 -5 -41.5s-7.33337 -20.3333 -12 -26c-4.66663 -5.66663 -9.5 -10 -14.5 -13s-9.16663 -4.83337 -12.5 -5.5l-5 -2v-1
c0 -0.666626 2.16663 -1.5 6.5 -2.5s9.5 -3.16663 15.5 -6.5s11.8334 -8 17.5 -14s10.6666 -15.3334 15 -28s6.5 -27.3333 6.5 -44c0 -32 -12.3334 -61.3334 -37 -88s-64 -40 -118 -40c-31.3334 0 -58.3334 4.83337 -81 14.5s-39.1666 20.3333 -49.5 32
c-10.3334 11.6666 -18.3334 26.3333 -24 44c-5.66663 17.6666 -8.83325 30.6666 -9.5 39c-0.666626 8.33337 -1 18.1667 -1 29.5h102c-0.666626 -21.3334 4 -37.6667 14 -49c9.33337 -12 24 -18 44 -18z" />
    <glyph unicode="&#xec38;" 
d="M992 448v480h480v-160h-320v-320h-160zM320 1888h1440v-1201l-524 -527h-916v832h160v-672h689l431 433v975h-1280v160zM416 1280v-128h-96v416h233c30 0 55.6667 -12 77 -36s32 -54 32 -90c0 -22.6666 -4.33331 -45.3333 -13 -68
c-8.66669 -22.6666 -21 -37.3333 -37 -44c28.6667 -13.3334 45 -45.3334 49 -96c2 -35.3334 5.66669 -62.6667 11 -82h-102l-4 23c-1.33331 7.33337 -2.33331 13.1667 -3 17.5c-0.666687 4.33337 -1.33337 9.5 -2 15.5c-0.666687 16 -1.83337 28.1666 -3.5 36.5
c-1.66669 8.33337 -6 16.3334 -13 24s-16.8333 11.5 -29.5 11.5h-99zM416 1472v-96h98c11.3333 0 21.8333 4.16663 31.5 12.5s14.5 20.1667 14.5 35.5c0 32 -17 48 -51 48h-93zM1462 1442c0 -22.6666 -4.33337 -45.3333 -13 -68c-8.66663 -22.6666 -21 -37.3333 -37 -44
c28.6666 -13.3334 45 -45.3334 49 -96c2 -35.3334 5.66663 -62.6667 11 -82h-102l-4 23c-1.33337 7.33337 -2.33337 13.1667 -3 17.5c-0.666626 4.33337 -1.33325 9.5 -2 15.5c-0.666626 16 -1.83325 28.1666 -3.5 36.5c-1.66663 8.33337 -6 16.3334 -13 24
s-16.8334 11.5 -29.5 11.5h-99v-128h-96v416h234c29.3334 0 54.6667 -12 76 -36c21.3334 -24 32 -54 32 -90zM1314 1376c11.3334 0 21.6667 4.16663 31 12.5c9.33337 8.33337 14 20.1667 14 35.5c0 32 -16.6666 48 -50 48h-93v-96h98zM841 1568h112l135 -416h-119l-15 64
h-118l-17 -64h-115zM848 1280h95l-45 160h-1z" />
    <glyph unicode="&#xec39;" 
d="M992 448v480h480v-160h-320v-320h-160zM320 1888h1440v-1201l-524 -527h-916v832h160v-672h689l431 433v975h-1280v160zM498 1469c-50 0 -75 -37.3334 -75 -112c0 -16 1.83334 -31.5 5.5 -46.5s12.1667 -29.6666 25.5 -44s30.6667 -21.5 52 -21.5
c41.3333 0 63.6666 11.6666 67 35h-61v64h160v-192h-70l-3 49c-23.3333 -31.3334 -58 -47 -104 -47c-52.6667 0 -95 20.1666 -127 60.5s-48 89.8334 -48 148.5c0 70 18 121.667 54 155s78 50 126 50c46 0 83.5 -14.1666 112.5 -42.5s47.8333 -67.1667 56.5 -116.5h-104
c-4.66669 40 -27 60 -67 60zM768 1568h128v-416h-128v416zM1280 1472h-192v-64h160v-96h-160v-160h-96v416h288v-96z" />
    <glyph unicode="&#x1f4c1;" 
d="M1919 289h-1726v1470h709l73 -160h944v-1310zM352 449h1407v991h-887l-73 159h-447v-1150z" />
    <glyph unicode="&#x1f4c2;" 
d="M376 256c-16 0 -30.3333 1.33334 -43 4c-48 10 -88.8333 37.3333 -122.5 82s-50.5 106.333 -50.5 185v1105h642l64 -160h766v-160h-874l-65 160h-373v-945c0 -31.3333 2.66666 -55.8333 8 -73.5s15.6667 -29.1667 31 -34.5c13.3333 -5.33334 27.1667 -5 41.5 1
c14.3333 6 25.5 18 33.5 36l322 728h1204c-205.333 -492 -315.333 -754 -330 -786c-18.6666 -42 -43.1666 -76.1667 -73.5 -102.5s-72.8334 -39.5 -127.5 -39.5h-1053zM591 416h838c13.3334 0 23.3334 2.33334 30 7s15 18 25 40c5.33337 12 84 199 236 561h-860z" />
    <glyph unicode="&#xec76;" 
d="M788 1088h1196l-46 -111c-3.33337 -6.66669 -49.5 -116.5 -138.5 -329.5s-137.5 -328.167 -145.5 -345.5c-19.3334 -42 -44 -76.1667 -74 -102.5s-72.3334 -39.5 -127 -39.5h-1037c-42 0 -76.6667 8 -104 24c-35.3333 19.3333 -64.1667 49.5 -86.5 90.5
s-33.5 92.8333 -33.5 155.5v1106h642l64 -160h296l160 -160h-564l-65 160h-373v-992c0 -34 13.3333 -54 40 -60c13.3333 -3.33334 27.5 -1.66669 42.5 5c15 6.66666 25.5 17 31.5 31zM1508 367l236 561h-852l-269 -608h830c14 0 24.1666 2.33334 30.5 7s14.5 18 24.5 40z
M1955 1602l-403 -403l-403 403l113 113l210 -210v511h160v-511l210 210z" />
    <glyph unicode="&#xec77;" 
d="M788 1088h1196l-46 -111c-3.33337 -6.66669 -49.5 -116.5 -138.5 -329.5s-137.5 -328.167 -145.5 -345.5c-19.3334 -42 -44 -76.1667 -74 -102.5s-72.3334 -39.5 -127 -39.5h-1037c-42 0 -76.6667 8 -104 24c-35.3333 19.3333 -64.1667 49.5 -86.5 90.5
s-33.5 92.8333 -33.5 155.5v1106h642l64 -160h446v-160h-554l-65 160h-373v-992c0 -34 13.3333 -54 40 -60c13.3333 -3.33334 27.5 -1.66669 42.5 5c15 6.66666 25.5 17 31.5 31zM1508 367l236 561h-852l-269 -608h830c14 0 24.1666 2.33334 30.5 7s14.5 18 24.5 40z
M1472 1734l-210 -210l-113 113l403 403l403 -403l-113 -113l-210 210v-518h-160v518z" />
    <glyph unicode="&#x201d;" 
d="M96 864v800h832v-768c0 -164 -45 -290.333 -135 -379c-90 -88.6667 -215.667 -133 -377 -133v160c126.667 0 217 27.8333 271 83.5s81 145.167 81 268.5v608h-512v-480h384v-160h-544zM1120 1664h832v-768c0 -164 -45 -290.333 -135 -379
c-90 -88.6667 -215.667 -133 -377 -133v160c126.667 0 217 27.8333 271 83.5s81 145.167 81 268.5v608h-512v-480h384v-160h-544v800z" />
    <glyph unicode="&#x2922;" 
d="M919 1033l114 -113l-504 -504h463v-160h-736v736h160v-463zM1056 1792h736v-736h-160v463l-503 -504l-114 114l504 503h-463v160z" />
    <glyph unicode="&#xee01;" 
d="M1833 1720l-504 -504h463v-160h-736v736h160v-463l504 504zM256 832v160h736v-736h-160v463l-504 -504l-113 113l504 504h-463z" />
    <glyph unicode="&#xee04;" 
d="M288 1760h640v-160h-367l360 -360l-113 -113l-360 360v-367h-160v640zM921 808l-360 -360h367v-160h-640v640h160v-367l360 360zM1120 1760h640v-640h-160v367l-360 -360l-113 113l360 360h-367v160zM1600 561v367h160v-640h-640v160h367l-360 360l113 113z" />
    <glyph unicode="&#x2b06;" 
d="M1848 1009l-114 -114l-646 647v-1350h-160v1345l-642 -642l-113 114l837 837z" />
    <glyph unicode="&#x2b08;" 
d="M448 1632h1184v-1184h-160v909l-950 -950l-113 113l952 952h-913v160z" />
    <glyph unicode="&#x2b0a;" 
d="M1472 1600h160v-1184h-1184v160h911l-953 953l113 113l953 -953v911z" />
    <glyph unicode="&#x2b07;" 
d="M1734 1153l114 -114l-838 -837l-837 837l113 114l642 -642v1345h160v-1350z" />
    <glyph unicode="&#x2b0b;" 
d="M1642 1530l-953 -954h911v-160h-1184v1184h160v-910l953 953z" />
    <glyph unicode="&#x2b09;" 
d="M1642 520l-113 -113l-953 953v-912h-160v1184h1184v-160h-910z" />
    <glyph unicode="&#xf500;" 
d="M1639 690l-605 605l-605 -605l-113 113l718 718l718 -718z" />
    <glyph unicode="&#xf501;" 
d="M1034 505l-718 718l113 114l605 -605l605 605l113 -114z" />
    <glyph unicode="&#xf600;" 
d="M752 544h461l157 -157c-14 -2 -28 -3 -42 -3h-576c-92.6667 0 -171.833 32.8333 -237.5 98.5c-65.6667 65.6667 -98.5 144.833 -98.5 237.5v676l-214 -215l-113 113l407 408l407 -408l-113 -113l-214 214v-675c0 -48.6667 17.1667 -90.1667 51.5 -124.5
s75.8333 -51.5 124.5 -51.5zM1878 899l114 -114l-408 -407l-407 407l113 114l214 -214v675c0 48.6666 -17.1666 90.1666 -51.5 124.5s-75.8334 51.5 -124.5 51.5h-461l-157 157c14 2 28 3 42 3h576c92.6666 0 171.833 -32.8334 237.5 -98.5
c65.6666 -65.6666 98.5 -144.833 98.5 -237.5v-676z" />
    <glyph unicode="&#xf601;" 
d="M1616 832c110.667 0 205 -39.1667 283 -117.5s117 -172.5 117 -282.5s-39 -204.167 -117 -282.5c-78 -78.3333 -172.333 -117.5 -283 -117.5c-110 0 -204.167 39.1667 -282.5 117.5c-78.3334 78.3333 -117.5 172.5 -117.5 282.5c0 74.6667 19.3334 143.333 58 206
l-266 205l-266 -205c38.6667 -62.6667 58 -131.333 58 -206c0 -110 -39 -204.167 -117 -282.5c-78 -78.3333 -172.333 -117.5 -283 -117.5c-110.667 0 -205 39.1667 -283 117.5c-78 78.3333 -117 172.5 -117 282.5s39 204.167 117 282.5s172.333 117.5 283 117.5
c86.6667 0 164.667 -25.3333 234 -76l294 227v241c-92 18.6666 -168.333 64.6666 -229 138s-91 158 -91 254c0 110.667 39 205 117 283s172.333 117 283 117c110.667 0 205 -39 283 -117s117 -172.333 117 -283c0 -96 -30.3334 -180.667 -91 -254s-137 -119.333 -229 -138
v-241l294 -227c69.3334 50.6667 147.333 76 234 76zM766 1616c0 -66.6666 23.6667 -123.667 71 -171s104.333 -71 171 -71c66.6666 0 123.667 23.6666 171 71s71 104.333 71 171s-23.6666 123.667 -71 171s-104.333 71 -171 71c-66.6667 0 -123.667 -23.6666 -171 -71
s-71 -104.333 -71 -171zM400 190c66.6667 0 123.667 23.6667 171 71c47.3333 47.3333 71 104.333 71 171s-23.6667 123.667 -71 171c-47.3333 47.3333 -104.333 71 -171 71c-66.6667 0 -123.667 -23.6667 -171 -71c-47.3333 -47.3333 -71 -104.333 -71 -171
c0 -66.6667 23.6667 -123.667 71 -171c47.3333 -47.3333 104.333 -71 171 -71zM1616 190c66.6666 0 123.667 23.6667 171 71c47.3334 47.3333 71 104.333 71 171s-23.6666 123.667 -71 171c-47.3334 47.3333 -104.333 71 -171 71s-123.667 -23.6667 -171 -71
s-71 -104.333 -71 -171c0 -66.6667 23.6666 -123.667 71 -171c47.3334 -47.3333 104.333 -71 171 -71z" />
    <glyph unicode="&#xe002;" 
d="M1817 344l-113 -113l-421 421c-118 -92 -252 -138 -402 -138c-87.3333 0 -170.667 16.3333 -250 49c-79.3333 32.6667 -150 80 -212 142c-61.3333 61.3333 -108.5 131.833 -141.5 211.5s-49.5 163.167 -49.5 250.5c0 87.3334 16.5 170.833 49.5 250.5
s80.1667 150.167 141.5 211.5c62 61.3334 132.833 108.5 212.5 141.5s162.833 49.5 249.5 49.5c87.3333 0 170.833 -16.5 250.5 -49.5c79.6666 -33 150.167 -80.1666 211.5 -141.5c62 -61.3334 109.5 -131.833 142.5 -211.5s49.5 -163.167 49.5 -250.5
c0 -149.333 -46.3334 -283.333 -139 -402zM531 818c96.6667 -96.6667 213.333 -145 350 -145c136.667 0 253.333 48.3333 350 145c96 96 144 212.333 144 349c0 136 -48 252.667 -144 350c-97.3334 96 -214 144 -350 144c-136 0 -252.667 -48 -350 -144
c-96 -97.3334 -144 -214 -144 -350c0 -136.667 48 -253 144 -349zM960 1472v-224h224v-160h-224v-224h-160v224h-224v160h224v224h160z" />
    <glyph unicode="&#x2316;" 
d="M1540 1540c70.6666 -70.6666 125 -151.833 163 -243.5c38 -91.6666 57 -187.833 57 -288.5c0 -100.667 -19 -196.833 -57 -288.5c-38 -91.6667 -92.3334 -172.833 -163 -243.5c-70.6666 -70.6667 -151.833 -125 -243.5 -163c-91.6666 -38 -187.833 -57 -288.5 -57
c-100.667 0 -196.833 19 -288.5 57c-91.6667 38 -172.833 92.3333 -243.5 163c-70.6667 70.6667 -125 151.833 -163 243.5c-38 91.6667 -57 187.833 -57 288.5s19 196.833 57 288.5c38 91.6666 92.3333 172.833 163 243.5c70.6667 70.6666 151.833 125 243.5 163
c91.6667 38 187.833 57 288.5 57s196.833 -19 288.5 -57c91.6666 -38 172.833 -92.3334 243.5 -163zM1427 589c94 94.6667 149.667 207.667 167 339h-250v160h250c-17.3334 131.333 -73 244.333 -167 339c-94.6666 94 -207.667 149.667 -339 167v-250h-160v250
c-131.333 -17.3334 -244.333 -73 -339 -167c-94 -94.6666 -149.667 -207.667 -167 -339h250v-160h-250c17.3333 -131.333 73 -244.333 167 -339c94.6667 -94 207.667 -149.667 339 -167v250h160v-250c131.333 17.3333 244.333 73 339 167zM1008 1120
c30.6666 0 57 -11 79 -33s33 -48.3334 33 -79c0 -30.6667 -11 -57 -33 -79s-48.3334 -33 -79 -33c-30.6667 0 -57 11 -79 33s-33 48.3333 -33 79c0 30.6666 11 57 33 79s48.3333 33 79 33z" />
    <glyph unicode="&#xe071;" 
d="M1859 1306l-193 -192l-520 521l192 192c40.6666 40.6666 89.6666 61 147 61s106.333 -20.3334 147 -61l227 -226c40 -41.3334 60 -90.6667 60 -148c0 -56.6666 -20 -105.667 -60 -147zM1451 1714l-79 -79l294 -295l80 80c8.66663 8 13 19 13 33s-4.33337 25.3334 -13 34
l-227 227c-9.33337 9.33337 -20.6667 14 -34 14c-13.3334 0 -24.6667 -4.66663 -34 -14zM851 525l237 237l113 -113l-264 -264l-785 -264l265 784l264 265l113 -114l-238 -237l-111 -330l76 -75zM677 645c-16 14.6667 -24 33.3334 -24 56c0 22 8 41 24 57l208 208l113 -113
l-208 -208c-16 -16 -35 -24 -57 -24s-40.6667 8 -56 24zM1410 858l618 -617l-114 -113l-1760 1760l113 113l623 -622l165 165l113 -113l-165 -166l91 -90l165 165l113 -113l-165 -165l90 -91l166 166l113 -113z" />
    <glyph unicode="&#x2710;" 
d="M1744 704c84 0 155.667 -29.6667 215 -89s89 -131 89 -215c0 -84 -29.6666 -155.667 -89 -215c-59.3334 -59.3333 -131 -89 -215 -89c-84 0 -155.667 29.6667 -215 89c-59.3334 59.3333 -89 131 -89 215s29.6666 155.667 89 215s131 89 215 89zM1744 256
c39.3334 0 73.1667 14.1667 101.5 42.5c28.3334 28.3333 42.5 62.1667 42.5 101.5c0 39.3333 -14.1666 73.1667 -42.5 101.5s-62.1667 42.5 -101.5 42.5c-39.3334 0 -73.1667 -14.1667 -101.5 -42.5c-28.3334 -28.3333 -42.5 -62.1667 -42.5 -101.5
c0 -39.3333 14.1666 -73.1667 42.5 -101.5c28.3334 -28.3333 62.1667 -42.5 101.5 -42.5zM1072 288c40 0 74 -14.1667 102 -42.5c28 -28.3333 42 -62.1667 42 -101.5c0 -39.3333 -14 -73.1667 -42 -101.5c-28 -28.3333 -62 -42.5 -102 -42.5c-40 0 -74 14.1667 -102 42.5
c-28 28.3333 -42 62.1667 -42 101.5s14 73.1667 42 101.5s62 42.5 102 42.5zM93 742l192 192l521 -521l-193 -192c-40.6667 -40.6667 -89.6667 -61 -147 -61c-57.3333 0 -106.333 20.3333 -147 61l-226 226c-40.6667 42 -61 91.3333 -61 148c0 56 20.3333 105 61 147z
M500 334l79 79l-294 295l-79 -80c-9.33333 -8 -14 -19 -14 -33c0 -13.3333 4.66667 -24.6666 14 -34l226 -227c9.33334 -9.33334 20.6667 -14 34 -14c13.3333 0 24.6667 4.66666 34 14zM1799 1927l-264 -784l-639 -639l-113 113l612 612l111 330l-76 75l-329 -110l-612 -613
l-113 113l638 639zM1298 1347c0 -21.3334 -7.66663 -40.3334 -23 -57l-583 -582l-113 113l583 582c14.6666 16 33.3333 24 56 24c22 0 41 -8 57 -24c15.3334 -15.3334 23 -34 23 -56z" />
    <glyph unicode="&#x1f5d1;" 
d="M1440 448v960h160v-1120h-1216v1120h160v-960h896zM736 1408h160v-800h-160v800zM1088 1408h160v-800h-160v800zM1368 1696h328v-160h-1408v160h328l97 288h558zM785 1696h414l-43 128h-328z" />
    <glyph unicode="&#x2665;" 
d="M1823 1277c10 -171.333 -56.3334 -331.333 -199 -480l-170.5 -177l-150.5 -156.5l-115 -120l-78 -81.5l-28 -29l-58 -61l-58 61l-28 29l-78 81.5l-114.5 120l-150.5 156.5l-171 177c-142.667 148.667 -209 308.667 -199 480c4 69.3334 20.6667 134.5 50 195.5
c29.3333 61 68 110.833 116 149.5c87.3333 70.6666 187.667 106 301 106c146 0 256.667 -52.3334 332 -157c75.3334 104.667 186 157 332 157c113.333 0 213.667 -35.3334 301 -106c48 -38.6666 86.6666 -88.5 116 -149.5s46 -126.167 50 -195.5zM1509 908
c111.333 115.333 162.667 235.333 154 360c-2.66663 50.6666 -14.3333 96.1666 -35 136.5c-20.6666 40.3334 -44.6666 71.1667 -72 92.5c-56.6666 47.3334 -123.333 71 -200 71c-50.6666 0 -93.6666 -8.83337 -129 -26.5s-61.1667 -41.8333 -77.5 -72.5
c-16.3334 -30.6666 -27 -53.5 -32 -68.5s-9.16663 -32.8334 -12.5 -53.5c-0.666626 -2 -1 -3.33337 -1 -4c-8 -42 -33.6666 -63 -77 -63c-26 0 -45.8333 6.33337 -59.5 19s-21.5 27.6666 -23.5 45c-16 110 -68 180 -156 210c-28.6667 9.33337 -60.6667 14 -96 14
c-76.6667 0 -143.333 -23.6666 -200 -71c-27.3333 -21.3334 -51.3333 -52.1667 -72 -92.5c-20.6667 -40.3334 -32.3333 -85.8334 -35 -136.5c-8.66666 -124.667 42.6667 -244.667 154 -360l485 -504z" />
    <glyph unicode="&#x22c6;" 
d="M1663 53l-639 393l-639 -393l180 724l-576 482l752 54l283 689l283 -689l752 -54l-576 -482zM1024 634l389 -239l-109 441l349 291l-456 33l-173 421l-173 -421l-456 -33l349 -291l-109 -441z" />
    <glyph unicode="&#xe200;" 
d="M767 577l274 274l113 -114l-291 -291c-12.6667 -12.6667 -27 -20 -43 -22l-56 -11c-10.6667 -54 -35 -100.667 -73 -140c-54 -52.6667 -118.333 -79 -193 -79c-75.3333 0 -139.333 26.3333 -192 79c-53.3333 53.3333 -80 117.667 -80 193c0 76 26.6667 140 80 192
c38 38.6667 84.6667 63.3334 140 74l10 56c3.33334 17.3333 10.6667 31.3333 22 42l292 292l113 -113l-274 -274l-17 -93c-3.33331 -20 -13.1666 -36.3333 -29.5 -49c-16.3333 -12.6667 -34.8333 -18 -55.5 -16h-10c-30.6667 0 -56.6667 -10.6667 -78 -32
c-22 -22 -33 -48.3333 -33 -79s11 -57 33 -79c20.6667 -21.3333 47 -32 79 -32s58.3333 10.6667 79 32c24.6667 24.6667 35.3334 54 32 88c-1.33331 20.6667 4.16669 39.1666 16.5 55.5c12.3333 16.3333 28.8333 26.1666 49.5 29.5zM1854 1421
c-1.33337 -111.333 -52 -217 -152 -317c-36 -36 -82 -73 -138 -111s-111 -69 -165 -93l153 -153l-113 -113l-773 772l113 114l153 -153c24 54 55 108.833 93 164.5s75.3334 101.833 112 138.5c99.3334 99.3334 204.667 149.667 316 151h3c102 0 193.667 -40.6666 275 -122
c83.3334 -83.3334 124.333 -176 123 -278zM1589 1217c68.6666 68.6666 103.667 137 105 205c0 58.6666 -25.3334 113.333 -76 164c-50 50 -104 75 -162 75h-2c-66.6666 0 -134.667 -34.6666 -204 -104c-38.6666 -38.6666 -77.6666 -90 -117 -154s-65 -117.333 -77 -160
l219 -219c42 11.3334 95.1666 36.6667 159.5 76c64.3334 39.3334 115.833 78.3334 154.5 117z" />
    <glyph unicode="&#xe2a0;" 
d="M1808 1248c-51.3334 0 -91.3334 21.3334 -120 64h-197c132 -113.333 200 -273.333 204 -480h193v-544h-544v544h191c-2 102.667 -24.8334 190.167 -68.5 262.5c-43.6666 72.3334 -105.833 126.833 -186.5 163.5v-138h-544v138
c-165.333 -75.3334 -250.667 -217.333 -256 -426h192v-544h-544v544h193c4 206 72.3333 366 205 480h-198c-29.3333 -42.6666 -69.3333 -64 -120 -64c-40 0 -74 14.1666 -102 42.5s-42 62.1667 -42 101.5c0 39.3334 14 73.1667 42 101.5c28 28.3334 62 42.5 102 42.5
c51.3333 0 91.3333 -21.3334 120 -64h408v192h544v-192h408c28.6666 42.6666 68.6666 64 120 64c40 0 74 -14.1666 102 -42.5s42 -62.1667 42 -101.5c0 -39.3334 -14 -73.1667 -42 -101.5c-28 -28.3334 -62 -42.5 -102 -42.5zM512 672h-224v-224h224v224zM1120 1280v224
h-224v-224h224zM1728 672h-224v-224h224v224z" />
    <glyph unicode="&#xe2a1;" 
d="M1312 896h480v-640h-1600v1600h640v-480h480v-480zM672 416v320h-320v-320h320zM672 896v320h-320v-320h320zM672 1376v320h-320v-320h320zM1152 416v320h-320v-320h320zM1152 896v320h-320v-320h320zM1632 416v320h-320v-320h320z" />
    <glyph unicode="&#x1f465;" 
d="M1945 465l7 -81h-154l-6 70c-14 147.333 -141.333 221 -382 221c-28.6666 0 -55 -1 -79 -3c-15.3334 54.6667 -38.3334 104.333 -69 149c48 7.33331 97.3334 11 148 11c159.333 0 285.5 -32 378.5 -96s145.167 -154.333 156.5 -271zM657 960c89.3333 0 169 -9 239 -27
s125.5 -40.3333 166.5 -67s75.1666 -58.3334 102.5 -95c27.3334 -36.6667 46.1667 -70.6667 56.5 -102c10.3334 -31.3333 17.1667 -63.6666 20.5 -97l6 -188h-155l-4 177c-8 79.3333 -49 139.5 -123 180.5s-177 61.5 -309 61.5c-132.667 0 -236 -20.5 -310 -61.5
c-74 -41 -115 -101.833 -123 -182.5l-5 -175h-152l4 187c3.33334 33.3333 10.1667 65.6666 20.5 97c10.3333 31.3333 29.1667 65.5 56.5 102.5s61.5 68.8333 102.5 95.5s96.5 49 166.5 67s150 27 240 27zM1408 928c-91.3334 0 -167.5 34.6667 -228.5 104
c-61 69.3334 -91.5 155.333 -91.5 258c0 91.3334 29.8334 165.833 89.5 223.5s136.5 86.5 230.5 86.5s170.833 -28.8334 230.5 -86.5s89.5 -132.167 89.5 -223.5c0 -102.667 -30.5 -188.667 -91.5 -258c-61 -69.3333 -137.167 -104 -228.5 -104zM1408 1447
c-10.6666 0 -21.6666 -0.666626 -33 -2s-25.5 -5.16675 -42.5 -11.5c-17 -6.33337 -31.8334 -14.6667 -44.5 -25c-12.6666 -10.3334 -23.6666 -25.6667 -33 -46c-9.33337 -20.3334 -14 -44.1667 -14 -71.5c0 -60.6666 15.8334 -110.833 47.5 -150.5
c31.6666 -39.6666 71.5 -59.5 119.5 -59.5s87.8334 19.8334 119.5 59.5s47.5 89.8333 47.5 150.5c0 27.3334 -4.66663 51.1667 -14 71.5c-9.33337 20.3334 -20.3334 35.6667 -33 46c-12.6666 10.3334 -27.5 18.6667 -44.5 25c-17 6.33337 -31.1666 10.1667 -42.5 11.5
c-11.3334 1.33337 -22.3334 2 -33 2zM656 1056c-96 0 -176 36.1666 -240 108.5s-96 162.833 -96 271.5c0 96.6666 30.8333 174.833 92.5 234.5c61.6667 59.6666 142.833 89.5 243.5 89.5s181.833 -29.8334 243.5 -89.5c61.6667 -59.6666 92.5 -137.833 92.5 -234.5
c0 -108.667 -32.1667 -199.167 -96.5 -271.5s-144.167 -108.5 -239.5 -108.5zM656 1608c-20.6667 0 -40.1667 -2.16663 -58.5 -6.5s-37.6666 -12 -58 -23c-20.3333 -11 -36.5 -28.5 -48.5 -52.5c-12 -24 -18 -53.6666 -18 -89c0 -66.6666 17.1667 -121.5 51.5 -164.5
c34.3333 -43 78.1666 -64.5 131.5 -64.5c53.3333 0 97.1666 21.5 131.5 64.5c34.3333 43 51.5 97.8334 51.5 164.5c0 35.3334 -6 65 -18 89s-28.1667 41.5 -48.5 52.5s-39.6666 18.6666 -58 23c-18.3333 4.33337 -37.8333 6.5 -58.5 6.5z" />
    <glyph unicode="&#xe500;" 
d="M576 352c44 0 81.6667 -15.6667 113 -47s47 -69 47 -113c0 -44 -15.6667 -81.6667 -47 -113c-31.3333 -31.3333 -69 -47 -113 -47c-44 0 -81.6667 15.6667 -113 47c-31.3333 31.3333 -47 69 -47 113s15.6667 81.6667 47 113s69 47 113 47zM1600 352
c44 0 81.6666 -15.6667 113 -47s47 -69 47 -113c0 -44 -15.6666 -81.6667 -47 -113c-31.3334 -31.3333 -69 -47 -113 -47c-44 0 -81.6666 15.6667 -113 47c-31.3334 31.3333 -47 69 -47 113s15.6666 81.6667 47 113s69 47 113 47zM563 1696h1325l-7 -86
c-1.33337 -28 -8 -114.5 -20 -259.5s-21 -236.5 -27 -274.5c-9.33337 -64.6667 -39.3334 -119.167 -90 -163.5s-113.667 -71.8333 -189 -82.5c-1.33337 0 -263.667 -31.3333 -787 -94v161l262 31l322.5 38c95 11.3333 155.5 19 181.5 23c39.3334 4.66669 71.6667 17 97 37
c25.3334 20 40.3334 44.6666 45 74c7.33337 47.3334 20.3334 192.667 39 436h-1139v-831c0 -29.3333 9.5 -52.8333 28.5 -70.5s44.8333 -26.5 77.5 -26.5h1078v-160h-1078c-76 0 -139.333 24.5 -190 73.5c-50.6667 49 -76 110.167 -76 183.5v913
c0 29.3334 -11.8333 55 -35.5 77s-51.1667 33 -82.5 33h-298v160h298c60.6667 0 115.5 -18 164.5 -54s82.5 -82 100.5 -138z" />
    <glyph unicode="&#x2302;" 
d="M1024 1920l915 -908l-112 -114l-803 796l-803 -796l-112 114zM1536 512v494l160 -159v-495h-544v512h-256v-512h-544v495l160 159v-494h224v512h576v-512h224z" />
    <glyph unicode="&#x1f4e6;" 
d="M1587 1920l333 -454v-1178h-1760v1178l333 454h1094zM1760 448v864h-512v160h469l-211 288h-386v-448h-160v448h-386l-211 -288h469v-160h-512v-864h1440z" />
    <glyph unicode="&#xe672;" 
d="M1742 1248l337 -357l-337 -347h-750v-352h-160v352h-224v704h1134zM1674 704l183 189l-184 195h-905v-384h906zM223 1437l183 -189h74v-160h-142l-337 347l337 357h494v192h160v-192h480v-416h-160v256h-905z" />
    <glyph unicode="&#x1f4be;" 
d="M1594 1792l262 -261v-1371h-1664v1632h160v-1472h1344v1144l-160 159v-631h-1024v800h1024h58zM1376 1152v480h-704v-480h416v352h160v-352h128z" />
    <glyph unicode="&#x1f4f1;" 
d="M1424 1728c57.3334 0 106.333 -20.3334 147 -61s61 -89.6666 61 -147v-1184c0 -57.3333 -20.3334 -106.333 -61 -147c-40.6666 -40.6667 -89.6666 -61 -147 -61h-768c-57.3333 0 -106.333 20.3333 -147 61c-40.6667 40.6667 -61 89.6667 -61 147v1440
c0 57.3334 20.3333 106.333 61 147c40.6667 40.6666 89.6667 61 147 61h128c57.3333 0 106.333 -20.3334 147 -61s61 -89.6666 61 -147v-48h432zM1472 336v1184c0 13.3334 -4.66663 24.6667 -14 34c-9.33337 9.33337 -20.6667 14 -34 14h-592v208
c0 13.3334 -4.66669 24.6667 -14 34c-9.33331 9.33337 -20.6666 14 -34 14h-128c-13.3333 0 -24.6666 -4.66663 -34 -14c-9.33331 -9.33337 -14 -20.6667 -14 -34v-1440c0 -13.3333 4.66669 -24.6667 14 -34c9.33331 -9.33334 20.6666 -14 34 -14h768
c13.3334 0 24.6667 4.66666 34 14c9.33337 9.33334 14 20.6667 14 34zM736 928v480h608v-480h-608zM896 1248v-160h288v160h-288z" />
    <glyph unicode="&#x1f4a1;" 
d="M1120 608h-160v479l-180 180l113 113l147 -147l147 147l113 -113l-180 -180v-479zM1500 1713c47.3334 -52.6666 82.5 -114.667 105.5 -186s31.1666 -144.333 24.5 -219c-8 -81.3334 -24 -148.167 -48 -200.5c-24 -52.3334 -58 -106.5 -102 -162.5l-10 -13
c-14.6666 -18.6667 -25.5 -33.1667 -32.5 -43.5s-13.6666 -25.1666 -20 -44.5c-6.33337 -19.3333 -9.5 -40.6666 -9.5 -64v-172h-160v172c0 40 6 77.8333 18 113.5s23.3334 61.5 34 77.5s25.6666 36.3333 45 61l9 11c36 46 63 88.5 81 127.5s29.6666 89.8334 35 152.5
c2.66663 8 3.16663 23.3334 1.5 46s-4.16663 46.1666 -7.5 70.5s-12.1667 51.8334 -26.5 82.5c-14.3334 30.6666 -32.8334 58.3333 -55.5 83c-74.6666 82 -188.667 123 -342 123c-153.333 0 -267 -41 -341 -123c-22.6667 -24.6666 -41.1667 -52.5 -55.5 -83.5
s-23.3333 -58.5 -27 -82.5s-6.33337 -47.3334 -8 -70c-1.66669 -22.6666 -1.16669 -38 1.5 -46c6 -63.3334 18 -114.5 36 -153.5s44.6667 -81.1666 80 -126.5l10 -14c18.6667 -23.3333 33.5 -43.3333 44.5 -60s22.3333 -42.5 34 -77.5s17.5 -72.1667 17.5 -111.5v-172h-160
v172c0 22.6667 -3 43.3334 -9 62c-6 18.6667 -12.5 33.3334 -19.5 44c-7 10.6667 -17.5 25 -31.5 43l-12 16c-44 56 -78 110.167 -102 162.5s-40 119.167 -48 200.5c-6.66666 74.6666 1.5 147.667 24.5 219s58.1667 133.333 105.5 186c106.667 116.667 260 175 460 175
s353.333 -58.3334 460 -175zM672 320v160h736v-160h-736zM832 32v160h416v-160h-416z" />
    <glyph unicode="&#x23f2;" 
d="M1040 1792c106 0 207.333 -20.6666 304 -62s180.167 -97.1667 250.5 -167.5c70.3334 -70.3334 126.167 -153.833 167.5 -250.5c41.3334 -96.6666 62 -198 62 -304c0 -104.667 -19.8334 -204.667 -59.5 -300s-96.5 -180 -170.5 -254s-158.667 -130.833 -254 -170.5
c-95.3334 -39.6667 -195.333 -59.5 -300 -59.5c-106 0 -207.333 20.6667 -304 62c-96.6667 41.3333 -180.167 97.1667 -250.5 167.5c-70.3333 70.3333 -126.167 153.833 -167.5 250.5c-41.3333 96.6667 -62 198 -62 304c0 106 20.6667 207.333 62 304
s97.1667 180.167 167.5 250.5s153.833 126.167 250.5 167.5c96.6667 41.3334 198 62 304 62zM1486 562c59.3334 59.3333 104.833 127.5 136.5 204.5s47.5 157.5 47.5 241.5c0 114 -28.1666 219.333 -84.5 316s-132.833 173.167 -229.5 229.5s-202 84.5 -316 84.5
s-219.333 -28.1666 -316 -84.5s-173.167 -132.833 -229.5 -229.5c-56.3333 -96.6666 -84.5 -202 -84.5 -316s28.1667 -219.333 84.5 -316c56.3333 -96.6667 132.833 -173.167 229.5 -229.5c96.6667 -56.3333 202 -84.5 316 -84.5c84 0 164.5 15.8333 241.5 47.5
s145.167 77.1667 204.5 136.5zM1120 1472v-434l330 -202l-84 -136l-406 248v524h160z" />
    <glyph unicode="&#x1f50b;" 
d="M1779 1344c57.3334 0 105.833 -20.1666 145.5 -60.5s59.5 -89.5 59.5 -147.5v-228c0 -57.3333 -19.8334 -105.667 -59.5 -145c-39.6666 -39.3333 -88.1666 -59 -145.5 -59h-83v-16c0 -57.3333 -20.3334 -106.333 -61 -147c-40.6666 -40.6667 -89.6666 -61 -147 -61h-1184
c-57.3333 0 -106.333 20.3333 -147 61c-40.6667 40.6667 -61 89.6667 -61 147v672c0 57.3334 20.3333 106.333 61 147c40.6667 40.6666 89.6667 61 147 61h1184c57.3334 0 106.333 -20.3334 147 -61s61 -89.6666 61 -147v-16h83zM1536 688v672
c0 13.3334 -4.66663 24.6667 -14 34c-9.33337 9.33337 -20.6667 14 -34 14h-1184c-13.3333 0 -24.6667 -4.66663 -34 -14c-9.33334 -9.33337 -14 -20.6667 -14 -34v-672c0 -13.3333 4.66666 -24.6666 14 -34c9.33334 -9.33331 20.6667 -14 34 -14h1184
c13.3334 0 24.6667 4.66669 34 14c9.33337 9.33331 14 20.6666 14 34zM1824 908v228c0 13.3334 -4.33337 24.6667 -13 34c-8.66663 9.33337 -19.3333 14 -32 14h-83v-320h83c13.3334 0 24.1667 4.16669 32.5 12.5c8.33337 8.33331 12.5 18.8333 12.5 31.5zM384 768v512h160
v-512h-160zM672 768v512h160v-512h-160zM960 768v512h160v-512h-160zM1248 768v512h160v-512h-160z" />
    <glyph unicode="&#x1f5d8;" 
d="M1728 1632h160v-576h-576v160h304l-107 108l-100 101c-72 71.3334 -145.333 123.667 -220 157c-74.6666 33.3334 -156.333 50 -245 50c-80.6667 0 -158 -15 -232 -45s-138.333 -70.6666 -193 -122c-54.6667 -51.3334 -99.6667 -112.5 -135 -183.5
s-56 -146.167 -62 -225.5h-160c6 100.667 30.8333 196.5 74.5 287.5c43.6667 91 100.167 169.333 169.5 235s150.833 117.667 244.5 156c93.6667 38.3334 191.5 57.5 293.5 57.5c110 0 212 -20.6666 306 -62s184.667 -105.333 272 -192l99.5 -100.5l106.5 -107.5v302z
M1104 352c80.6666 0 158 15 232 45s138.333 70.6667 193 122c54.6666 51.3333 99.6666 112.5 135 183.5s56 146.167 62 225.5h160c-6 -100.667 -30.8334 -196.5 -74.5 -287.5s-100.167 -169.333 -169.5 -235s-150.833 -117.667 -244.5 -156
c-93.6666 -38.3333 -191.5 -57.5 -293.5 -57.5c-110 0 -212 20.6667 -306 62c-94 41.3333 -184.667 105.333 -272 192l-206 208v-302h-160v576h576v-160h-304l107.5 -108l99.5 -101c72 -71.3333 145.333 -123.667 220 -157c74.6667 -33.3333 156.333 -50 245 -50z" />
    <glyph unicode="&#x1f4c4;" 
d="M288 1888h1440v-1201l-524 -527h-916v1728zM1568 753v975h-1120v-1408h689zM960 448v480h480v-160h-320v-320h-160zM1344 1536v-160h-672v160h672zM1344 1248v-160h-672v160h672z" />
    <glyph unicode="&#x1f5d0;" 
d="M448 1760h1312v-1073l-524 -527h-788v1600zM1600 753v847h-992v-1280h561zM1152 768v-320h-160v480h480v-160h-320zM1472 2048v-160h-1152v-1440h-160v1600h1312z" />
    <glyph unicode="&#x201c;" 
d="M1408 1184h544v-800h-832v768c0 164 45 290.333 135 379s215.667 133 377 133v-160c-126.667 0 -217 -27.8334 -271 -83.5s-81 -145.167 -81 -268.5v-608h512v480h-384v160zM384 1024v160h544v-800h-832v768c0 164 45 290.333 135 379s215.667 133 377 133v-160
c-126.667 0 -217 -27.8334 -271 -83.5s-81 -145.167 -81 -268.5v-608h512v480h-384z" />
    <glyph unicode="&#x2753;" 
d="M1040 1792c106 0 207.333 -20.6666 304 -62s180.167 -97.1667 250.5 -167.5c70.3334 -70.3334 126.167 -153.833 167.5 -250.5c41.3334 -96.6666 62 -198 62 -304c0 -104.667 -19.8334 -204.667 -59.5 -300s-96.5 -180 -170.5 -254s-158.667 -130.833 -254 -170.5
c-95.3334 -39.6667 -195.333 -59.5 -300 -59.5c-106 0 -207.333 20.6667 -304 62c-96.6667 41.3333 -180.167 97.1667 -250.5 167.5c-70.3333 70.3333 -126.167 153.833 -167.5 250.5c-41.3333 96.6667 -62 198 -62 304c0 104.667 19.8333 204.667 59.5 300
s96.5 180 170.5 254s158.667 130.833 254 170.5s195.333 59.5 300 59.5zM1486 562c59.3334 59.3333 104.833 127.5 136.5 204.5s47.5 157.5 47.5 241.5c0 114 -28.1666 219.333 -84.5 316s-132.833 173.167 -229.5 229.5s-202 84.5 -316 84.5
c-84 0 -164.5 -15.8334 -241.5 -47.5s-145.167 -77.1666 -204.5 -136.5s-104.833 -127.5 -136.5 -204.5c-31.6667 -77 -47.5 -157.5 -47.5 -241.5c0 -114 28.1667 -219.333 84.5 -316c56.3333 -96.6667 132.833 -173.167 229.5 -229.5c96.6667 -56.3333 202 -84.5 316 -84.5
c84.6666 0 165.333 15.8333 242 47.5c76.6666 31.6667 144.667 77.1667 204 136.5zM960 608v160h160v-160h-160zM1056 1440c73.3334 0 134.333 -21.3334 183 -64s73 -96 73 -160c0 -30.6666 -6.66663 -59.1666 -20 -85.5s-29.3334 -48.6667 -48 -67l-56 -52.5
c-18.6666 -16.6667 -34.6666 -34.8334 -48 -54.5c-13.3334 -19.6667 -20 -39.8334 -20 -60.5v-32h-160v52c0 31.3333 6.16669 59.8333 18.5 85.5c12.3333 25.6666 27.5 47 45.5 64s36.1666 32.6666 54.5 47s34.5 29.6667 48.5 46c14 16.3334 22 33.1667 24 50.5
c3.33337 31.3334 -3.66663 56.3334 -21 75s-42 28 -74 28c-30 0 -53.5 -12.6666 -70.5 -38s-25.5 -55.3334 -25.5 -90h-160c0 78 24.1667 140.167 72.5 186.5s109.5 69.5 183.5 69.5z" />
    <glyph unicode="&#x2139;" 
d="M1040 1792c106 0 207.333 -20.6666 304 -62s180.167 -97.1667 250.5 -167.5c70.3334 -70.3334 126.167 -153.833 167.5 -250.5c41.3334 -96.6666 62 -198 62 -304c0 -104.667 -19.8334 -204.667 -59.5 -300s-96.5 -180 -170.5 -254s-158.667 -130.833 -254 -170.5
c-95.3334 -39.6667 -195.333 -59.5 -300 -59.5c-106 0 -207.333 20.6667 -304 62c-96.6667 41.3333 -180.167 97.1667 -250.5 167.5c-70.3333 70.3333 -126.167 153.833 -167.5 250.5c-41.3333 96.6667 -62 198 -62 304c0 104.667 19.8333 204.667 59.5 300
s96.5 180 170.5 254s158.667 130.833 254 170.5s195.333 59.5 300 59.5zM1486 562c59.3334 59.3333 104.833 127.5 136.5 204.5s47.5 157.5 47.5 241.5c0 114 -28.1666 219.333 -84.5 316s-132.833 173.167 -229.5 229.5s-202 84.5 -316 84.5
c-84 0 -164.5 -15.8334 -241.5 -47.5s-145.167 -77.1666 -204.5 -136.5s-104.833 -127.5 -136.5 -204.5c-31.6667 -77 -47.5 -157.5 -47.5 -241.5c0 -114 28.1667 -219.333 84.5 -316c56.3333 -96.6667 132.833 -173.167 229.5 -229.5c96.6667 -56.3333 202 -84.5 316 -84.5
c84.6666 0 165.333 15.8333 242 47.5c76.6666 31.6667 144.667 77.1667 204 136.5zM960 1248v160h160v-160h-160zM960 608v544h160v-544h-160z" />
    <glyph unicode="&#xed40;" 
d="M1808 1440c57.3334 0 106.333 -20.3334 147 -61s61 -89.6666 61 -147v-640c0 -57.3333 -20.3334 -106.333 -61 -147c-40.6666 -40.6667 -89.6666 -61 -147 -61h-144v160h144c13.3334 0 24.6667 4.66669 34 14c9.33337 9.33331 14 20.6666 14 34v640
c0 13.3334 -4.66663 24.6667 -14 34c-9.33337 9.33337 -20.6667 14 -34 14h-1568c-13.3333 0 -24.6667 -4.66663 -34 -14c-9.33333 -9.33337 -14 -20.6667 -14 -34v-640c0 -13.3333 4.66667 -24.6666 14 -34c9.33333 -9.33331 20.6667 -14 34 -14h144v-160h-144
c-57.3333 0 -106.333 20.3333 -147 61c-40.6667 40.6667 -61 89.6666 -61 147v640c0 57.3334 20.3333 106.333 61 147c40.6667 40.6666 89.6667 61 147 61h208v480h1152v-480h208zM608 1760v-320h832v320h-832zM512 224v640h160v-640h-160zM800 0v864h160v-864h-160zM1088 0
v864h160v-864h-160zM1376 224v640h160v-640h-160zM1728 1152v-160h-160v160h160z" />
    <glyph unicode="&#x2399;" 
d="M1808 1440c57.3334 0 106.333 -20.3334 147 -61s61 -89.6666 61 -147v-640c0 -57.3333 -20.3334 -106.333 -61 -147c-40.6666 -40.6667 -89.6666 -61 -147 -61h-80v160h80c13.3334 0 24.6667 4.66669 34 14c9.33337 9.33331 14 20.6666 14 34v640
c0 13.3334 -4.66663 24.6667 -14 34c-9.33337 9.33337 -20.6667 14 -34 14h-1568c-13.3333 0 -24.6667 -4.66663 -34 -14c-9.33333 -9.33337 -14 -20.6667 -14 -34v-640c0 -13.3333 4.66667 -24.6666 14 -34c9.33333 -9.33331 20.6667 -14 34 -14h80v-160h-80
c-57.3333 0 -106.333 20.3333 -147 61c-40.6667 40.6667 -61 89.6666 -61 147v640c0 57.3334 20.3333 106.333 61 147c40.6667 40.6666 89.6667 61 147 61h208v480h1152v-480h208zM608 1760v-320h832v320h-832zM448 160v704h1152v-704h-1152zM608 704v-384h832v384h-832z
M1728 1152v-160h-160v160h160z" />
    <glyph unicode="&#x25c5;" 
d="M1255 316l-718 718l718 718l113 -113l-605 -605l605 -605z" />
    <glyph unicode="&#x25bb;" 
d="M825 316l-114 113l605 605l-605 605l114 113l718 -718z" />
    <glyph unicode="&#x2b05;" 
d="M1856 1088v-160h-1347l644 -644l-114 -113l-837 837l837 837l114 -113l-644 -644h1347z" />
    <glyph unicode="&#x27a1;" 
d="M1009 1845l837 -837l-837 -837l-114 113l644 644h-1347v160h1347l-644 644z" />
    <glyph unicode="&#x1f4bc;" 
d="M1440 1376h448v-1184h-1728v1184h448v208c0 39.3334 14.1667 73.1667 42.5 101.5c28.3333 28.3334 62.1666 42.5 101.5 42.5h544c39.3334 0 73.1667 -14.1666 101.5 -42.5c28.3334 -28.3334 42.5 -62.1667 42.5 -101.5v-208zM1728 352v864h-832v160h384v192h-512v-352
h-448v-864h1408z" />
    <glyph unicode="&#x1f6b2;" 
d="M416 445c52 0 99.1667 14.1667 141.5 42.5c42.3333 28.3333 73.8333 65.5 94.5 111.5l68 -178c-38.6667 -42 -84.3334 -74.6667 -137 -98c-52.6667 -23.3333 -108.333 -35 -167 -35c-114.667 0 -212.667 40.6667 -294 122c-81.3333 81.3333 -122 179.333 -122 294
c0 114.667 40.6667 212.667 122 294c81.3333 81.3334 179.333 122 294 122c8.66666 0 22.3333 -0.666626 41 -2l67 -180c-34.6667 16.6667 -70.6667 25 -108 25c-71.3333 0 -132.333 -25.3333 -183 -76c-50.6667 -50.6667 -76 -111.667 -76 -183s25.3333 -132.333 76 -183
c50.6667 -50.6667 111.667 -76 183 -76zM1699 1114c100 -16 183.167 -62.6666 249.5 -140c66.3334 -77.3333 99.5 -167.333 99.5 -270c0 -114.667 -40.6666 -212.667 -122 -294c-81.3334 -81.3333 -179.333 -122 -294 -122s-212.667 40.6667 -294 122s-122 179.333 -122 294
c0 98.6667 31.3334 186.333 94 263l75 -188c-8 -24 -12 -49 -12 -75c0 -71.3333 25.3334 -132.333 76 -183c50.6666 -50.6667 111.667 -76 183 -76s132.333 25.3333 183 76c50.6666 50.6667 76 111.667 76 183c0 44 -10.1666 84.6667 -30.5 122s-48.1667 68 -83.5 92z
M1347 1221l-451 -446l52 -138l-149 -57l-267 700h-116v160h416v-160h-128l130 -342l448 445l-48 121h-178v160h287l363 -914l-148 -60z" />
    <glyph unicode="&#x267f;" 
d="M1598 193l-59 511c-2 13.3333 -6.16663 22.1666 -12.5 26.5c-6.33337 4.33331 -16.1667 6.16663 -29.5 5.5h-409v447c0 26 -9.66663 47.6666 -29 65c-34 28.6666 -85.3333 38 -154 28l-15 -2c-146 -20 -232 -38.6666 -258 -56
c-15.3333 -12.6666 -48.5 -52.1666 -99.5 -118.5s-98.8333 -133.167 -143.5 -200.5l-133 89c49.3333 74 102.667 148.167 160 222.5c57.3333 74.3334 99.3334 120.5 126 138.5c28 19.3334 66.8333 35 116.5 47s119.167 24.3334 208.5 37l15 2
c118 16.6666 211.667 -5.66675 281 -67c56.6666 -48.6666 85 -110.333 85 -185v-287h272c43.3334 0 81.8334 -15.1667 115.5 -45.5s54.1666 -69.5 61.5 -117.5l60 -522zM1216 1504c-62 0 -114.833 21.8334 -158.5 65.5c-43.6667 43.6666 -65.5 96.5 -65.5 158.5
s21.8333 114.833 65.5 158.5c43.6666 43.6666 96.5 65.5 158.5 65.5s114.833 -21.8334 158.5 -65.5s65.5 -96.5 65.5 -158.5s-21.8334 -114.833 -65.5 -158.5s-96.5 -65.5 -158.5 -65.5zM1216 1827c-27.3334 0 -50.6667 -9.66663 -70 -29
c-19.3334 -19.3334 -29 -42.6667 -29 -70c0 -27.3334 9.66663 -50.6667 29 -70c19.3334 -19.3334 42.6667 -29 70 -29c27.3334 0 50.6667 9.66663 70 29c19.3334 19.3334 29 42.6667 29 70c0 27.3334 -9.66663 50.6667 -29 70c-19.3334 19.3334 -42.6667 29 -70 29z
M1314 608h156c1.33337 -14.6667 2 -25.3334 2 -32c0 -69.3333 -13.5 -135.5 -40.5 -198.5s-63.5 -117.5 -109.5 -163.5s-100.5 -82.5 -163.5 -109.5s-129.167 -40.5 -198.5 -40.5c-69.3333 0 -135.5 13.5 -198.5 40.5s-117.5 63.5 -163.5 109.5s-82.5 100.5 -109.5 163.5
s-40.5 129.167 -40.5 198.5c0 124 39.5 233.167 118.5 327.5s178.167 152.833 297.5 175.5v-161c-75.3333 -21.3333 -137.333 -63.5 -186 -126.5s-73 -134.833 -73 -215.5c0 -98 34.6667 -181.667 104 -251s153 -104 251 -104c98 0 181.667 34.6667 251 104
c69.3334 69.3333 104 153 104 251c0 14 -0.333374 24.6667 -1 32z" />
    <glyph unicode="&#x1f319;" 
d="M1545 636c79.3334 5.33331 156.333 26.3333 231 63c-40 -81.3333 -92 -153 -156 -215c-59.3334 -57.3333 -125.333 -104.333 -198 -141c-95.3334 -47.3333 -195.333 -74.3333 -300 -81c-104.667 -6.66667 -203.833 5.5 -297.5 36.5
c-93.6667 31 -180.5 80.1667 -260.5 147.5c-80 67.3333 -143.667 148.333 -191 243s-74 194.333 -80 299s6.66666 203.667 38 297s81 180.167 149 260.5c68 80.3334 149.667 144.167 245 191.5c76 37.3334 153 62 231 74c87.3334 14 175.667 12.6666 265 -4
c-74 -37.3334 -137 -86.6667 -189 -148c-81.3333 -93.3334 -130.333 -201.333 -147 -324s3.33331 -242.333 60 -359c56.6667 -114 139.833 -201.5 249.5 -262.5s226.5 -86.8333 350.5 -77.5zM1351 486c0.666626 0 2.33325 0.666656 5 2c-118 22 -226 69 -324 141
s-174.667 163.667 -230 275c-55.3333 114.667 -82.6666 232 -82 352c0.666687 120 27.6667 233.667 81 341c-0.666687 0 -1.5 -0.166626 -2.5 -0.5s-1.83331 -0.833374 -2.5 -1.5c-75.3333 -38 -140.167 -88.8334 -194.5 -152.5
c-54.3333 -63.6666 -94.1667 -132.833 -119.5 -207.5c-25.3333 -74.6666 -35.5 -153.5 -30.5 -236.5s26.1667 -162.167 63.5 -237.5c38 -75.3333 88.8333 -139.833 152.5 -193.5s132.833 -92.6667 207.5 -117c74.6667 -24.3333 153.833 -34 237.5 -29
s163.167 26.5 238.5 64.5z" />
    <glyph unicode="&#x26a0;" 
d="M1040 1920l883 -1728h-1766zM1040 1568l-621 -1216h1242zM960 512v160h160v-160h-160zM960 1216h160v-192l-32 -256h-96l-32 256v192z" />
    <glyph unicode="&#xee02;" 
d="M384 1600v-1184h736v-160h-896v1504h896v-160h-736zM1061 539l-113 113l276 276h-648v160h648l-276 276l113 113l469 -469z" />
    <glyph unicode="&#xee03;" 
d="M800 1760h896v-1504h-896v160h736v1184h-736v160zM773 1477l469 -469l-469 -469l-113 113l276 276h-648v160h648l-276 276z" />
    <glyph unicode="&#x2600;" 
d="M470 1040c0 -23.3333 2.33334 -50 7 -80h-445v160h445c-4.66666 -30.6666 -7 -57.3333 -7 -80zM1603 1120h445v-160h-445c4.66663 30 7 56.6667 7 80c0 22.6666 -2.33337 49.3333 -7 80zM1495 1382c-33.3334 42.6666 -71.3334 80.3333 -114 113l315 314l113 -113z
M585 698c30.6667 -40 68.3334 -77.6667 113 -113l-314 -314l-113 113zM1120 1603c-30 4.66663 -56.6666 7 -80 7c-23.3333 0 -50 -2.33337 -80 -7v445h160v-445zM960 477c30.6667 -4.66666 57.3334 -7 80 -7s49.3333 2.33334 80 7v-445h-160v445zM1381 585
c40.6666 30 78.6666 67.6667 114 113l314 -314l-113 -113zM698 1495c-44.6667 -35.3334 -82.3334 -73 -113 -113l-314 314l113 113zM1040 1472c118.667 0 220.333 -42.3334 305 -127c84.6666 -84.6666 127 -186.333 127 -305c0 -118.667 -42.3334 -220.333 -127 -305
c-84.6666 -84.6667 -186.333 -127 -305 -127c-118.667 0 -220.333 42.3333 -305 127c-84.6667 84.6667 -127 186.333 -127 305s42.3333 220.333 127 305c84.6667 84.6666 186.333 127 305 127zM1040 765c76 0 140.833 26.8333 194.5 80.5s80.5 118.5 80.5 194.5
s-26.8334 140.833 -80.5 194.5s-118.5 80.5 -194.5 80.5s-140.833 -26.8334 -194.5 -80.5s-80.5 -118.5 -80.5 -194.5s26.8333 -140.833 80.5 -194.5s118.5 -80.5 194.5 -80.5z" />
    <glyph unicode="&#x1f4a7;" 
d="M1680 1255c74.6666 -120 112 -250.333 112 -391c0 -100 -19.5 -195.333 -58.5 -286c-39 -90.6667 -91.3334 -168.833 -157 -234.5c-65.6666 -65.6667 -143.833 -118 -234.5 -157c-90.6666 -39 -186 -58.5 -286 -58.5s-195.333 19.5 -286 58.5
s-168.833 91.3333 -234.5 157c-65.6667 65.6667 -118 143.833 -157 234.5s-58.5 186 -58.5 286c0 140.667 37.3333 271 112 391c35.3333 56.6666 102.5 140.333 201.5 251l232 252.5l133.5 136.5l57 57l57 -57l133.5 -136.5l232 -252.5
c99 -110.667 166.167 -194.333 201.5 -251zM1056 288c78 0 152.5 15.1667 223.5 45.5s132.333 71.3333 184 123s92.6666 113 123 184s45.5 145.5 45.5 223.5c0 110.667 -29.3334 212.667 -88 306c-60.6666 96.6666 -223.333 281.667 -488 555
c-264.667 -273.333 -427.333 -458.333 -488 -555c-58.6667 -93.3334 -88 -195.333 -88 -306c0 -78 15.1667 -152.5 45.5 -223.5c30.3333 -71 71.3333 -132.333 123 -184s113 -92.6667 184 -123s145.5 -45.5 223.5 -45.5zM676 1103c40.6667 64.6666 148 190.333 322 377
l116 -110c-163.333 -174 -264 -291.333 -302 -352c-29.3333 -46.6667 -44 -98 -44 -154c0 -81.3333 29.3333 -150.333 88 -207l-112 -114c-90.6667 87.3333 -136 194.333 -136 321c0 86 22.6667 165.667 68 239z" />
    <glyph unicode="&#x1f321;" 
d="M1440 1680v-852c85.3334 -80.6667 128 -191.333 128 -332c0 -90 -22.1666 -173 -66.5 -249s-104.5 -136.167 -180.5 -180.5c-76 -44.3333 -159 -66.5 -249 -66.5c-89.3333 0 -172.167 22.1667 -248.5 66.5c-76.3333 44.3333 -136.667 104.5 -181 180.5
c-44.3333 76 -66.5 159 -66.5 249c0 140.667 42.6667 251.333 128 332v852c0 101.333 36 188 108 260s158.667 108 260 108c101.333 0 188 -36 260 -108s108 -158.667 108 -260zM1072 160c92.6666 0 171.833 32.8333 237.5 98.5c65.6666 65.6667 98.5 144.833 98.5 237.5
c0 94.6667 -34.3334 175.333 -103 242l-25 24v918c0 57.3334 -20.3334 106.333 -61 147s-89.6666 61 -147 61c-57.3333 0 -106.333 -20.3334 -147 -61s-61 -89.6666 -61 -147v-918l-25 -24c-68.6667 -66.6667 -103 -147.333 -103 -242
c0 -92.6667 32.8333 -171.833 98.5 -237.5c65.6667 -65.6667 144.833 -98.5 237.5 -98.5zM1152 688c34.6666 -16.6667 64.6666 -42.6667 90 -78s38 -73.3333 38 -114c0 -57.3333 -20.3334 -106.333 -61 -147s-89.6666 -61 -147 -61c-57.3333 0 -106.333 20.3333 -147 61
s-61 89.6667 -61 147c0 40.6667 12.6667 78.6667 38 114s55.3333 61.3333 90 78v656h160v-656z" />
    <glyph unicode="&#x2b;" 
d="M1696 1120v-160h-608v-608h-160v608h-608v160h608v608h160v-608h608z" />
    <glyph unicode="&#x2421;" 
d="M1583 1470l-430 -430l430 -430l-113 -113l-430 430l-430 -430l-113 113l430 430l-430 430l113 113l430 -430l430 430z" />
    <glyph unicode="&#x1f515;" 
d="M1024 157c32.6666 0 62.5 9.16667 89.5 27.5s46.5 42.1667 58.5 71.5h166c-14 -74 -50.3334 -134.667 -109 -182c-58.6666 -47.3333 -127 -71 -205 -71c-78 0 -146.333 23.6667 -205 71c-58.6667 47.3333 -95 108 -109 182h166c12 -29.3333 31.5 -53.1667 58.5 -71.5
c27 -18.3333 56.8333 -27.5 89.5 -27.5zM369 544h1132l160 -160h-1501v178l27 24c4 2.66669 16.1667 14.3334 36.5 35c20.3333 20.6667 48.3333 54.3334 84 101c35.6667 46.6667 70 98.1667 103 154.5s63.1667 125 90.5 206c27.3333 81 44 162.167 50 243.5l12 157l149 -150
l-1 -18c-6.66669 -86.6666 -22.5 -171.667 -47.5 -255c-25 -83.3333 -55.8333 -157.833 -92.5 -223.5s-71 -121.167 -103 -166.5c-32 -45.3333 -65 -87.3333 -99 -126zM1784 670l297 -297l-114 -113l-1668 1668l113 113l300 -300c96.6667 34 199.333 51 308 51h12
c45.3334 0 90.5 -3.33337 135.5 -10s82.1666 -13.8333 111.5 -21.5c29.3334 -7.66663 57.6667 -17 85 -28c27.3334 -11 45.3334 -18.6666 54 -23s16 -8.16675 22 -11.5l36 -21l26 -351c5.33337 -70.6666 18 -140.667 38 -210s44.8334 -132.167 74.5 -188.5
s58 -104.667 85 -145c27 -40.3333 55.1666 -77.8333 84.5 -112.5zM1020 1635c-62.6667 0 -123 -7 -181 -21l550 -549c-24.6666 82.6666 -40.3333 166 -47 250l-19 265c-89.3334 36.6666 -186.333 55 -291 55h-12z" />
    <glyph unicode="&#x1f514;" 
d="M1888 561v-177h-1728v178l27 24c4 2.66669 16.1667 14.3334 36.5 35c20.3333 20.6667 48.3333 54.3334 84 101c35.6667 46.6667 70 98.1667 103 154.5s63.1667 125 90.5 206c27.3333 81 44 162.167 50 243.5l26 351l36 21c9.33331 6 27 15 53 27
s73.3333 26.1666 142 42.5s139.333 24.5 212 24.5h12c45.3334 0 90.5 -3.33337 135.5 -10s82.1666 -13.8333 111.5 -21.5c29.3334 -7.66663 57.6667 -17 85 -28c27.3334 -11 45.3334 -18.6666 54 -23s16 -8.16675 22 -11.5l36 -21l26 -351c6 -80 22.5 -160.333 49.5 -241
c27 -80.6667 55.3334 -147.667 85 -201s63.8333 -105.333 102.5 -156c38.6666 -50.6667 65.6666 -84.1667 81 -100.5s29 -30.1666 41 -41.5l1 -1zM369 544h1311c-33.3334 38 -65.8334 79.6667 -97.5 125s-65.6666 101 -102 167s-66.8334 140.667 -91.5 224
c-24.6666 83.3334 -40.3333 168.333 -47 255l-19 265c-89.3334 36.6666 -186.333 55 -291 55h-12c-104 0 -200.667 -18.3334 -290 -55l-19 -265c-6.66669 -86.6666 -22.5 -171.667 -47.5 -255c-25 -83.3333 -55.8333 -157.833 -92.5 -223.5s-71 -121.167 -103 -166.5
c-32 -45.3333 -65 -87.3333 -99 -126zM1024 157c32.6666 0 62.5 9.16667 89.5 27.5s46.5 42.1667 58.5 71.5h166c-14.6666 -74 -51.3333 -135.167 -110 -183.5c-58.6666 -48.3333 -126.667 -72.5 -204 -72.5c-77.3333 0 -145.333 24.1667 -204 72.5
c-58.6667 48.3333 -95.3334 109.5 -110 183.5h166c12 -29.3333 31.5 -53.1667 58.5 -71.5c27 -18.3333 56.8333 -27.5 89.5 -27.5z" />
    <glyph unicode="&#x2713;" 
d="M936 345l-608 774l126 99l466 -595l676 1083l136 -84z" />
    <glyph unicode="&#x21bb;" 
d="M1312 1056v160h304l-107 108l-100 101c-72 71.3334 -145.333 123.667 -220 157c-74.6666 33.3334 -156.333 50 -245 50c-84.6667 0 -165.5 -16.5 -242.5 -49.5s-143.333 -77.3334 -199 -133c-55.6667 -55.6666 -100 -122 -133 -199s-49.5 -157.833 -49.5 -242.5
c0 -84.6667 16.5 -165.5 49.5 -242.5s77.3333 -143.333 133 -199c55.6667 -55.6667 122 -100 199 -133s157.833 -49.5 242.5 -49.5c104 0 201 24 291 72s163.833 113.5 221.5 196.5s92.8333 174.833 105.5 275.5h161c-13.3334 -130 -56 -248.833 -128 -356.5
c-72 -107.667 -165.333 -192.5 -280 -254.5s-238.333 -93 -371 -93c-106 0 -207.333 20.6667 -304 62c-96.6667 41.3333 -180.167 97.1667 -250.5 167.5c-70.3333 70.3333 -126.167 153.833 -167.5 250.5c-41.3333 96.6667 -62 198 -62 304s20.6667 207.333 62 304
c41.3333 96.6666 97.1667 180.167 167.5 250.5c70.3333 70.3334 153.833 126.167 250.5 167.5c96.6667 41.3334 198 62 304 62c110 0 212 -20.6666 306 -62s184.667 -105.333 272 -192l99.5 -100.5l106.5 -107.5v302h160v-576h-576z" />
    <glyph unicode="&#x21ba;" 
d="M1104 1792c106 0 207.333 -20.6666 304 -62s180.167 -97.1667 250.5 -167.5c70.3334 -70.3334 126.167 -153.833 167.5 -250.5c41.3334 -96.6666 62 -198 62 -304s-20.6666 -207.333 -62 -304s-97.1667 -180.167 -167.5 -250.5
c-70.3334 -70.3333 -153.833 -126.167 -250.5 -167.5c-96.6666 -41.3333 -198 -62 -304 -62c-132.667 0 -256.333 31 -371 93c-114.667 62 -208.167 146.833 -280.5 254.5c-72.3333 107.667 -115.167 226.5 -128.5 356.5h162c20 -154 88.6667 -283.167 206 -387.5
c117.333 -104.333 254.667 -156.5 412 -156.5c84.6666 0 165.5 16.5 242.5 49.5s143.333 77.3333 199 133c55.6666 55.6667 100 122 133 199s49.5 157.833 49.5 242.5c0 84.6666 -16.5 165.5 -49.5 242.5s-77.3334 143.333 -133 199s-122 100 -199 133
s-157.833 49.5 -242.5 49.5c-88.6667 0 -170.333 -16.6666 -245 -50c-74.6667 -33.3334 -148 -85.6667 -220 -157l-207 -209h304v-160h-576v576h160v-302l106.5 107.5l99.5 100.5c87.3333 86.6666 178 150.667 272 192s196 62 306 62z" />
    <glyph unicode="&#x1f4f9;" 
d="M1885 1248c27.3334 0 50.6667 -9.66663 70 -29c19.3334 -19.3334 29 -43.3334 29 -72v-566c0 -28.6667 -9.66663 -52.6667 -29 -72c-19.3334 -19.3333 -42.6667 -29 -70 -29c-13.3334 0 -27 2.66666 -41 8l-212 87v-47c0 -66.6667 -23.3334 -123.333 -70 -170
c-46.6666 -46.6667 -103.333 -70 -170 -70h-1024c-66 0 -122.5 23.3333 -169.5 70s-70.5 103.333 -70.5 170v640c0 66 23.5 122.5 70.5 169.5s103.5 70.5 169.5 70.5h603l54 -160h-657c-22 0 -40.8333 -7.83337 -56.5 -23.5s-23.5 -34.5 -23.5 -56.5v-640
c0 -22 7.83334 -40.8333 23.5 -56.5s34.5 -23.5 56.5 -23.5h1024c22 0 40.8334 7.83334 56.5 23.5s23.5 34.5 23.5 56.5v640c0 22 -7.83337 40.8334 -23.5 56.5s-34.5 23.5 -56.5 23.5h-198l-108 320h-734v160h791c17.3334 0 33 -5 47 -15s23.6666 -23 29 -39l90 -266h83
c66.6666 0 123.333 -23.5 170 -70.5c46.6666 -47 70 -103.5 70 -169.5v-15l212 87c14 5.33337 27.6666 8 41 8zM1824 668v392l-192 -79v-234zM1248 640h-736v160h736v-160z" />
    <glyph unicode="&#x266b;" 
d="M576 1609l1056 155v-740v-320v-44c0 -111.333 -29.3334 -201.333 -88 -270c-58.6666 -68.6667 -135.667 -103 -231 -103c-88.6666 0 -159 28.1667 -211 84.5s-78 121.167 -78 194.5c0 76.6667 24.3334 143 73 199s115 93.6667 199 113l48 10v-163l-15 -3
c-15.3334 -3.33331 -30.3334 -8.33331 -45 -15s-30.1666 -15.8334 -46.5 -27.5c-16.3334 -11.6667 -29.3334 -27.3334 -39 -47c-9.66663 -19.6667 -14.5 -41.8334 -14.5 -66.5c0 -28.6667 10.1666 -55.6667 30.5 -81c20.3334 -25.3333 53.1667 -38 98.5 -38
c49.3334 0 88.1667 18.8333 116.5 56.5c28.3334 37.6667 42.5 89.8334 42.5 156.5v488l-736 -108v-539c0 -110.667 -29.5 -200.333 -88.5 -269c-59 -68.6667 -136.167 -103 -231.5 -103c-88.6667 0 -158.833 28 -210.5 84c-51.6667 56 -77.5 121 -77.5 195
c0 76.6667 24.3333 143 73 199s114.667 93.6667 198 113l49 10v-163l-15 -3c-16 -4 -31.3333 -9.16669 -46 -15.5s-30.1667 -15.3333 -46.5 -27c-16.3333 -11.6667 -29.5 -27.3333 -39.5 -47c-10 -19.6667 -15 -41.8333 -15 -66.5c0 -28.6667 10.3333 -55.6667 31 -81
s53.6667 -38 99 -38c50 0 89.1667 18.8333 117.5 56.5c28.3333 37.6667 42.5 89.5 42.5 155.5v1108zM1472 1309v270l-736 -108v-269z" />
    <glyph unicode="&#xe670;" 
d="M887 178l-655 1528l1528 -655l-591 -283zM537 1401l358 -835l154 322l324 155z" />
    <glyph unicode="&#x1f310;" 
d="M1594 1562c74 -74 130.833 -158.667 170.5 -254s59.5 -195.333 59.5 -300c0 -104.667 -19.8334 -204.667 -59.5 -300s-96.5 -180 -170.5 -254s-158.667 -130.833 -254 -170.5c-95.3334 -39.6667 -195.333 -59.5 -300 -59.5c-104.667 0 -204.667 19.8333 -300 59.5
c-95.3333 39.6667 -180 96.5 -254 170.5s-130.833 158.667 -170.5 254s-59.5 195.333 -59.5 300c0 104.667 19.8333 204.667 59.5 300s96.5 180 170.5 254s158.667 130.833 254 170.5s195.333 59.5 300 59.5c104.667 0 204.667 -19.8334 300 -59.5s180 -96.5 254 -170.5z
M1040 1638h-2c-18 -1.33337 -38.3333 -14.8334 -61 -40.5s-45 -64.8333 -67 -117.5c-43.3333 -110 -68.6666 -240.667 -76 -392h412c-7.33337 154 -32.6667 284.667 -76 392l-7 14c74 -18 141 -52 201 -102c22.6666 -92.6666 36.6666 -194 42 -304h259
c-18.6666 143.333 -78.3333 265.333 -179 366c-59.3334 59.3334 -127.5 104.833 -204.5 136.5s-157.5 47.5 -241.5 47.5zM1040 378c17.3334 0 37.8334 12.8333 61.5 38.5s46.5 65.5 68.5 119.5c43.3334 107.333 68.6667 238 76 392h-412
c7.33331 -151.333 32.6666 -282 76 -392c22 -54 44.8333 -93.8333 68.5 -119.5s44.1667 -38.5 61.5 -38.5zM594 1454c-100.667 -100.667 -160.333 -222.667 -179 -366h259c7.33331 172 36.6666 321.333 88 448c8 20 15.3333 36 22 48c-72 -32.6666 -135.333 -76 -190 -130z
M415 928c18.6667 -143.333 78.3333 -265.333 179 -366c57.3333 -56 120.667 -99 190 -129c-6 11.3333 -13.3333 27 -22 47c-51.3333 126.667 -80.6666 276 -88 448h-259zM1486 562c100.667 100.667 160.333 222.667 179 366h-259c-7.33337 -172 -36.6667 -321.333 -88 -448
c-8.66663 -20 -16 -35.6667 -22 -47c69.3334 30 132.667 73 190 129z" />
    <glyph unicode="&#x1f4ac;" 
d="M1488 1760c101.333 0 188 -36 260 -108s108 -158.667 108 -260v-416c0 -101.333 -36 -188 -108 -260s-158.667 -108 -260 -108h-327l-385 -362c-16.6667 -14.6667 -35.3334 -22 -56 -22c-10.6667 0 -21 2 -31 6c-14.6667 6.66667 -26.5 16.6667 -35.5 30
c-9 13.3333 -13.5 28 -13.5 44v304h-80c-101.333 0 -188 36 -260 108s-108 158.667 -108 260v416c0 101.333 36 188 108 260s158.667 108 260 108h928zM1696 976v416c0 57.3334 -20.3334 106.333 -61 147s-89.6666 61 -147 61h-928c-57.3333 0 -106.333 -20.3334 -147 -61
s-61 -89.6666 -61 -147v-416c0 -57.3333 20.3333 -106.333 61 -147s89.6667 -61 147 -61h240v-286l297 286h391c57.3334 0 106.333 20.3333 147 61s61 89.6667 61 147z" />
    <glyph unicode="&#x2709;" 
d="M1728 562v570l160 135v-947h-1632v978l160 -136v-601l305 384l129 -95l-294 -370h1033l-279 350l129 95zM256 1600h1632v-166l-644 -491c-41.3334 -30.6667 -91.6667 -46 -151 -46c-58.6666 0 -108.667 15.3333 -150 46l-687 522v135zM1149 1069l501 371h-1113l501 -371
c14.6666 -10.6666 33.1666 -16 55.5 -16s40.8334 5.33337 55.5 16z" />
    <glyph unicode="&#x1f4de;" 
d="M497 128c-50 0 -98.1667 12 -144.5 36s-87.3333 56 -123 96c-35.6667 40 -66.6667 83.8333 -93 131.5c-26.3333 47.6667 -46.8333 97.1667 -61.5 148.5c-14 48.6667 -14.3333 87.6667 -1 117c13.3333 29.3333 43 54 89 74l228 104l140 63
c33.3333 14.6667 60.3333 22 81 22c36 0 71.6667 -17.6667 107 -53l89 -89c82.6667 49.3333 157.333 107.333 224 174c68 68 126 142.333 174 223l-89 90c-31.3334 30.6666 -48.8334 61.5 -52.5 92.5s3.16675 62.5 20.5 94.5l64 140l104 228
c5.33337 12 10.3334 22.1666 15 30.5s11.8333 18.6667 21.5 31c9.66663 12.3334 22 21.8334 37 28.5s32.1666 10 51.5 10c16 0 38 -4 66 -12c51.3334 -14.6666 101 -35.3333 149 -62c48 -26.6666 92 -57.8333 132 -93.5c40 -35.6666 72 -77 96 -124s35.6666 -95.5 35 -145.5
c-1.33337 -112 -44 -251.333 -128 -418c-84 -166.667 -198.333 -322.333 -343 -467c-144.667 -144.667 -300.167 -258.833 -466.5 -342.5c-166.333 -83.6667 -305.833 -126.167 -418.5 -127.5h-3zM228 586v-2c22.6667 -78 59.6667 -146.833 111 -206.5
c51.3333 -59.6667 104 -89.5 158 -89.5h1c53.3333 0.666656 120.167 15.3333 200.5 44c80.3333 28.6667 173.5 76.3333 279.5 143s204.333 145.333 295 236c90 90 168.5 188.167 235.5 294.5c67 106.333 115 199.667 144 280c29 80.3334 43.8334 146.833 44.5 199.5
c0.666626 54 -29.1667 106.833 -89.5 158.5c-60.3334 51.6666 -129.833 88.8333 -208.5 111.5h-1l-104 -230l-63 -138c-0.666626 -2 -1.66663 -4.33337 -3 -7c0 -0.666626 0.666626 -1.66663 2 -3l171 -171l-24 -51c-55.3334 -110.667 -132.667 -216 -232 -316
c-98.6666 -98.6667 -204 -176 -316 -232l-51 -25l-172 172l-2 2c-1.33331 -0.666687 -4 -1.66669 -8 -3c-87.3333 -40 -133.333 -61 -138 -63z" />
    <glyph unicode="&#x1f44e;" 
d="M1743 1139c32.6666 -60.6666 49 -116.333 49 -167c0 -73.3333 -23.5 -130.667 -70.5 -172c-47 -41.3333 -111.5 -62 -193.5 -62h-176c-24.6666 0 -47.1666 -5.33331 -67.5 -16s-31.1667 -26 -32.5 -46c-3.33337 -39.3333 9.33325 -86.3333 38 -141
c12 -22 21.1666 -40 27.5 -54s12.5 -32.3333 18.5 -55s8.33337 -44.3333 7 -65c-2 -36.6667 -12.5 -70.1667 -31.5 -100.5c-19 -30.3333 -44.5 -54.1667 -76.5 -71.5c-36.6666 -20 -75.6666 -29.6667 -117 -29s-81 11.6667 -119 33c-48 26.6667 -137 119.667 -267 279l-9 13
l-55.5 67.5l-52.5 61l-57 58.5l-57.5 47l-64.5 41l-68.5 26l-79.5 16v160c32.6667 -2 64.3333 -6.33331 95 -13c30.6667 -6.66669 59.6667 -16.3334 87 -29c27.3333 -12.6667 52.3334 -25.1667 75 -37.5c22.6667 -12.3333 46.3334 -29 71 -50l62 -54
c16.6667 -15 36.8334 -36 60.5 -63l54.5 -63.5l54 -67l10 -12c50.6667 -62.6667 96.8334 -116.5 138.5 -161.5s68.8333 -71.1667 81.5 -78.5c28 -16.6667 55 -18 81 -4c16.6666 9.33334 25.3333 23.3333 26 42c0.666626 14 -11 43.6667 -35 89
c-44 84.6667 -63 161.333 -57 230c5.33337 60 32.1667 109 80.5 147c48.3334 38 108.167 57 179.5 57h176c24.6666 0 44.6666 2.5 60 7.5s25.8334 12.3333 31.5 22s9.16663 17.6667 10.5 24s2 14.5 2 24.5c0 24 -9.66663 54 -29 90c-10 17.3334 -19 42.3334 -27 75
c-7.33337 30 -9 66 -5 108c2.66663 39.3334 0 72 -8 98c-2 6 -4.83337 12.1666 -8.5 18.5s-7.16663 11.3334 -10.5 15l-16.5 18.5l-16.5 19c-23.3334 26 -40.6667 47.3334 -52 64c-13.3334 20 -24.6667 44.3334 -34 73c-6 16 -10.8334 27.5 -14.5 34.5
s-10.3333 14.8334 -20 23.5c-9.66663 8.66663 -23.1666 17 -40.5 25c-45.3334 21.3334 -102.333 31 -171 29c-120.667 0 -235.333 -31.6666 -344 -95c-27.3333 -16 -62.1666 -29 -104.5 -39c-42.3333 -10 -85.8333 -16.3334 -130.5 -19s-92 -4.5 -142 -5.5
c-50 -1 -96.6667 -0.833374 -140 0.5h-30v158h31c237.333 -2 382.333 12.6666 435 44c134.667 78 275.667 117 423 117h10c91.3334 0 168.667 -15 232 -45c26.6666 -12.6666 49.3333 -26.3333 68 -41c18.6666 -14.6666 33.8333 -30.6666 45.5 -48
c11.6666 -17.3334 20 -31.1667 25 -41.5c5 -10.3334 10.8334 -24.5 17.5 -42.5c7.33337 -20 13 -32.6666 17 -38c8.66663 -13.3334 21.3333 -29 38 -47l31 -36.5c7.33337 -9 16.1667 -22.5 26.5 -40.5c10.3334 -18 18.1667 -36.6666 23.5 -56
c14 -48 18.6666 -100.667 14 -158c-2.66663 -26 -2.33325 -44.3334 1 -55c2 -7.33337 7.66663 -19.3334 17 -36z" />
    <glyph unicode="&#x1f44d;" 
d="M1743 909c-9.33337 -16.6667 -15 -28.6667 -17 -36c-3.33337 -10.6667 -3.66675 -29 -1 -55c4.66663 -57.3333 0 -110 -14 -158c-5.33337 -19.3333 -13.1667 -38 -23.5 -56c-10.3334 -18 -19.1667 -31.5 -26.5 -40.5l-31 -36.5c-16.6666 -18 -29.3333 -33.6667 -38 -47
c-4 -5.33334 -9.66663 -18 -17 -38c-6.66663 -18 -12.5 -32.1667 -17.5 -42.5s-13.3334 -24.1667 -25 -41.5c-11.6666 -17.3333 -26.8333 -33.3333 -45.5 -48c-18.6666 -14.6667 -41.3333 -28.3333 -68 -41c-63.3334 -30 -140.667 -45 -232 -45h-10
c-147.333 0 -288.333 39 -423 117c-52.6667 31.3333 -197.667 46 -435 44h-31v158h30c43.3333 1.33331 90 1.5 140 0.5s97.3333 -2.83331 142 -5.5s88.1667 -9 130.5 -19s77.1666 -23 104.5 -39c108.667 -63.3333 223.333 -95 344 -95c68.6666 -2 125.667 7.66666 171 29
c24 11.3333 40.3334 22.3333 49 33s17.3333 27.3333 26 50c9.33337 28.6667 20.6667 53 34 73c11.3334 16.6667 28.6667 38 52 64l16.5 19l16.5 18.5c3.33337 3.66669 6.83337 8.66669 10.5 15s6.5 12.5 8.5 18.5c8 26 10.6666 58.6667 8 98c-4 42 -2.33337 78 5 108
c8 32.6667 17 57.6667 27 75c19.3334 36 29 66 29 90c0 10 -0.666626 18.1666 -2 24.5s-4.83337 14.3334 -10.5 24s-16.1666 17 -31.5 22s-35.3334 7.5 -60 7.5h-176c-71.3334 0 -131.167 19 -179.5 57c-48.3334 38 -75.1667 87 -80.5 147c-6 68.6666 13 145.333 57 230
c24 43.3334 35.6666 73 35 89c-0.666626 18.6666 -9.33325 32.6666 -26 42c-26 14 -53 12.6666 -81 -4c-12.6666 -7.33337 -39.8333 -33.5 -81.5 -78.5c-41.6667 -45 -87.8334 -98.8334 -138.5 -161.5l-10 -12l-54 -67l-54.5 -63.5c-23.6667 -27 -43.8334 -48 -60.5 -63
l-62 -54c-24.6667 -21 -48.3334 -37.6666 -71 -50c-22.6667 -12.3334 -47.6667 -24.8334 -75 -37.5c-27.3333 -12.6666 -56.3333 -22.3333 -87 -29c-30.6667 -6.66663 -62.3333 -11 -95 -13v160c27.3333 2.66663 53.8333 8 79.5 16s48.5 16.6666 68.5 26s41.5 23 64.5 41
s42.1667 33.6666 57.5 47s34.3333 32.8334 57 58.5l52.5 61l55.5 67.5l9 13c130 159.333 219 252.333 267 279c38 21.3334 77.6666 32.3334 119 33s80.3334 -9 117 -29c32.6666 -17.3334 58.3333 -41 77 -71c18.6666 -30 29 -63.6666 31 -101
c1.33337 -20.6666 -1 -42.3333 -7 -65c-6 -22.6666 -12.1666 -41 -18.5 -55s-15.5 -32 -27.5 -54c-28.6666 -54.6666 -41.3333 -101.667 -38 -141c1.33337 -20 12.1667 -35.3334 32.5 -46c20.3334 -10.6666 42.8334 -16 67.5 -16h176c82 0 146.5 -20.6666 193.5 -62
s70.5 -98.6667 70.5 -172c0 -50.6666 -16.3334 -106.333 -49 -167z" />
    <glyph unicode="&#x270e;" 
d="M1859 1601c40 -41.3334 60 -90.6667 60 -148c0 -56.6666 -20 -105.667 -60 -147l-193 -192l-520 521l192 192c40.6666 40.6666 89.6666 61 147 61s106.333 -20.3334 147 -61zM1746 1420c8.66663 8 13 19 13 33s-4.33337 25.3334 -13 34l-227 227
c-9.33337 9.33337 -20.6667 14 -34 14c-13.3334 0 -24.6667 -4.66663 -34 -14l-79 -79l294 -295zM851 525l612 612l113 -113l-639 -639l-785 -264l265 784l638 639l113 -113l-612 -612l-111 -330l76 -75zM677 645c-16 14.6667 -24 33.3334 -24 56c0 22 8 41 24 57l582 582
l113 -113l-582 -582c-16 -16 -35 -24 -57 -24s-40.6667 8 -56 24z" />
    <glyph unicode="&#x1f4ce;" 
d="M751 128c-114 0 -213.333 42.3333 -298 127c-91.3333 90.6667 -134 196.667 -128 318c6 121.333 59.3333 232.333 160 333l387 386c60.6667 60.6666 132.667 89.3333 216 86c76 -4 141.667 -33.6666 197 -89c56 -55.3334 85.6666 -120.667 89 -196
c3.33337 -83.3333 -25.6666 -155 -87 -215l-365 -364l-114 114l365 363c28 28 41.3334 59.3334 40 94c-2 34.6666 -16 65 -42 91s-56.3334 39.6666 -91 41c-34.6666 2 -65.9999 -11 -94 -39l-387 -386c-69.3333 -69.3333 -107 -142.333 -113 -219
c-6 -76.6667 21 -144.667 81 -204c54.6667 -55.3333 118.333 -82 191 -80c80 2 157 40 231 114l552 549c94.6666 95.3334 144 197.667 148 307c4 111.333 -39.3334 212.333 -130 303c-94 92.6666 -194.333 137 -301 133c-108.667 -3.33337 -212.333 -53.6667 -311 -151
l-529 -528l-114 114l529 527c127.333 127.333 267.333 193.667 420 199c154 5.33337 294 -54.6666 420 -180c125.333 -125.333 184.333 -266.333 177 -423c-6 -153.333 -71.3334 -291.333 -196 -414l-551 -549c-102.667 -104 -216 -158 -340 -162h-12z" />
    <glyph unicode="&#x2d;" 
d="M1729 895h-1377v162h1377v-162z" />
    <glyph unicode="&#xea02;" 
d="M1424 1920c57.3334 0 106.333 -20.3334 147 -61s61 -89.6666 61 -147v-1376c0 -57.3333 -20.3334 -106.333 -61 -147c-40.6666 -40.6667 -89.6666 -61 -147 -61h-768c-57.3333 0 -106.333 20.3333 -147 61c-40.6667 40.6667 -61 89.6667 -61 147v1376
c0 57.3334 20.3333 106.333 61 147c40.6667 40.6666 89.6667 61 147 61h768zM656 1760c-13.3333 0 -24.6666 -4.66663 -34 -14c-9.33331 -9.33337 -14 -20.6667 -14 -34v-176h864v176c0 13.3334 -4.66663 24.6667 -14 34c-9.33337 9.33337 -20.6667 14 -34 14h-768z
M1472 1376h-864v-640h864v640zM1424 288c13.3334 0 24.6667 4.66666 34 14c9.33337 9.33334 14 20.6667 14 34v240h-864v-240c0 -13.3333 4.66669 -24.6667 14 -34c9.33331 -9.33334 20.6666 -14 34 -14h768zM1040 512c22 0 40.8334 -7.83334 56.5 -23.5
s23.5 -34.5 23.5 -56.5s-7.83337 -40.8333 -23.5 -56.5s-34.5 -23.5 -56.5 -23.5s-40.8333 7.83334 -56.5 23.5s-23.5 34.5 -23.5 56.5s7.83331 40.8333 23.5 56.5s34.5 23.5 56.5 23.5z" />
    <glyph unicode="&#x1f512;" 
d="M944 768c40 0 74 -14.1667 102 -42.5s42 -62.1666 42 -101.5c0 -51.3333 -21.3334 -91.3333 -64 -120v-120h-160v120c-42.6667 28.6667 -64 68.6667 -64 120c0 39.3333 14 73.1666 42 101.5c28 28.3333 62 42.5 102 42.5zM1472 1087c54 -4 99.5 -26 136.5 -66
s55.5 -87 55.5 -141v-576c0 -57.3333 -20.3334 -106.333 -61 -147s-89.6666 -61 -147 -61h-1024c-57.3333 0 -106.333 20.3333 -147 61c-40.6667 40.6667 -61 89.6667 -61 147v576c0 54 18.5 101 55.5 141s82.5 62 136.5 66v145c0 95.3334 23.6667 183.5 71 264.5
c47.3333 81 111.5 145.167 192.5 192.5s169.167 71 264.5 71c95.3334 0 183.5 -23.6666 264.5 -71s145.167 -111.5 192.5 -192.5s71 -169.167 71 -264.5v-145zM1504 304v576c0 13.3333 -4.66663 24.6666 -14 34c-9.33337 9.33331 -20.6667 14 -34 14h-752v160h608v144
c0 101.333 -36 188 -108 260s-158.667 108 -260 108c-101.333 0 -188 -36 -260 -108s-108 -158.667 -108 -260v-304h-144c-13.3333 0 -24.6667 -4.66669 -34 -14c-9.33334 -9.33331 -14 -20.6666 -14 -34v-576c0 -13.3333 4.66666 -24.6667 14 -34
c9.33334 -9.33334 20.6667 -14 34 -14h1024c13.3334 0 24.6667 4.66666 34 14c9.33337 9.33334 14 20.6667 14 34z" />
    <glyph unicode="&#xe300;" 
d="M1322 1059l-205 206c-31.3334 30.6666 -48.8334 61.5 -52.5 92.5s3.16675 62.5 20.5 94.5l64 140l104 228c5.33337 12 10.3334 22.1666 15 30.5s11.8333 18.6667 21.5 31c9.66663 12.3334 22 21.8334 37 28.5s32.1666 10 51.5 10c16 0 38 -4 66 -12
c51.3334 -14.6666 101 -35.3333 149 -62c48 -26.6666 92 -57.8333 132 -93.5c40 -35.6666 72 -77 96 -124s35.6666 -95.5 35 -145.5c-1.33337 -84 -27 -186.667 -77 -308s-120 -242.333 -210 -363l-114 114c76.6666 106 135.833 210.333 177.5 313
c41.6666 102.667 63.1666 184.667 64.5 246c0.666626 54 -29.1667 106.833 -89.5 158.5c-60.3334 51.6666 -129.833 88.8333 -208.5 111.5h-1l-104 -230l-63 -138c-0.666626 -2 -1.66663 -4.33337 -3 -7c0 -0.666626 0.666626 -1.66663 2 -3l171 -171l-24 -51l-7 -13
c-4 -8 -10.5 -19.8334 -19.5 -35.5zM1974 188l-113 -113l-500 500c-142.667 -137.333 -294.667 -245.833 -456 -325.5c-161.333 -79.6667 -296.333 -120.167 -405 -121.5h-3c-50 0 -98.1667 12 -144.5 36s-87.3333 56 -123 96c-35.6667 40 -66.6667 83.8333 -93 131.5
c-26.3333 47.6667 -46.8333 97.1667 -61.5 148.5c-14 48.6667 -14.3333 87.6667 -1 117c13.3333 29.3333 43 54 89 74l228 104l140 63c33.3333 14.6667 60.3333 22 81 22c36 0 71.6667 -17.6667 107 -53l89 -89c73.3333 43.3333 139.667 93.3333 199 150l-891 892l113 113z
M498 288c82.6667 0.666656 195.667 36.1667 339 106.5s280.333 168.167 411 293.5l-128 128c-94 -89.3333 -191 -159 -291 -209l-51 -25l-172 172l-2 2c-1.33331 -0.666687 -4 -1.66669 -8 -3c-87.3333 -40 -133.333 -61 -138 -63l-230 -104v-2
c22.6667 -78 59.6667 -146.833 111 -206.5c51.3333 -59.6667 104 -89.5 158 -89.5h1z" />
    <glyph unicode="&#x1f513;" 
d="M1024 384h-160v120c-42.6667 28.6667 -64 68.6667 -64 120c0 39.3333 14 73.1666 42 101.5c28 28.3333 62 42.5 102 42.5s74 -14.1667 102 -42.5s42 -62.1666 42 -101.5c0 -51.3333 -21.3334 -91.3333 -64 -120v-120zM1456 1088c57.3334 0 106.333 -20.3334 147 -61
c40.6666 -40.6667 61 -89.6667 61 -147v-576c0 -57.3333 -20.3334 -106.333 -61 -147s-89.6666 -61 -147 -61h-1024c-57.3333 0 -106.333 20.3333 -147 61c-40.6667 40.6667 -61 89.6667 -61 147v576c0 52.6667 17.5 98.6667 52.5 138c35 39.3334 78.5 62 130.5 68l-23 61
c-26 68 -36.3333 137.167 -31 207.5s21.6667 135.833 49 196.5c27.3333 60.6666 67 115.167 119 163.5s111.667 84.8334 179 109.5c66 24 133.667 34.5 203 31.5s136 -19.5 200 -49.5s119.5 -70.6666 166.5 -122s82.5 -110 106.5 -176l34 -93l-150 -55l-34 93
c-16.6666 46 -41.3333 86.8334 -74 122.5c-32.6666 35.6666 -71.6666 64.1666 -117 85.5c-92 43.3334 -185.667 47.3334 -281 12c-94 -34 -163 -97.3334 -207 -190c-43.3333 -91.3334 -47.6667 -185 -13 -281l100 -274h-202c-13.3333 0 -24.6667 -4.66669 -34 -14
c-9.33334 -9.33331 -14 -20.6666 -14 -34v-576c0 -13.3333 4.66666 -24.6667 14 -34c9.33334 -9.33334 20.6667 -14 34 -14h1024c13.3334 0 24.6667 4.66666 34 14c9.33337 9.33334 14 20.6667 14 34v576c0 13.3333 -4.66663 24.6666 -14 34
c-9.33337 9.33331 -20.6667 14 -34 14h-685l-59 160h744z" />
    <glyph unicode="&#x1f464;" 
d="M1024 928c-127.333 0 -233.833 51.5 -319.5 154.5s-128.5 231.167 -128.5 384.5c0 80 20.3333 155 61 225s95.5 125.5 164.5 166.5s143.167 61.5 222.5 61.5c79.3334 0 153.5 -20.5 222.5 -61.5s123.833 -96.5 164.5 -166.5s61 -145 61 -225
c0 -153.333 -42.8334 -281.5 -128.5 -384.5s-192.167 -154.5 -319.5 -154.5zM1024 1765c-77.3333 0 -145.333 -29.8334 -204 -89.5s-88 -129.167 -88 -208.5c0 -109.333 27.8333 -200.667 83.5 -274c55.6667 -73.3334 125.167 -110 208.5 -110
c83.3334 0 152.833 36.6666 208.5 110s83.5 164.667 83.5 274c0 79.3334 -29.3334 148.833 -88 208.5s-126.667 89.5 -204 89.5zM353 128h-160l14 164c17.3333 164 96.1667 289.667 236.5 377c140.333 87.3333 333.833 131 580.5 131c246.667 0 440.167 -43.5 580.5 -130.5
s219.167 -212.5 236.5 -376.5l14 -165h-160l-14 150c-6 57.3333 -23.8334 108.167 -53.5 152.5c-29.6666 44.3333 -65.8333 79.5 -108.5 105.5c-42.6666 26 -92.8333 47.3333 -150.5 64c-57.6666 16.6667 -114 28 -169 34s-113.5 9 -175.5 9s-120.5 -3 -175.5 -9
s-111.333 -17.3333 -169 -34s-107.833 -38.1667 -150.5 -64.5c-42.6667 -26.3333 -78.8333 -61.5 -108.5 -105.5c-29.6667 -44 -47.5 -95 -53.5 -153z" />
    <glyph unicode="&#x1f3f7;" 
d="M1920 1934l68 -922l-954 -954l-977 977l953 953zM1034 285l789 788l-52 710l-698 41l-790 -789zM1059 1384l113 -113l-416 -416l-113 113zM858 754l415 415l114 -113l-416 -415zM1354 1558c28 28 62 42 102 42s74 -14 102 -42s42 -62 42 -102s-14 -74 -42 -102
s-62 -42 -102 -42s-74 14 -102 42s-42 62 -42 102s14 74 42 102z" />
    <glyph unicode="&#x1f441;" 
d="M1024 1696c77.3334 0 155 -11.5 233 -34.5s149.167 -53.1666 213.5 -90.5s124.833 -80 181.5 -128s104.333 -96.8334 143 -146.5c38.6666 -49.6666 69.1666 -98.3333 91.5 -146c22.3334 -47.6666 33.5 -89.8333 33.5 -126.5c0 -36.6667 -11.1666 -78.8334 -33.5 -126.5
c-22.3334 -47.6667 -52.8334 -96.3334 -91.5 -146c-38.6666 -49.6667 -86.3333 -98.5 -143 -146.5c-56.6666 -48 -117.167 -90.6667 -181.5 -128c-64.3334 -37.3333 -135.5 -67.5 -213.5 -90.5s-155.667 -34.5 -233 -34.5c-77.3333 0 -155 11.5 -233 34.5
s-149.167 53.1667 -213.5 90.5c-64.3333 37.3333 -124.833 80 -181.5 128c-56.6667 48 -104.333 96.8333 -143 146.5c-38.6667 49.6667 -69.1667 98.3334 -91.5 146c-22.3333 47.6667 -33.5 89.8334 -33.5 126.5s11.1667 78.8333 33.5 126.5
c22.3333 47.6666 52.8333 96.3333 91.5 146c38.6667 49.6666 86.3333 98.5 143 146.5c56.6667 48 117.167 90.6666 181.5 128c64.3333 37.3334 135.5 67.5 213.5 90.5s155.667 34.5 233 34.5zM1024 512c66 0 132 10.1667 198 30.5s125.167 46.6666 177.5 79
c52.3334 32.3333 101.5 68.1666 147.5 107.5c46 39.3333 84.3334 78 115 116s54.6666 72.8333 72 104.5s26 56.5 26 74.5s-8.66663 42.8334 -26 74.5s-41.3334 66.5 -72 104.5s-69 76.6666 -115 116s-95.1666 75.1667 -147.5 107.5
c-52.3334 32.3334 -111.5 58.6667 -177.5 79c-66 20.3334 -132 30.5 -198 30.5s-132 -10.1666 -198 -30.5s-125.167 -46.6667 -177.5 -79c-52.3333 -32.3334 -101.5 -68.1667 -147.5 -107.5c-46 -39.3334 -84.3333 -78 -115 -116s-54.6667 -72.8334 -72 -104.5
s-26 -56.5 -26 -74.5s8.66666 -42.8333 26 -74.5s41.3333 -66.5 72 -104.5s69 -76.6667 115 -116s95.1667 -75.1666 147.5 -107.5c52.3333 -32.3333 111.5 -58.6666 177.5 -79c66 -20.3333 132 -30.5 198 -30.5zM1224 1124l143 72c27.3334 -54.6666 41 -112 41 -172
c0 -106 -37.5 -196.5 -112.5 -271.5s-165.5 -112.5 -271.5 -112.5s-196.5 37.5 -271.5 112.5s-112.5 165.5 -112.5 271.5s37.5 196.5 112.5 271.5s165.5 112.5 271.5 112.5v-160c-61.3333 0 -114 -22 -158 -66s-66 -96.6666 -66 -158c0 -61.3333 22 -114 66 -158
s96.6667 -66 158 -66c61.3334 0 114 22 158 66s66 96.6667 66 158c0 34.6666 -8 68 -24 100z" />
    <glyph unicode="&#x1f304;" 
d="M1888 224h-1664v1280h1664v-1280zM384 384h1344v960h-1344v-960zM763 512h-195l287 384l130 -84l215 329l352 -629h-179l-183 328l-159 -244l-138 90zM800 1072c0 -40 -14 -74 -42 -102s-62 -42 -102 -42c-39.3333 0 -73.1666 14 -101.5 42
c-28.3333 28 -42.5 62 -42.5 102s14.1667 74 42.5 102s62.1666 42 101.5 42c40 0 74 -14 102 -42s42 -62 42 -102z" />
    <glyph unicode="&#xee06;" 
d="M256 1408c-34.6667 0 -64.6667 12.6666 -90 38s-38 55.3334 -38 90s12.6667 64.6666 38 90s55.3333 38 90 38h1536c35.3334 0 65.5 -12.5 90.5 -37.5s37.5 -55.1666 37.5 -90.5s-12.5 -65.5 -37.5 -90.5s-55.1666 -37.5 -90.5 -37.5h-1536zM1792 640
c35.3334 0 65.5 -12.5 90.5 -37.5s37.5 -55.1667 37.5 -90.5c0 -35.3333 -12.5 -65.5 -37.5 -90.5s-55.1666 -37.5 -90.5 -37.5h-1536c-34.6667 0 -64.6667 12.6667 -90 38s-38 55.3333 -38 90c0 34.6667 12.6667 64.6667 38 90s55.3333 38 90 38h1536zM1792 1152
c35.3334 0 65.5 -12.5 90.5 -37.5s37.5 -55.1666 37.5 -90.5c0 -35.3333 -12.5 -65.5 -37.5 -90.5s-55.1666 -37.5 -90.5 -37.5h-1536c-34.6667 0 -64.6667 12.6667 -90 38s-38 55.3333 -38 90c0 34.6666 12.6667 64.6666 38 90s55.3333 38 90 38h1536z" />
    <glyph unicode="&#x21aa;" 
d="M1472 768c17.3334 0 32.3334 -6.33331 45 -19s19 -27.6667 19 -45v-512c0 -53.3333 -18.6666 -98.6667 -56 -136c-37.3334 -37.3333 -82.6667 -56 -136 -56h-1152c-53.3333 0 -98.6667 18.6667 -136 56c-37.3333 37.3333 -56 82.6667 -56 136v1152
c0 53.3334 18.6667 98.6667 56 136c37.3333 37.3334 82.6667 56 136 56h512c17.3333 0 32.3333 -6.33337 45 -19s19 -27.6666 19 -45s-6.33331 -32.3334 -19 -45s-27.6667 -19 -45 -19h-512c-17.3333 0 -32.3333 -6.33337 -45 -19s-19 -27.6666 -19 -45v-1152
c0 -17.3333 6.33333 -32.3333 19 -45s27.6667 -19 45 -19h1152c17.3334 0 32.3334 6.33333 45 19s19 27.6667 19 45v512c0 17.3333 6.16663 32.3333 18.5 45s27.5 19 45.5 19zM1275 1792h517v-517c0 -17.3334 -6.33337 -32.3334 -19 -45s-27.6666 -19 -45 -19
c-17.3334 0.666626 -32.3334 7.33325 -45 20c-12.6666 12.6666 -19 27.3333 -19 44v298l-751 -750c-12.6667 -12.6667 -27.6667 -19 -45 -19s-32.3333 6.33331 -45 19s-19 27.6667 -19 45s6.33331 32.3333 19 45l750 751h-298c-16.6666 0 -31.5 6.33337 -44.5 19
s-19.5 27.6666 -19.5 45s6.33337 32.3334 19 45s27.6666 19 45 19z" />
    <glyph unicode=" " horiz-adv-x="0" 
 />
    <glyph unicode="A" horiz-adv-x="0" 
 />
    <glyph unicode="C" horiz-adv-x="0" 
 />
    <glyph unicode="B" horiz-adv-x="0" 
 />
    <glyph unicode="E" horiz-adv-x="0" 
 />
    <glyph unicode="D" horiz-adv-x="0" 
 />
    <glyph unicode="G" horiz-adv-x="0" 
 />
    <glyph unicode="F" horiz-adv-x="0" 
 />
    <glyph unicode="I" horiz-adv-x="0" 
 />
    <glyph unicode="H" horiz-adv-x="0" 
 />
    <glyph unicode="K" horiz-adv-x="0" 
 />
    <glyph unicode="J" horiz-adv-x="0" 
 />
    <glyph unicode="M" horiz-adv-x="0" 
 />
    <glyph unicode="L" horiz-adv-x="0" 
 />
    <glyph unicode="O" horiz-adv-x="0" 
 />
    <glyph unicode="N" horiz-adv-x="0" 
 />
    <glyph unicode="Q" horiz-adv-x="0" 
 />
    <glyph unicode="P" horiz-adv-x="0" 
 />
    <glyph unicode="S" horiz-adv-x="0" 
 />
    <glyph unicode="R" horiz-adv-x="0" 
 />
    <glyph unicode="U" horiz-adv-x="0" 
 />
    <glyph unicode="T" horiz-adv-x="0" 
 />
    <glyph unicode="W" horiz-adv-x="0" 
 />
    <glyph unicode="V" horiz-adv-x="0" 
 />
    <glyph unicode="Y" horiz-adv-x="0" 
 />
    <glyph unicode="X" horiz-adv-x="0" 
 />
    <glyph unicode="Z" horiz-adv-x="0" 
 />
    <glyph unicode="a" horiz-adv-x="0" 
 />
    <glyph unicode="c" horiz-adv-x="0" 
 />
    <glyph unicode="b" horiz-adv-x="0" 
 />
    <glyph unicode="e" horiz-adv-x="0" 
 />
    <glyph unicode="d" horiz-adv-x="0" 
 />
    <glyph unicode="g" horiz-adv-x="0" 
 />
    <glyph unicode="f" horiz-adv-x="0" 
 />
    <glyph unicode="i" horiz-adv-x="0" 
 />
    <glyph unicode="h" horiz-adv-x="0" 
 />
    <glyph unicode="k" horiz-adv-x="0" 
 />
    <glyph unicode="j" horiz-adv-x="0" 
 />
    <glyph unicode="m" horiz-adv-x="0" 
 />
    <glyph unicode="l" horiz-adv-x="0" 
 />
    <glyph unicode="o" horiz-adv-x="0" 
 />
    <glyph unicode="n" horiz-adv-x="0" 
 />
    <glyph unicode="q" horiz-adv-x="0" 
 />
    <glyph unicode="p" horiz-adv-x="0" 
 />
    <glyph unicode="s" horiz-adv-x="0" 
 />
    <glyph unicode="r" horiz-adv-x="0" 
 />
    <glyph unicode="u" horiz-adv-x="0" 
 />
    <glyph unicode="t" horiz-adv-x="0" 
 />
    <glyph unicode="w" horiz-adv-x="0" 
 />
    <glyph unicode="v" horiz-adv-x="0" 
 />
    <glyph unicode="y" horiz-adv-x="0" 
 />
    <glyph unicode="x" horiz-adv-x="0" 
 />
    <glyph unicode="z" horiz-adv-x="0" 
 />
  </font>
</defs>
</svg>
